<?xml version="1.0" encoding="UTF-8"?>
<svg id="Capa_2" data-name="Capa 2" xmlns="http://www.w3.org/2000/svg" viewBox="0 0 53 51.19">
  <defs>
    <style>
      .cls-1 {
        fill: #f2f0e3;
      }

      .cls-1, .cls-2 {
        stroke-width: 0px;
      }

      .cls-2 {
        fill: #e297b3;
      }
    </style>
  </defs>
  <g id="Dark_Version" data-name="Dark Version">
    <g>
      <path class="cls-2" d="M52.94,5.75c-.17-1.24-.81-2.49-1.92-3.07-.76-.4-1.64-.45-2.5-.49-8.76-.45-17.52-.86-26.28-1.26-3.58-.16-7.17-.32-10.76-.18-2.06.08-4.3.33-5.78,1.76l.26.76C3.23,15.81,1.57,28.59.99,41.42c-.08,1.77-.13,3.57.33,5.27.32,1.18.93,2.33,1.96,2.98.84.52,1.86.65,2.84.76,12.87,1.37,25.86.61,38.78-.15.57-.03,1.22-.1,1.59-.54.28-.32.34-.77.39-1.19,1.54-13.08,3.47-26.11,5.78-39.07.22-1.24.45-2.49.28-3.74ZM23.45,41.94c-.46,1.37-.98,2.88-2.22,3.64-1.53.92-3.59.27-4.88-.96-1.29-1.23-2.01-2.92-2.84-4.5-1.77-3.38-4.14-6.43-6.92-9.04-.42-.39-.87-.82-.97-1.38-.05-.3.06-.64.26-.86,0,0,.21-.23.29-.32,1.17-1.04,2.57-1.82,4.08-2.25.46-.14.96-.24,1.43-.13.66.16,1.15.71,1.57,1.24,2.06,2.57,3.83,5.37,5.28,8.33,2.28-3.93,4.56-7.87,7.06-11.67,1.08-1.65,2.21-3.28,3.49-4.78,1.53-1.79,3.27-3.38,5.01-4.96,1.77-1.62,3.55-3.23,5.32-4.85,1.76-1.6,3.57-3.24,5.79-4.11l.27-.08c-8.66,11.42-17.44,23.12-22.03,36.7Z"/>
      <path class="cls-1" d="M45.1,4.93c-2.89,1.21-5.1,3.43-7.38,5.51-2.63,2.4-5.36,4.72-7.81,7.3-4.85,5.11-8.21,11.7-11.72,17.76h.67c-1.5-3.03-3.3-6.13-5.56-8.67-.68-.76-1.4-1.22-2.45-1.11-1.49.16-3.05,1.04-4.22,1.91-.66.49-1.5,1.13-1.4,2.06.12,1.18,1.54,2.08,2.29,2.85,2.34,2.42,4.3,5.15,5.84,8.14,1.21,2.34,2.54,5.09,5.41,5.64,2.57.5,4.02-1.4,4.81-3.58,2.39-6.56,5.3-12.72,8.99-18.65,4.03-6.48,8.64-12.58,13.24-18.66.3-.4-.37-.79-.67-.39-6.8,8.97-13.64,18.04-18.55,28.22-1.18,2.46-2.25,4.97-3.17,7.54-.45,1.27-.77,2.76-1.67,3.81-1.15,1.34-2.97,1.19-4.36.33-2.33-1.44-3.23-4.63-4.6-6.87s-2.94-4.24-4.73-6.09c-.43-.45-1.44-1.11-1.7-1.68-.58-1.28.44-1.9,1.36-2.48.75-.48,1.57-.86,2.42-1.13,1.05-.33,1.88-.14,2.61.69,2.2,2.51,3.96,5.53,5.44,8.51.13.27.53.24.67,0,1.71-2.95,3.42-5.9,5.22-8.8s3.69-5.9,6.05-8.46,4.8-4.6,7.25-6.83,4.83-4.82,7.92-6.12c.46-.19.26-.94-.21-.75h0Z"/>
      <path class="cls-1" d="M45.13,50.01c-6.19.22-12.43.02-18.62-.14s-12.44-.25-18.63-.68c-2.41-.17-5.56-.7-6.76-3.12-.62-1.26-.36-2.75-.25-4.1s.22-2.65.33-3.98c.45-5.69.87-11.39,1.45-17.07.3-2.95.64-5.89,1.06-8.82.38-2.65.63-5.48,1.39-8.05.36-1.22,1.18-2.24,2.33-2.8,1.41-.7,3.08-.4,4.6-.34,3.13.13,6.27.25,9.4.38,6.27.25,12.53.51,18.8.76,2.58.1,5.43-.09,7.92.7,1.05.33,2.1.89,2.62,1.91.72,1.4.22,3.35.08,4.85-.68,7.09-1.36,14.19-2.04,21.28-.33,3.46-.66,6.93-1,10.39-.17,1.81-.35,3.63-.52,5.44-.15,1.61-.24,3.18-2.17,3.37-.49.05-.5.83,0,.78,2.18-.22,2.7-1.68,2.9-3.65.34-3.46.66-6.93,1-10.39.68-7.09,1.36-14.19,2.04-21.28.16-1.65.32-3.3.47-4.95s.56-3.44.29-5.06c-.34-2.08-2.2-3.16-4.1-3.61-2.73-.65-5.7-.48-8.49-.6-3.55-.14-7.09-.29-10.64-.43s-7.09-.29-10.64-.43c-1.65-.07-3.3-.13-4.95-.2-1.48-.06-3.14-.33-4.61-.06-2.33.43-3.76,2.27-4.22,4.49-.59,2.88-1.03,5.8-1.42,8.72-.86,6.39-1.4,12.82-1.91,19.24-.24,3-.47,6-.72,8.99-.21,2.55-.44,4.9,1.79,6.62s5.25,1.76,7.92,1.89c3.9.18,7.81.29,11.71.43,7.83.27,15.73.56,23.57.29.5-.02.5-.8,0-.78Z"/>
    </g>
  </g>
</svg>