<?xml version="1.0" encoding="UTF-8"?>
<svg id="Capa_2" data-name="Capa 2" xmlns="http://www.w3.org/2000/svg" viewBox="0 0 70.96 71.56">
  <defs>
    <style>
      .cls-1 {
        fill: #f2f0e3;
      }

      .cls-1, .cls-2 {
        stroke-width: 0px;
      }

      .cls-2 {
        fill: #c7702d;
      }
    </style>
  </defs>
  <g id="Dark_Version" data-name="Dark Version">
    <g>
      <g>
        <path class="cls-1" d="M.72,16.93C13.37,11.23,26.19,5.89,39.15.93l-.58-.33c6.81,18.12,13.45,36.3,19.94,54.53.2.56,1.11.32.9-.25C52.93,36.65,46.29,18.47,39.48.35c-.08-.22-.32-.42-.58-.33C25.86,5.01,12.97,10.38.24,16.12c-.55.25-.07,1.06.47.81h0Z"/>
        <g>
          <path class="cls-1" d="M.11,16.82c6.64,18.21,13.49,36.34,20.54,54.4.12.3.39.41.69.28,12.44-5.65,25.05-10.94,37.8-15.86.56-.21.32-1.12-.25-.9-12.83,4.95-25.51,10.27-38.02,15.96l.69.28C14.51,52.92,7.66,34.79,1.01,16.58c-.21-.56-1.11-.32-.9.25H.11Z"/>
          <path class="cls-1" d="M7.64,21.93c-.21.57-.24,1.21,0,1.77s.74.85,1.31.91,1.11-.27,1.32-.81,0-1.19-.39-1.6c-.44-.48-1.11-.66-1.73-.79-.24-.05-.52.07-.58.33-.05.24.07.52.33.58.22.05.44.1.66.17.05.02.1.03.15.05h.03s.04.03-.02,0c.01,0,.05.02.06.03.11.05.2.11.3.18.09.06-.06-.05,0,0,.02.02.04.03.06.05.03.03.07.06.1.1,0,0,.07.08.02.02s0,0,.01.02c.03.05.06.1.08.15,0,.01.01.04.02.05l-.03-.06s.01.04.02.05c.01.04.03.09.04.13,0,.01,0,.04.01.05v-.07s0,.04,0,.05c0,.05-.01.11,0,.16,0,0,.02-.12,0-.05,0,.03-.01.05-.02.08,0,.01-.02.04-.02.05l.03-.06s-.02.03-.02.05c0,.02-.02.03-.03.05-.05.08.07-.07,0,0-.01.01-.02.02-.03.04-.01.01-.1.08-.03.03s-.03.02-.05.03c-.04.02-.09.02.03,0-.01,0-.03.01-.04.02-.04.01-.08.02-.12.03-.09.02.12,0,.03,0-.02,0-.05,0-.07,0-.04,0-.08,0-.12,0,.13,0,.07.01.03,0-.02,0-.03,0-.05-.01-.04-.01-.08-.02-.12-.04-.09-.03.1.05.02,0-.02-.01-.05-.02-.07-.03-.03-.02-.07-.05-.11-.07.09.03.06.06.03.02-.02-.01-.03-.03-.05-.04s-.03-.03-.04-.05c-.04-.04,0-.05.02.03-.01-.05-.08-.11-.1-.16,0-.02-.02-.04-.03-.05-.02-.05-.02-.04.01.03,0-.02-.01-.04-.02-.06-.02-.05-.03-.11-.05-.16,0-.03,0-.05-.01-.08-.02-.1,0,.1,0,0,0-.06,0-.12,0-.19s0-.13.01-.19c0-.11-.02.08,0,.01,0-.04.01-.07.02-.11.03-.12.06-.24.11-.36.09-.23-.1-.52-.33-.58-.27-.06-.48.08-.58.33h0Z"/>
          <path class="cls-1" d="M12.97,22.47c7.87-3.11,15.65-6.41,23.36-9.91.55-.25.07-1.06-.47-.81-7.63,3.46-15.34,6.73-23.13,9.82-.55.22-.31,1.13.25.9h0Z"/>
          <path class="cls-1" d="M11.95,30.61c-.69.1-1.1.78-1.17,1.42-.07.69.34,1.34.95,1.66.64.33,1.46.37,2.12.06.38-.18.68-.54.69-.98s-.26-.85-.48-1.2c-.24-.38-.54-.76-.95-.98-.46-.24-.95-.28-1.43-.07-.22.1-.3.44-.17.64.15.23.4.28.64.17-.09.04.03,0,.04,0,.03,0,.05-.01.08-.02-.1.02,0,0,.02,0,.03,0,.07,0,.1,0-.09,0-.03,0,0,0,.04.01.08.02.12.03.03,0,.05.02.08.03-.09-.03.02.01.04.02.06.03.12.07.18.11-.07-.05,0,0,.02.02.03.02.05.05.08.08.05.05.1.11.15.16,0,0,.05.07,0,.01.03.04.05.07.08.11.08.12.16.25.24.38.04.07.08.13.12.2.02.03.03.06.05.09.02.05.03.06.01.02,0,.02.02.04.02.07,0,.02.03.12.02.03,0,.03,0,.06,0,.09,0-.08-.01.02-.02.04,0-.02.05-.09,0-.02-.05.09.05-.03,0,0-.02.01-.04.04-.06.06-.06.06,0,0,0,0-.04.02-.07.05-.11.07-.02.01-.1.04,0,0-.02,0-.05.02-.07.03-.06.02-.12.04-.18.05-.03,0-.06.01-.09.02-.07.02.12,0,0,0-.07,0-.14.01-.2.01-.06,0-.11,0-.17,0-.02,0-.15-.02-.02,0-.02,0-.05,0-.07-.01-.06-.01-.12-.02-.18-.04-.02,0-.05-.01-.07-.02-.01,0-.14-.05-.08-.03.07.03-.04-.02-.04-.02-.02-.01-.04-.02-.06-.03-.05-.03-.1-.06-.15-.09-.1-.06.05.05,0,0-.02-.02-.05-.04-.07-.06-.02-.02-.03-.03-.05-.05,0,0-.09-.12-.06-.06.04.06-.02-.04-.03-.04-.01-.02-.02-.04-.03-.06,0-.01-.05-.07-.04-.08,0,0,.04.11.01.02-.01-.05-.03-.1-.04-.15-.02-.1,0,.08,0,.02,0-.04,0-.07,0-.11,0-.02,0-.16,0-.16,0,0-.02.11,0,0,0-.03.01-.06.02-.09,0-.02.01-.04.02-.06,0-.02.01-.04.02-.06-.03.06-.03.07-.02.04.03-.05.05-.1.08-.15l.02-.03s.02-.03,0,0c-.02.03-.02.03,0,0,.01-.01.03-.03.04-.04.01-.01.03-.03.04-.04.07-.07-.08.05,0,0,.03-.02.05-.03.08-.05h.03s.04-.03-.03,0c0,0,.17-.04.18-.04.24-.04.4-.36.33-.58-.09-.27-.32-.37-.58-.33h0Z"/>
          <path class="cls-1" d="M16.62,31.83c7.52-3.25,15.1-6.36,22.74-9.32.56-.22.31-1.12-.25-.9-7.72,2.99-15.37,6.13-22.97,9.41-.55.24-.08,1.05.47.81h0Z"/>
          <path class="cls-1" d="M15.37,39.13c-.51.23-1.12.62-1.22,1.22-.12.74.44,1.39,1.13,1.6.29.09.64.1.93,0,.33-.11.6-.32.8-.6.17-.25.27-.56.27-.86,0-.34-.12-.65-.33-.92-.43-.53-1.27-.68-1.85-.32-.21.13-.31.42-.17.64s.42.31.64.17c.02-.01.05-.03.07-.04.08-.05-.09.02-.03,0,.05-.01.09-.03.14-.04.04-.01.06.01-.05,0,.03,0,.05,0,.08,0,.02,0,.04,0,.05,0,.02,0,.04,0,.05,0,.05,0,.04,0-.05,0,.04.01.09.02.13.03.02,0,.04.01.06.02.05.02.05.05-.03-.01.03.03.08.04.12.06.02.01.04.04.07.04-.06-.04-.07-.06-.04-.03.01,0,.02.02.03.03.03.03.06.08.09.09l-.04-.05s.02.03.03.04c.01.02.02.04.03.06,0,.02.02.04.03.06-.06-.07-.03-.07-.01-.02,0,.02.01.04.02.07,0,.02.03.13.01.05-.02-.08,0,0,0,.02,0,.03,0,.06,0,.08,0,.01,0,.04,0,.06v-.07s0,.04,0,.05c0,.05-.02.09-.04.13,0,.01-.04.1,0,.02s-.02.03-.02.05c-.02.04-.05.08-.07.12-.05.08.07-.08,0,0-.01.01-.02.03-.04.04-.03.03-.08.06-.1.09l.05-.04s-.03.02-.05.03c-.02.01-.05.03-.07.04h-.03s-.03.03.03,0c0,0-.06.02-.07.02-.02,0-.05.01-.07.02h-.03c-.05.01-.04.01.04,0-.04-.01-.1,0-.14,0-.02,0-.04,0-.06,0-.02,0-.04,0-.06,0,.08.01.09.01.04,0-.05-.01-.09-.02-.14-.04-.02,0-.05-.02-.07-.02-.06-.02.11.05.02,0-.04-.02-.09-.04-.13-.07,0,0-.06-.05-.07-.05.05.04.06.05.04.03-.01,0-.02-.02-.03-.03-.04-.03-.07-.07-.1-.1-.07-.07.06.09,0,0-.01-.02-.03-.04-.04-.06-.01-.02-.04-.06-.04-.08l.02.05s-.01-.03-.02-.05c0-.02-.03-.07-.02-.09,0,.06,0,.07,0,.02,0-.01,0-.03,0-.04,0-.06.03-.06,0,.03.01-.02.02-.06.02-.09.01-.06.04-.04-.01.02.02-.02.03-.06.04-.08,0-.01.04-.04.04-.06-.05.06-.05.07-.02.03,0-.01.02-.02.03-.03.04-.04.08-.08.13-.12.07-.06-.01.01-.01,0,0,0,.08-.06.09-.06.05-.03.1-.07.16-.1.11-.06.22-.12.33-.17.22-.1.3-.44.17-.64-.15-.23-.4-.28-.64-.17h0Z"/>
          <path class="cls-1" d="M19.83,39.83c7.79-3.47,15.69-6.67,23.68-9.62.56-.21.32-1.11-.25-.9-8.07,2.98-16.05,6.22-23.91,9.72-.55.24-.07,1.05.47.81h0Z"/>
          <path class="cls-1" d="M18.96,47.5c-.53,0-1.06.32-1.3.8-.14.28-.18.57-.13.87.05.26.18.49.36.69s.41.34.66.4c.3.08.6.04.88-.09.47-.21.83-.75.79-1.27-.05-.63-.5-1.11-1.05-1.37-.22-.1-.52-.07-.64.17-.11.21-.07.53.17.64.08.04.15.08.22.12.04.02.07.05.11.07.05.04-.09-.08-.02-.01.02.02.04.04.06.06.03.03.05.05.08.08.02.02.03.04.05.05.04.05-.05-.08-.02-.03.02.04.05.07.07.1,0,0,.02.04.02.05-.03-.07-.03-.08-.02-.04v.03s.02.1.04.13c0,0,0-.12,0-.04,0,.02,0,.04,0,.05s0,.03,0,.05c0,.09.02-.09,0-.03-.01.04-.04.1-.04.14,0,0,.05-.11.02-.04,0,.02-.02.03-.02.05-.01.02-.09.13-.04.06s-.03.04-.05.05c-.01.01-.03.02-.04.04-.06.06.08-.05.01,0-.03.02-.07.04-.1.06-.05.03-.06,0,.03,0-.01,0-.04.01-.05.02-.03,0-.15.03-.07.02s0,0-.02,0c-.03,0-.05,0-.08,0-.04,0-.04-.03.05,0-.01,0-.04,0-.05-.01-.04,0-.08-.02-.11-.03-.06-.02.11.06.03.01-.02,0-.03-.02-.05-.03s-.03-.02-.04-.03c-.01,0-.03-.02-.04-.03l.05.04s-.06-.05-.09-.08c-.01-.01-.03-.04-.04-.05,0,0,.07.1.02.03-.02-.03-.04-.07-.06-.1,0-.02-.02-.05-.03-.06.02.02.04.1.01.03-.01-.04-.02-.08-.03-.11-.02-.07,0,.04,0,.05,0-.02,0-.05,0-.07,0-.05.03-.16,0-.02.01-.04.02-.09.03-.13,0-.01.02-.04.02-.05-.03.07-.04.08-.02.04v-.02s.06-.08.09-.12c.03-.05-.08.09-.02.02.02-.02.03-.03.05-.05s.03-.03.05-.05l.02-.02s.03-.02-.03.02c.04-.01.08-.05.11-.07.02,0,.03-.02.05-.02.08-.04-.1.03-.01,0,.04-.01.08-.02.13-.04.09-.02-.1,0-.03,0,.03,0,.06,0,.09,0,.25,0,.48-.22.47-.47s-.21-.47-.47-.47h0Z"/>
          <path class="cls-1" d="M23.17,48.19c1.75-.91,3.51-1.78,5.3-2.61.23-.11.29-.44.17-.64-.14-.24-.41-.28-.64-.17-1.79.83-3.55,1.7-5.3,2.61-.54.28-.06,1.09.47.81h0Z"/>
          <path class="cls-1" d="M22.41,56.86c-.67-.03-1.22.45-1.46,1.04-.11.28-.13.6-.05.89.08.31.28.57.54.76.46.34,1.12.36,1.63.12.25-.11.47-.33.6-.57.15-.3.18-.61.13-.94s-.21-.61-.42-.84c-.1-.11-.23-.21-.36-.28-.18-.1-.36-.14-.56-.17-.11-.01-.26.06-.33.14-.08.08-.14.21-.14.33s.05.25.14.33c.1.09.2.12.33.14.01,0-.12-.02-.07,0,.01,0,.03,0,.04,0,.02,0,.04,0,.06.02,0,0,.07.02.07.02s-.1-.05-.06-.03c.01,0,.02.01.04.02.04.02.08.04.11.07.06.04-.09-.08-.02-.02.02.02.04.03.05.05s.03.03.05.05c.03.03.07.1-.01-.02.03.04.06.08.08.12.01.02.02.04.03.06.01.02.05.1.01.02s0,0,0,.01c0,.03.02.05.03.08,0,.01.03.13.03.13,0,0-.01-.11,0-.07,0,.01,0,.02,0,.03,0,.03,0,.06,0,.08,0,.02,0,.05,0,.07,0,.02-.01.1,0,0s0,0,0,.02-.01.05-.02.07c0,0-.02.07-.02.07,0,0,.05-.1.03-.06,0,0,0,.02-.01.03-.02.04-.05.08-.08.12.08-.12.04-.06.01-.02-.02.02-.03.03-.05.05,0,0-.05.04-.05.04,0,0,.09-.06.05-.04-.01,0-.03.02-.04.03-.04.02-.08.04-.11.06-.03.02.06-.03.07-.03,0,0-.03,0-.03.01-.03,0-.05.02-.08.02-.02,0-.12.02-.13.03,0,0,.11-.01.07,0-.01,0-.02,0-.03,0-.03,0-.05,0-.08,0-.04,0-.09,0-.13,0-.09,0,.1.02.03,0-.02,0-.05,0-.07-.01-.04,0-.09-.02-.13-.04-.02,0-.1-.04-.02,0s0,0-.02-.01c-.04-.02-.08-.05-.12-.07-.06-.04.09.07.03.02-.02-.02-.04-.03-.06-.05-.01-.01-.03-.03-.04-.04,0,0-.01-.02-.02-.02-.04-.04.07.09.04.05-.03-.04-.05-.08-.07-.12,0,0-.01-.02-.01-.03,0-.01.04.11.03.06,0-.02-.02-.05-.02-.07,0-.02,0-.04-.01-.06-.02-.07.01.06,0,.06s0-.04,0-.04c0-.05,0-.09,0-.14,0-.1-.02.1,0,.03,0-.03.01-.05.02-.08,0-.03.02-.06.03-.08,0-.01,0-.02.01-.03.02-.06-.02.04-.02.05,0-.05.06-.12.08-.16.01-.02.03-.04.04-.06.03-.04-.04.06-.04.05,0-.01.02-.03.04-.04.04-.04.08-.08.12-.12,0,0,.02-.01.03-.02.04-.04-.1.07-.03.03.02-.01.04-.03.06-.04.03-.02.05-.03.08-.04.08-.05-.1.03-.01,0,.02,0,.14-.06.16-.04,0,0-.12.01-.07,0,.01,0,.03,0,.04,0,.03,0,.07,0,.1,0,.25.01.48-.22.47-.47-.01-.26-.21-.46-.47-.47h0Z"/>
        </g>
      </g>
      <path class="cls-2" d="M27.74,49.97c1.66,1.55,3.33,3.1,4.99,4.65-1.88.69-3.9.9-5.9,1.1-.08,0-.17,0-.22-.06-.03-.04-.03-.08-.03-.13-.01-1.79.45-3.58,1.32-5.15"/>
      <path class="cls-2" d="M61.15,6.95c-8.91,8.73-17.25,18.48-25.53,27.81-2.66,2.99-4.93,5.08-7.13,8.42,2.72-.94,5.41,1.52,5.57,4.39,2.79.49,5.12,2.96,5.44,5.77,1.9-3.56,4.45-6.71,7-9.84,7.71-9.46,15.51-18.85,23.4-28.16-2.76-2.74-5.69-5.31-8.77-7.68"/>
      <path class="cls-1" d="M39.12,53.97c1.05-.98,1.93-2.24,2.84-3.35,1.99-2.43,3.96-4.87,5.93-7.31,5.15-6.37,10.29-12.74,15.51-19.04,2.45-2.96,4.92-5.91,7.46-8.8.13-.15.16-.4,0-.55-3.18-2.91-6.41-5.75-9.7-8.54-.16-.13-.39-.16-.55,0-1.33,1.36-2.54,2.86-3.78,4.3-2.5,2.89-4.98,5.79-7.47,8.7-5.52,6.45-11.02,12.91-16.56,19.33-1.5,1.74-2.96,3.57-4.57,5.22-.35.36.2.91.55.55,1.33-1.36,2.54-2.86,3.78-4.3,2.5-2.89,4.98-5.79,7.47-8.7,5.52-6.45,11.02-12.91,16.56-19.33,1.5-1.74,2.96-3.57,4.57-5.22h-.55c3.29,2.78,6.52,5.63,9.7,8.54v-.55c-9.83,11.13-18.91,22.91-28.3,34.41-1.1,1.35-2.16,2.89-3.44,4.08-.37.34.18.89.55.55h0Z"/>
      <path class="cls-1" d="M26.37,56.93c.95-3.51,1.54-7.11,2.13-10.7.07-.41.13-.81.2-1.22.02-.14.01-.48.11-.6.09-.11.5-.25.61-.28.75-.25,1.61-.22,2.32.12,1.4.67,1.9,2.38,1.4,3.78-.11.3.21.53.48.48,3.01-.56,5.64,2.11,5.01,5.12l.27-.27c-4.36.87-8.6,2.27-12.93,3.25-.49.11-.28.86.21.75,4.34-.98,8.57-2.38,12.93-3.25.12-.02.25-.15.27-.27.76-3.61-2.36-6.74-5.97-6.08l.48.48c.54-1.51.09-3.3-1.19-4.3-.59-.46-1.31-.7-2.05-.75s-1.83.12-2.39.65c-.31.29-.28.8-.34,1.2-.09.53-.18,1.06-.26,1.59-.18,1.1-.37,2.21-.56,3.31-.4,2.28-.86,4.54-1.47,6.78-.13.48.62.69.75.21h0Z"/>
      <path class="cls-1" d="M27.42,50.39c1.92,1.53,3.78,3.16,5.53,4.88.36.35.91-.2.55-.55-1.75-1.72-3.61-3.35-5.53-4.88-.17-.13-.39-.16-.55,0-.14.13-.16.42,0,.55h0Z"/>
    </g>
  </g>
</svg>