<?xml version="1.0" encoding="UTF-8"?>
<svg id="Capa_2" data-name="Capa 2" xmlns="http://www.w3.org/2000/svg" viewBox="0 0 70.93 83.58">
  <defs>
    <style>
      .cls-1 {
        fill: #2f3f1a;
      }

      .cls-1, .cls-2, .cls-3 {
        stroke-width: 0px;
      }

      .cls-2 {
        fill: #e297b3;
      }

      .cls-3 {
        fill: #a0943a;
      }
    </style>
  </defs>
  <g id="Light_Version" data-name="Light Version">
    <g>
      <path class="cls-3" d="M64.35,68.67c-.3-1.55-.13-3.14-.19-4.71-.11-3.05-1.09-6-1.5-9.02-1.06-7.72,1.42-16.25-2.49-22.99,1.13-.54,2.27-1.08,3.4-1.62.94-.45,1.95-.96,2.42-1.88.35-.69.35-1.5.31-2.28-.1-1.85-.38-3.69-.82-5.49-.07.1-.14.2-.22.3-1.26,1.58-2.94,2.78-4.66,3.83-1.71,1.04-3.52,1.97-5.34,2.79-4.04,1.81-8.51,2.53-12.9,2.81-4.45.28-8.91.11-13.36-.17-2.44-.15-4.86-.3-7.27-.66-1.27-.19-2.53-.43-3.79-.71-1.05-.23-2.1-.47-3.06-.97-1.3-.67-2.09-1.78-2.52-3.15-.46-1.47-.72-2.97-1.42-4.36-1.27-.05-2.55.05-3.79.3-.46.09-.94.22-1.3.53-.51.45-.65,1.17-.76,1.84-.32,1.93-.64,3.93-.09,5.81.55,1.87,2.23,3.57,4.17,3.46-1.27,5.42-2.24,10.9-2.9,16.43-.71,5.91-1.08,11.87-2.01,17.75-.9,5.7-2.33,11.33-4.27,16.77,22.2-.16,44.39-.33,66.59-.49.38,0,.8-.02,1.08-.27.31-.28.36-.75.38-1.17.07-1.4.13-2.82-.17-4.19-.65-3-2.95-5.46-3.54-8.48Z"/>
      <path class="cls-2" d="M27.15,28.23c-.58-1.17-.95-2.42-1.35-3.66-.07-.22-.14-.43-.21-.64-.02-.05-.04-.1-.05-.15,0,0,0-.01,0-.01,0,0,0,0,0-.01-.05-.09-.07-.12-.13-.2-.57-.78-1.38-1.38-2.08-2.02-.68-.62-1.41-1.31-1.74-2.19-.08-.22-.16-.53-.18-.84-.17-.15-.34-.32-.49-.5-.78-.93-1.09-2.1-1.19-3.29.02.48.05.95.09,1.43-1.72-4.51-4.46-8.62-7.96-11.94-.32-.31-.68-.62-1.12-.68-1.28-.18-1.76,1.63-1.67,2.92.34,4.67,1.34,9.29,2.95,13.68l.08.34c-.23-.03-.47-.05-.7-.06.12.27.24.54.35.81.5,1.31.65,2.74,1.21,4.02.64,1.47,2.09,2.2,3.58,2.58,2.41.61,4.86,1.03,7.33,1.31,1.34.15,2.7.24,4.05.32-.34-.38-.6-.88-.77-1.21Z"/>
      <path class="cls-2" d="M50.57,25.16c.75-1.05,1.7-1.95,2.57-2.89,1.01-1.09,1.96-2.27,2.68-3.59.64-1.17,1.06-2.44,1.26-3.76.15-.99.2-2,.21-3,0,.04-.02.07-.03.11-.82-1.3-1.64-2.61-2.46-3.91-.21-.34-.43-.7-.45-1.1-.02-.53.32-.99.56-1.46.97-1.9.18-4.51-1.69-5.54-.66,2.02-1.18,4.08-1.57,6.17-2.27-.77-4.82-.19-6.9.99-.5.28-.98.6-1.44.94-.02.04-.03.07-.05.11-.91,1.95-1.84,3.93-3.21,5.61-.65.8-1.41,1.52-2.29,2.06-.81.5-1.71.83-2.6,1.16-1.82.68-3.84,1.4-4.66,3.32-.5,1.17-.62,2.45-.73,3.71-.06.75.11,1.54.2,2.28.09.78.21,1.59.14,2.38-.03.31-.17.59-.38.82.31.02.63.03.94.05,4.41.24,8.85.34,13.26-.08,1.75-.17,3.48-.42,5.2-.79.18-1.29.66-2.49,1.43-3.56Z"/>
      <g>
        <path class="cls-1" d="M9.54,33.23c-.77,2.19-1.39,4.43-1.76,6.72s-.35,4.52-.42,6.8c-.16,4.72-1.54,9.26-2.25,13.9-.32,2.07-.52,4.19-.38,6.29s.82,3.79,1.91,5.56c1.84,2.97,4.34,5.82,7.91,6.54.49.1.7-.65.21-.75-3.78-.76-6.37-4.08-8.11-7.31-2.08-3.85-1.11-8.78-.31-12.86s1.71-7.84,1.8-11.87c.1-4.46.66-8.59,2.14-12.82.17-.47-.59-.68-.75-.21h0Z"/>
        <path class="cls-1" d="M4.98,69.19c-.73,1.22-1.28,2.52-1.71,3.87-.41,1.26-.89,2.65-1.01,3.98s.71,2.08,1.68,2.78c1.06.77,2.28,1.27,3.6,1.06.49-.08.28-.83-.21-.75-1.19.19-2.32-.44-3.23-1.15-.39-.3-.82-.65-1-1.12-.22-.59,0-1.24.14-1.82.56-2.24,1.21-4.45,2.4-6.45.26-.43-.41-.82-.67-.39h0Z"/>
        <path class="cls-1" d="M2.33,76.61c-1.13,1.3-1.82,2.94-1.73,4.68.1,1.94,1.4,1.95,3.03,1.97,5.23.05,10.46.08,15.7.1,10.3.04,20.59.07,30.89.1,5.63.02,11.49.49,17.06-.53.49-.09.28-.84-.21-.75-4.54.84-9.27.53-13.86.51s-9.13-.03-13.7-.04c-9.14-.03-18.27-.05-27.41-.1-2.49-.01-4.98-.03-7.47-.05-.63,0-1.38.1-1.99-.02-.99-.2-1.3-.79-1.25-1.76.06-1.33.64-2.56,1.5-3.55.33-.38-.22-.93-.55-.55h0Z"/>
        <path class="cls-1" d="M59.03,33.39c1.57,3.24,2.13,6.81,2.41,10.38s.47,7.37-2.3,9.87c-.37.34.18.89.55.55,2.84-2.56,2.82-6.54,2.56-10.06-.28-3.83-.85-7.65-2.54-11.13-.22-.45-.89-.06-.67.39h0Z"/>
        <path class="cls-1" d="M61.21,50.74c.13,2.23.27,4.47.66,6.67s1.35,4.49,1.38,6.83c.06,3.97-1.61,7.92-.25,11.83.16.47.92.27.75-.21-1.38-3.96.45-8.01.26-12.04-.1-2.04-.86-3.94-1.27-5.93-.48-2.36-.62-4.77-.76-7.16-.03-.5-.81-.5-.78,0h0Z"/>
        <path class="cls-1" d="M62.93,68.8c.97,2.26,2.01,4.51,2.89,6.8s.95,4.75.94,7.21c0,.5.78.5.78,0,.01-2.53-.05-5.02-.96-7.41s-1.97-4.66-2.97-6.99c-.2-.46-.87-.06-.67.39h0Z"/>
        <path class="cls-1" d="M11.69,20.26c-2,.37-4,.73-6,1.1-.18.03-.27.21-.29.38-.29,2.57-.43,5.16-.35,7.74.02.72.08,1.35.61,1.87.74.72,1.91,1.17,2.82,1.63.98.49,1.98.93,3.03,1.24,1.2.35,2.45.47,3.66.79s2.17,1.03,3.24,1.7c.94.59,1.96,1.02,3.02,1.35,4.85,1.48,10.17,1.55,15.2,1.56,2.5,0,5.06.09,7.54-.21s4.58-1.27,6.76-2.29c2.67-1.24,5.34-2.49,8.01-3.74,2.39-1.11,4.93-2.09,6.91-3.89.37-.34-.18-.89-.55-.55-1.69,1.53-3.82,2.4-5.86,3.35-2.15,1-4.3,2.01-6.45,3.01s-4.35,2.21-6.66,2.88-4.84.63-7.27.65c-4.79.03-9.63.02-14.36-.82-2.29-.41-4.45-1-6.4-2.31-1.76-1.18-3.44-1.53-5.49-1.97-1.38-.29-2.67-.8-3.93-1.43-1.1-.55-2.96-1.2-3.04-2.59-.16-2.64.05-5.35.34-7.98l-.29.38c2-.37,4-.73,6-1.1.49-.09.28-.84-.21-.75h0Z"/>
        <path class="cls-1" d="M64.51,20.16c-.36,3.07.95,6,.92,9.05,0,.5.77.5.78,0,.03-3.05-1.28-5.99-.92-9.05.06-.5-.72-.49-.78,0h0Z"/>
        <path class="cls-1" d="M9.19,23.13c-.94-.02-1.46,1.03-1.04,1.85.24.45.72.71,1.17.89,1.07.43,2.27.65,3.38.94,4.57,1.19,9.21,2.27,13.9,2.87,9.03,1.16,18.25-.05,26.9-2.78,2.28-.72,4.61-1.49,6.78-2.52s3.27-2.71,4.85-4.35c.35-.36-.2-.91-.55-.55-.76.79-1.39,1.68-2.15,2.47-.83.86-1.83,1.45-2.91,1.93-2.15.96-4.42,1.71-6.67,2.41-4.73,1.46-9.61,2.47-14.54,2.87s-9.88.14-14.75-.72c-2.47-.44-4.92-.98-7.37-1.56-1.25-.3-2.5-.61-3.74-.94-.62-.16-1.24-.33-1.86-.5-.25-.07-.51-.14-.76-.22-.65-.09-.86-.53-.64-1.31.5,0,.5-.77,0-.78h0Z"/>
        <path class="cls-1" d="M13.4,26.21c-1.01-4.8-2.12-9.6-3-14.43-.24-1.32-.43-2.66-.46-4.01-.01-.63-.05-1.36.13-1.96.31-1.01,1.47-1.34,2.06-.36.46.77.65,1.59,1.21,2.33.61.82,1.36,1.53,1.97,2.35,1.25,1.68,1.86,3.76,2.98,5.52.94,1.48,2.04,2.84,3.15,4.18,2.45,2.96,5.06,5.91,6.03,9.73.12.49.87.28.75-.21-.8-3.14-2.67-5.75-4.7-8.23-2.35-2.88-4.63-5.6-6.2-9-.8-1.74-1.88-2.98-3.07-4.45-.64-.79-.96-1.57-1.38-2.48-.24-.51-.53-1.01-1.08-1.22-1.16-.45-2.18.58-2.47,1.62-.48,1.7-.1,3.77.17,5.48.83,5.14,2.09,10.24,3.16,15.34.1.49.85.28.75-.21h0Z"/>
        <path class="cls-1" d="M21.59,18.96c-1.16-3.01-1.59-6.26-1.26-9.47.1-.95.53-4.44,2.24-3.19.83.61,1.14,1.74,1.98,2.38.19.15.53,0,.57-.23.15-.83,1.24-5.05,2.54-3.67.53.56.76,1.5,1.02,2.21.3.81.57,1.63.81,2.45.98,3.33,1.48,6.77,1.52,10.24,0,.5.78.5.78,0-.06-4.4-.84-8.77-2.37-12.9-.39-1.07-1.03-3.46-2.63-3.07-.75.18-1.16.96-1.47,1.6-.46.93-.77,1.92-.96,2.94l.57-.23c-.97-.74-1.24-2.31-2.53-2.65-1.52-.4-2.37,1.18-2.62,2.41-.74,3.78-.34,7.82,1.04,11.4.18.46.93.26.75-.21h0Z"/>
        <path class="cls-1" d="M31.21,13.32c.86-1.32,1.88-2.52,3.04-3.58.59-.54,1.21-1.04,1.87-1.5.14-.1.31-.18.44-.3.18-.16.09-.25.16.01.12.5.22.98.25,1.49.02.3.31.48.59.34.58-.31,1.19-.53,1.84-.65.32-.06.77-.2,1.01.1.11.14.17.35.22.52.27.78.49,1.61.63,2.42.08.49.83.28.75-.21-.09-.57-.24-1.13-.4-1.68-.14-.48-.26-1.02-.53-1.44-.35-.57-.91-.6-1.52-.52-.85.12-1.64.39-2.4.79l.59.34c-.04-.54-.11-1.08-.25-1.6-.1-.35-.21-.76-.63-.82s-.76.28-1.07.49c-.42.29-.82.6-1.22.92-1.58,1.28-2.93,2.8-4.04,4.5-.28.42.4.81.67.39h0Z"/>
        <path class="cls-1" d="M39.63,15.89c2.34-4.12,6.2-8.48,11.42-7.91,2.31.25,4.43,1.6,5.24,3.84s.25,4.86-1.02,6.83c-.83,1.3-2.04,2.3-3.03,3.47s-1.8,2.43-2.46,3.79c-.22.45.45.84.67.39.75-1.55,1.69-2.97,2.87-4.23.97-1.05,2.02-2.02,2.76-3.25,1.25-2.08,1.78-4.75,1-7.09-1.62-4.87-7.77-5.57-11.73-3.27-2.77,1.61-4.83,4.29-6.39,7.04-.25.44.42.83.67.39h0Z"/>
        <path class="cls-1" d="M51.9,7.51c.19-1.16.45-2.3.79-3.43.16-.52.34-1.04.53-1.55.06-.16.12-.31.18-.47l.05-.12c.1-.16.03-.16-.22,0,.03.15.55.21.66.23.25.04.37.08.42.34.05.21.03.44.03.65,0,.56-.04,1.12-.12,1.67-.16,1.14-.46,2.25-.89,3.32-.19.46.57.67.75.21.39-.97.67-1.98.84-3.01.15-.94.32-2.01.15-2.95-.07-.38-.27-.73-.64-.88-.21-.09-.44-.07-.65-.15s-.34-.23-.58-.19c-.44.07-.57.68-.7,1.03-.2.51-.37,1.02-.54,1.54-.36,1.16-.63,2.35-.83,3.55-.08.49.67.7.75.21h0Z"/>
        <path class="cls-1" d="M57.52,13.8l1.04-1.42c.26-.36.72-1.26,1.11-1.45s.35.06.4.31c.08.38.11.78.14,1.16.05.59.06,1.19.04,1.79,0,.37.42.47.66.28,1.36-1.1,2.72-2.21,4.09-3.31,1.25-1.01,2.52-2.24,4.09-2.76.44-.15,1.06-.21,1.07.42,0,.41-.21.79-.45,1.11-.47.61-1.13,1.1-1.75,1.54-1.3.95-2.73,1.71-4.23,2.27-.46.17-.26.93.21.75,1.86-.7,3.58-1.66,5.14-2.9.69-.55,1.41-1.17,1.72-2.02.22-.61.23-1.42-.32-1.86-.63-.5-1.55-.12-2.19.16-.87.39-1.64.96-2.38,1.55-1.86,1.48-3.69,2.99-5.54,4.48l.66.28c.02-.96-.03-1.91-.16-2.85-.08-.54-.21-1.21-.85-1.3s-1.05.49-1.38.94c-.6.81-1.19,1.62-1.79,2.44-.3.4.38.79.67.39h0Z"/>
        <path class="cls-1" d="M63.96,14.64c1.05-.1,2.1-.05,3.13.17.37.08.91.1,1.01.54.08.4-.12.81-.38,1.09-.61.66-1.61.91-2.42,1.22-1,.38-2.01.76-3.01,1.14-.32.12-.42.69,0,.75.66.1,1.25.35,1.78.76.4.3.79-.37.39-.67-.57-.44-1.25-.72-1.96-.83v.75c1.19-.45,2.38-.9,3.57-1.35.98-.37,2.09-.76,2.6-1.76.23-.45.32-.98.14-1.46-.2-.53-.65-.71-1.16-.84-1.2-.3-2.45-.39-3.67-.27-.49.05-.5.83,0,.78h0Z"/>
        <path class="cls-1" d="M30.87,29.5c-.67-1.57-.68-3.28-.48-4.95.16-1.35.25-3.19,1.06-4.33s2.33-1.99,3.58-2.62c1.41-.71,2.96-1.19,4.53-1.31,2.65-.2,5.39.71,7.21,2.7.97,1.07,1.46,2.34,1.8,3.72.37,1.51,1.03,3.32.17,4.76-.26.43.42.82.67.39.62-1.05.59-2.19.37-3.35-.25-1.32-.54-2.73-1.08-3.96-.92-2.11-2.79-3.65-4.93-4.45-2.44-.92-5.15-.73-7.57.15-2.09.77-5.05,2.21-5.87,4.45-.53,1.44-.69,3.16-.8,4.68s.05,3.07.67,4.51c.2.46.87.06.67-.39h0Z"/>
        <path class="cls-1" d="M33.87,27.9c-.3-1.24-.4-2.51-.28-3.78.06-.61.17-1.22.33-1.82.04-.16.09-.31.14-.47.02-.08.05-.16.08-.23-.21.04-.24.09-.08.13.09.09.29.14.4.2s.23.13.34.2c.97.59,1.63,1.42,2.28,2.33.17.24.35.48.53.71s.35.52.66.55l-.2-.73c-1.56.68-3.04,1.53-4.42,2.54-.4.29-.01.97.39.67,1.38-1.01,2.86-1.86,4.42-2.54.39-.17.14-.7-.2-.73.09,0,.26.18.19.05-.02-.04-.07-.08-.11-.12-.08-.1-.16-.2-.23-.3-.13-.18-.27-.36-.4-.55-.6-.83-1.19-1.6-2.02-2.21-.39-.29-.81-.53-1.24-.74s-.85-.2-1.05.3c-.38.99-.55,2.08-.62,3.13-.08,1.22.04,2.44.33,3.62.12.49.87.28.75-.21h0Z"/>
        <path class="cls-1" d="M35.13,20.05c1.11,1.52,2.35,2.95,3.7,4.26.36.35.91-.2.55-.55-1.3-1.27-2.5-2.64-3.58-4.1-.12-.17-.34-.25-.53-.14-.17.1-.26.36-.14.53h0Z"/>
        <path class="cls-1" d="M35.74,20.04c.38-.66,1.15-1.02,1.85-1.23.94-.27,1.9-.16,2.84.04.12.02.23.05.35.08.11.02.36.14.46.11l.08.02c-.05-.19-.1-.21-.12-.06-.07.07-.1.24-.14.34-.22.53-.45,1.06-.68,1.58-.44,1-.9,1.99-1.37,2.98-.21.45.46.85.67.39.44-.93.88-1.87,1.29-2.82.2-.46.41-.93.6-1.39.16-.37.52-.91.41-1.32-.11-.44-.63-.49-1-.58-.5-.11-1-.21-1.51-.27-.82-.09-1.65-.02-2.44.26s-1.56.74-1.98,1.47c-.25.43.42.83.67.39h0Z"/>
        <path class="cls-1" d="M40.73,24.41c.58-.95,1.16-1.91,1.74-2.86.28-.46.56-.92.84-1.38.03-.06.08-.17.14-.22.09-.07.09-.03.2.05.17.11.32.24.47.37,1.24,1.12,1.87,2.79,1.71,4.44l.39-.39c-1.91-.18-3.81-.35-5.72-.53-.5-.05-.5.73,0,.78,1.91.18,3.81.35,5.72.53.22.02.37-.2.39-.39.15-1.53-.34-3.08-1.29-4.29-.23-.3-.49-.57-.78-.82s-.63-.56-1.02-.58c-.46-.02-.7.36-.91.7l-.78,1.28c-.59.97-1.18,1.94-1.77,2.91-.26.43.41.82.67.39h0Z"/>
        <path class="cls-1" d="M40.39,25.83c1.28.19,2.55.38,3.83.57l.94.14c.15.02.3.04.44.07.06,0,.12.01.18.03-.06-.02,0-.1-.03.03-.04.27-.05.52-.14.78s-.23.52-.4.74c-.3.4.38.79.67.39.4-.54.62-1.2.64-1.87,0-.29-.05-.59-.32-.74s-.7-.15-1.01-.2c-1.54-.23-3.07-.45-4.61-.68-.21-.03-.42.05-.48.27-.05.18.06.45.27.48h0Z"/>
        <path class="cls-1" d="M39.99,25.61l.14,3.56c.02.5.8.5.78,0l-.14-3.56c-.02-.5-.8-.5-.78,0h0Z"/>
        <path class="cls-1" d="M34.09,29.15c.27.27.54.52.81.79.07.07.18.11.28.11s.21-.04.28-.11.12-.17.11-.28-.04-.2-.11-.28c-.27-.27-.54-.52-.81-.79-.07-.07-.18-.11-.28-.11s-.21.04-.28.11-.12.17-.11.28.04.2.11.28h0Z"/>
        <path class="cls-1" d="M34.73,29.07c1.57-.94,3.16-1.87,4.66-2.93l-.59-.34c.06,1.17.17,2.33.18,3.51,0,.5.78.5.78,0,0-1.17-.12-2.34-.18-3.51-.01-.27-.33-.52-.59-.34-1.5,1.05-3.09,1.99-4.66,2.93-.43.26-.04.93.39.67h0Z"/>
      </g>
    </g>
  </g>
</svg>