<svg width="71" height="84" viewBox="0 0 71 84" fill="none" xmlns="http://www.w3.org/2000/svg">
<path d="M64.35 68.67C64.05 67.12 64.22 65.53 64.16 63.96C64.05 60.91 63.07 57.96 62.66 54.94C61.6 47.22 64.08 38.69 60.17 31.95C61.3 31.41 62.44 30.87 63.57 30.33C64.51 29.88 65.52 29.37 65.99 28.45C66.34 27.76 66.34 26.95 66.3 26.17C66.2 24.32 65.92 22.48 65.48 20.68C65.41 20.78 65.34 20.88 65.26 20.98C64 22.56 62.32 23.76 60.6 24.81C58.89 25.85 57.08 26.78 55.26 27.6C51.22 29.41 46.75 30.13 42.36 30.41C37.91 30.69 33.45 30.52 29 30.24C26.56 30.09 24.14 29.94 21.73 29.58C20.46 29.39 19.2 29.15 17.94 28.87C16.89 28.64 15.84 28.4 14.88 27.9C13.58 27.23 12.79 26.12 12.36 24.75C11.9 23.28 11.64 21.78 10.94 20.39C9.66999 20.34 8.38999 20.44 7.14999 20.69C6.68999 20.78 6.20999 20.91 5.84999 21.22C5.33999 21.67 5.19999 22.39 5.08999 23.06C4.76999 24.99 4.44999 26.99 4.99999 28.87C5.54999 30.74 7.22999 32.44 9.16999 32.33C7.89999 37.75 6.92999 43.23 6.26999 48.76C5.55999 54.67 5.18999 60.63 4.25999 66.51C3.35999 72.21 1.92999 77.84 -0.0100098 83.28C22.19 83.12 44.38 82.95 66.58 82.79C66.96 82.79 67.38 82.77 67.66 82.52C67.97 82.24 68.02 81.77 68.04 81.35C68.11 79.95 68.17 78.53 67.87 77.16C67.22 74.16 64.92 71.7 64.33 68.68L64.35 68.67Z" fill="#C4B964"/>
<path d="M27.1499 28.23C26.5699 27.06 26.1999 25.81 25.7999 24.57C25.7299 24.35 25.6599 24.14 25.5899 23.93C25.5699 23.88 25.5499 23.83 25.5399 23.78V23.77C25.5399 23.77 25.5399 23.77 25.5399 23.76C25.4899 23.67 25.4699 23.64 25.4099 23.56C24.8399 22.78 24.0299 22.18 23.3299 21.54C22.6499 20.92 21.9199 20.23 21.5899 19.35C21.5099 19.13 21.4299 18.82 21.4099 18.51C21.2399 18.36 21.0699 18.19 20.9199 18.01C20.1399 17.08 19.8299 15.91 19.7299 14.72C19.7499 15.2 19.7799 15.67 19.8199 16.15C18.0999 11.64 15.3599 7.53003 11.8599 4.21003C11.5399 3.90003 11.1799 3.59003 10.7399 3.53003C9.45987 3.35003 8.97987 5.16003 9.06987 6.45003C9.40987 11.12 10.4099 15.74 12.0199 20.13L12.0999 20.47C11.8699 20.44 11.6299 20.42 11.3999 20.41C11.5199 20.68 11.6399 20.95 11.7499 21.22C12.2499 22.53 12.3999 23.96 12.9599 25.24C13.5999 26.71 15.0499 27.44 16.5399 27.82C18.9499 28.43 21.3999 28.85 23.8699 29.13C25.2099 29.28 26.5699 29.37 27.9199 29.45C27.5799 29.07 27.3199 28.57 27.1499 28.24V28.23Z" fill="#E499B5"/>
<path d="M50.57 25.16C51.32 24.11 52.27 23.21 53.14 22.27C54.15 21.18 55.1 20 55.82 18.68C56.46 17.51 56.88 16.24 57.08 14.92C57.23 13.93 57.28 12.92 57.29 11.92C57.29 11.96 57.27 11.99 57.26 12.03C56.44 10.73 55.62 9.42002 54.8 8.12002C54.59 7.78002 54.37 7.42002 54.35 7.02002C54.33 6.49002 54.67 6.03002 54.91 5.56002C55.88 3.66002 55.09 1.05002 53.22 0.0200195C52.56 2.04002 52.04 4.10002 51.65 6.19002C49.38 5.42002 46.83 6.00002 44.75 7.18002C44.25 7.46002 43.77 7.78002 43.31 8.12002C43.29 8.16002 43.28 8.19002 43.26 8.23002C42.35 10.18 41.42 12.16 40.05 13.84C39.4 14.64 38.64 15.36 37.76 15.9C36.95 16.4 36.05 16.73 35.16 17.06C33.34 17.74 31.32 18.46 30.5 20.38C30 21.55 29.88 22.83 29.77 24.09C29.71 24.84 29.88 25.63 29.97 26.37C30.06 27.15 30.18 27.96 30.11 28.75C30.08 29.06 29.94 29.34 29.73 29.57C30.04 29.59 30.36 29.6 30.67 29.62C35.08 29.86 39.52 29.96 43.93 29.54C45.68 29.37 47.41 29.12 49.13 28.75C49.31 27.46 49.79 26.26 50.56 25.19L50.57 25.16Z" fill="#E499B5"/>
<path d="M9.53995 33.23C8.76995 35.42 8.14995 37.66 7.77995 39.95C7.40995 42.24 7.42995 44.47 7.35995 46.75C7.19995 51.47 5.81995 56.01 5.10995 60.65C4.78995 62.72 4.58995 64.84 4.72995 66.94C4.86995 69.04 5.54995 70.73 6.63995 72.5C8.47995 75.47 10.9799 78.32 14.5499 79.04C15.0399 79.14 15.2499 78.39 14.7599 78.29C10.9799 77.53 8.38995 74.21 6.64995 70.98C4.56995 67.13 5.53995 62.2 6.33995 58.12C7.13995 54.04 8.04995 50.28 8.13995 46.25C8.23995 41.79 8.79995 37.66 10.2799 33.43C10.4499 32.96 9.68995 32.75 9.52995 33.22L9.53995 33.23Z" fill="#F2F0E3"/>
<path d="M4.97987 69.19C4.24987 70.41 3.69987 71.71 3.26987 73.06C2.85987 74.32 2.37987 75.71 2.25987 77.04C2.13987 78.37 2.96987 79.12 3.93987 79.82C4.99987 80.59 6.21987 81.09 7.53987 80.88C8.02987 80.8 7.81987 80.05 7.32987 80.13C6.13987 80.32 5.00987 79.69 4.09987 78.98C3.70987 78.68 3.27987 78.33 3.09987 77.86C2.87987 77.27 3.09987 76.62 3.23987 76.04C3.79987 73.8 4.44987 71.59 5.63987 69.59C5.89987 69.16 5.22987 68.77 4.96987 69.2L4.97987 69.19Z" fill="#F2F0E3"/>
<path d="M2.3299 76.61C1.1999 77.91 0.509896 79.55 0.599896 81.29C0.699896 83.23 1.9999 83.24 3.6299 83.26C8.8599 83.31 14.0899 83.34 19.3299 83.36C29.6299 83.4 39.9199 83.43 50.2199 83.46C55.8499 83.48 61.7099 83.95 67.2799 82.93C67.7699 82.84 67.5599 82.09 67.0699 82.18C62.5299 83.02 57.7999 82.71 53.2099 82.69C48.6199 82.67 44.0799 82.66 39.5099 82.65C30.3699 82.62 21.2399 82.6 12.0999 82.55C9.6099 82.54 7.1199 82.52 4.6299 82.5C3.9999 82.5 3.2499 82.6 2.6399 82.48C1.6499 82.28 1.3399 81.69 1.3899 80.72C1.4499 79.39 2.0299 78.16 2.8899 77.17C3.2199 76.79 2.6699 76.24 2.3399 76.62L2.3299 76.61Z" fill="#F2F0E3"/>
<path d="M59.0298 33.39C60.5998 36.63 61.1598 40.2 61.4398 43.77C61.7198 47.34 61.9098 51.14 59.1398 53.64C58.7698 53.98 59.3198 54.53 59.6898 54.19C62.5298 51.63 62.5098 47.65 62.2498 44.13C61.9698 40.3 61.3998 36.48 59.7098 33C59.4898 32.55 58.8198 32.94 59.0398 33.39H59.0298Z" fill="#F2F0E3"/>
<path d="M61.2098 50.74C61.3398 52.97 61.4798 55.21 61.8698 57.41C62.2598 59.61 63.2198 61.9 63.2498 64.24C63.3098 68.21 61.6398 72.16 62.9998 76.07C63.1598 76.54 63.9198 76.34 63.7498 75.86C62.3698 71.9 64.1998 67.85 64.0098 63.82C63.9098 61.78 63.1498 59.88 62.7398 57.89C62.2598 55.53 62.1198 53.12 61.9798 50.73C61.9498 50.23 61.1698 50.23 61.1998 50.73L61.2098 50.74Z" fill="#F2F0E3"/>
<path d="M62.9299 68.8C63.8999 71.06 64.9399 73.31 65.8199 75.6C66.6999 77.89 66.7699 80.35 66.7599 82.81C66.7599 83.31 67.5399 83.31 67.5399 82.81C67.5499 80.28 67.4899 77.79 66.5799 75.4C65.6699 73.01 64.6099 70.74 63.6099 68.41C63.4099 67.95 62.7399 68.35 62.9399 68.8H62.9299Z" fill="#F2F0E3"/>
<path d="M11.6898 20.26C9.68985 20.63 7.68985 20.99 5.68985 21.36C5.50985 21.39 5.41985 21.57 5.39985 21.74C5.10985 24.31 4.96985 26.9 5.04985 29.48C5.06985 30.2 5.12985 30.83 5.65985 31.35C6.39985 32.07 7.56985 32.52 8.47985 32.98C9.45985 33.47 10.4598 33.91 11.5098 34.22C12.7098 34.57 13.9598 34.69 15.1698 35.01C16.3798 35.33 17.3398 36.04 18.4098 36.71C19.3498 37.3 20.3698 37.73 21.4298 38.06C26.2798 39.54 31.5998 39.61 36.6298 39.62C39.1298 39.62 41.6898 39.71 44.1698 39.41C46.6498 39.11 48.7498 38.14 50.9298 37.12C53.5998 35.88 56.2698 34.63 58.9398 33.38C61.3298 32.27 63.8698 31.29 65.8498 29.49C66.2198 29.15 65.6699 28.6 65.2999 28.94C63.6099 30.47 61.4798 31.34 59.4398 32.29C57.2898 33.29 55.1398 34.3 52.9898 35.3C50.8398 36.3 48.6398 37.51 46.3298 38.18C44.0198 38.85 41.4898 38.81 39.0598 38.83C34.2698 38.86 29.4298 38.85 24.6998 38.01C22.4098 37.6 20.2498 37.01 18.2998 35.7C16.5398 34.52 14.8598 34.17 12.8098 33.73C11.4298 33.44 10.1398 32.93 8.87985 32.3C7.77985 31.75 5.91985 31.1 5.83985 29.71C5.67985 27.07 5.88985 24.36 6.17985 21.73L5.88985 22.11C7.88985 21.74 9.88985 21.38 11.8898 21.01C12.3798 20.92 12.1698 20.17 11.6798 20.26H11.6898Z" fill="#F2F0E3"/>
<path d="M64.5099 20.16C64.1499 23.23 65.4599 26.16 65.4299 29.21C65.4299 29.71 66.1999 29.71 66.2099 29.21C66.2399 26.16 64.9299 23.22 65.2899 20.16C65.3499 19.66 64.5699 19.67 64.5099 20.16Z" fill="#F2F0E3"/>
<path d="M9.18984 23.13C8.24984 23.11 7.72984 24.16 8.14984 24.98C8.38984 25.43 8.86984 25.69 9.31984 25.87C10.3898 26.3 11.5898 26.52 12.6998 26.81C17.2698 28 21.9098 29.08 26.5998 29.68C35.6298 30.84 44.8498 29.63 53.4998 26.9C55.7798 26.18 58.1098 25.41 60.2798 24.38C62.4498 23.35 63.5498 21.67 65.1298 20.03C65.4798 19.67 64.9298 19.12 64.5798 19.48C63.8198 20.27 63.1898 21.16 62.4298 21.95C61.5998 22.81 60.5998 23.4 59.5198 23.88C57.3698 24.84 55.0998 25.59 52.8498 26.29C48.1198 27.75 43.2398 28.76 38.3098 29.16C33.3798 29.56 28.4298 29.3 23.5598 28.44C21.0898 28 18.6398 27.46 16.1898 26.88C14.9398 26.58 13.6898 26.27 12.4498 25.94C11.8298 25.78 11.2098 25.61 10.5898 25.44C10.3398 25.37 10.0798 25.3 9.82984 25.22C9.17984 25.13 8.96984 24.69 9.18984 23.91C9.68984 23.91 9.68984 23.14 9.18984 23.13Z" fill="#F2F0E3"/>
<path d="M13.3999 26.21C12.3899 21.41 11.2799 16.61 10.3999 11.78C10.1599 10.46 9.96989 9.11999 9.93989 7.76999C9.92989 7.13999 9.88989 6.40999 10.0699 5.80999C10.3799 4.79999 11.5399 4.46999 12.1299 5.44999C12.5899 6.21999 12.7799 7.03999 13.3399 7.77999C13.9499 8.59999 14.6999 9.30999 15.3099 10.13C16.5599 11.81 17.1699 13.89 18.2899 15.65C19.2299 17.13 20.3299 18.49 21.4399 19.83C23.8899 22.79 26.4999 25.74 27.4699 29.56C27.5899 30.05 28.3399 29.84 28.2199 29.35C27.4199 26.21 25.5499 23.6 23.5199 21.12C21.1699 18.24 18.8899 15.52 17.3199 12.12C16.5199 10.38 15.4399 9.13999 14.2499 7.66999C13.6099 6.87999 13.2899 6.09999 12.8699 5.18999C12.6299 4.67999 12.3399 4.17999 11.7899 3.96999C10.6299 3.51999 9.60989 4.54999 9.31989 5.58999C8.83989 7.28999 9.21989 9.35999 9.48989 11.07C10.3199 16.21 11.5799 21.31 12.6499 26.41C12.7499 26.9 13.4999 26.69 13.3999 26.2V26.21Z" fill="#F2F0E3"/>
<path d="M21.59 18.96C20.43 15.95 20 12.7 20.33 9.48999C20.43 8.53999 20.86 5.04999 22.57 6.29999C23.4 6.90999 23.71 8.03999 24.55 8.67999C24.74 8.82999 25.08 8.67999 25.12 8.44999C25.27 7.61999 26.36 3.39999 27.66 4.77999C28.19 5.33999 28.42 6.27999 28.68 6.98999C28.98 7.79999 29.25 8.61999 29.49 9.43999C30.47 12.77 30.97 16.21 31.01 19.68C31.01 20.18 31.79 20.18 31.79 19.68C31.73 15.28 30.95 10.91 29.42 6.77999C29.03 5.70999 28.39 3.31999 26.79 3.70999C26.04 3.88999 25.63 4.66999 25.32 5.30999C24.86 6.23999 24.55 7.22999 24.36 8.24999L24.93 8.01999C23.96 7.27999 23.69 5.70999 22.4 5.36999C20.88 4.96999 20.03 6.54999 19.78 7.77999C19.04 11.56 19.44 15.6 20.82 19.18C21 19.64 21.75 19.44 21.57 18.97L21.59 18.96Z" fill="#F2F0E3"/>
<path d="M31.21 13.32C32.07 12 33.09 10.8 34.25 9.74C34.84 9.2 35.46 8.7 36.12 8.24C36.26 8.14 36.43 8.06 36.56 7.94C36.74 7.78 36.65 7.69 36.72 7.95C36.84 8.45 36.94 8.93 36.97 9.44C36.99 9.74 37.28 9.92 37.56 9.78C38.14 9.47 38.75 9.25 39.4 9.13C39.72 9.07 40.17 8.93 40.41 9.23C40.52 9.37 40.58 9.58 40.63 9.75C40.9 10.53 41.12 11.36 41.26 12.17C41.34 12.66 42.09 12.45 42.01 11.96C41.92 11.39 41.77 10.83 41.61 10.28C41.47 9.8 41.35 9.26 41.08 8.84C40.73 8.27 40.17 8.24 39.56 8.32C38.71 8.44 37.92 8.71 37.16 9.11L37.75 9.45C37.71 8.91 37.64 8.37 37.5 7.85C37.4 7.5 37.29 7.09 36.87 7.03C36.45 6.97 36.11 7.31 35.8 7.52C35.38 7.81 34.98 8.12 34.58 8.44C33 9.72 31.65 11.24 30.54 12.94C30.26 13.36 30.94 13.75 31.21 13.33V13.32Z" fill="#F2F0E3"/>
<path d="M39.63 15.89C41.97 11.77 45.83 7.41 51.05 7.98C53.36 8.23 55.48 9.58 56.29 11.82C57.1 14.06 56.54 16.68 55.27 18.65C54.44 19.95 53.23 20.95 52.24 22.12C51.25 23.29 50.44 24.55 49.78 25.91C49.56 26.36 50.23 26.75 50.45 26.3C51.2 24.75 52.14 23.33 53.32 22.07C54.29 21.02 55.34 20.05 56.08 18.82C57.33 16.74 57.86 14.07 57.08 11.73C55.46 6.86 49.31 6.16 45.35 8.46C42.58 10.07 40.52 12.75 38.96 15.5C38.71 15.94 39.38 16.33 39.63 15.89Z" fill="#F2F0E3"/>
<path d="M51.9 7.51C52.09 6.35 52.35 5.21 52.69 4.08C52.85 3.56 53.03 3.04 53.22 2.53C53.28 2.37 53.34 2.22 53.4 2.06L53.45 1.94C53.55 1.78 53.48 1.78 53.23 1.94C53.26 2.09 53.78 2.15 53.89 2.17C54.14 2.21 54.26 2.25 54.31 2.51C54.36 2.72 54.34 2.95 54.34 3.16C54.34 3.72 54.3 4.28 54.22 4.83C54.06 5.97 53.76 7.08 53.33 8.15C53.14 8.61 53.9 8.82 54.08 8.36C54.47 7.39 54.75 6.38 54.92 5.35C55.07 4.41 55.24 3.34 55.07 2.4C55 2.02 54.8 1.67 54.43 1.52C54.22 1.43 53.99 1.45 53.78 1.37C53.57 1.29 53.44 1.14 53.2 1.18C52.76 1.25 52.63 1.86 52.5 2.21C52.3 2.72 52.13 3.23 51.96 3.75C51.6 4.91 51.33 6.1 51.13 7.3C51.05 7.79 51.8 8 51.88 7.51H51.9Z" fill="#F2F0E3"/>
<path d="M57.52 13.8L58.56 12.38C58.82 12.02 59.28 11.12 59.67 10.93C60.06 10.74 60.02 10.99 60.07 11.24C60.15 11.62 60.18 12.02 60.21 12.4C60.26 12.99 60.27 13.59 60.25 14.19C60.25 14.56 60.67 14.66 60.91 14.47C62.27 13.37 63.63 12.26 65 11.16C66.25 10.15 67.52 8.92001 69.09 8.40001C69.53 8.25001 70.15 8.19001 70.16 8.82001C70.16 9.23001 69.95 9.61001 69.71 9.93001C69.24 10.54 68.58 11.03 67.96 11.47C66.66 12.42 65.23 13.18 63.73 13.74C63.27 13.91 63.47 14.67 63.94 14.49C65.8 13.79 67.52 12.83 69.08 11.59C69.77 11.04 70.49 10.42 70.8 9.57001C71.02 8.96001 71.03 8.15001 70.48 7.71001C69.85 7.21001 68.93 7.59001 68.29 7.87001C67.42 8.26001 66.65 8.83001 65.91 9.42001C64.05 10.9 62.22 12.41 60.37 13.9L61.03 14.18C61.05 13.22 61 12.27 60.87 11.33C60.79 10.79 60.66 10.12 60.02 10.03C59.38 9.94001 58.97 10.52 58.64 10.97C58.04 11.78 57.45 12.59 56.85 13.41C56.55 13.81 57.23 14.2 57.52 13.8Z" fill="#F2F0E3"/>
<path d="M63.96 14.64C65.01 14.54 66.06 14.59 67.09 14.81C67.46 14.89 68 14.91 68.1 15.35C68.18 15.75 67.98 16.16 67.72 16.44C67.11 17.1 66.11 17.35 65.3 17.66C64.3 18.04 63.29 18.42 62.29 18.8C61.97 18.92 61.87 19.49 62.29 19.55C62.95 19.65 63.54 19.9 64.07 20.31C64.47 20.61 64.86 19.94 64.46 19.64C63.89 19.2 63.21 18.92 62.5 18.81V19.56C63.69 19.11 64.88 18.66 66.07 18.21C67.05 17.84 68.16 17.45 68.67 16.45C68.9 16 68.99 15.47 68.81 14.99C68.61 14.46 68.16 14.28 67.65 14.15C66.45 13.85 65.2 13.76 63.98 13.88C63.49 13.93 63.48 14.71 63.98 14.66L63.96 14.64Z" fill="#F2F0E3"/>
<path d="M30.87 29.5C30.2 27.93 30.19 26.22 30.39 24.55C30.55 23.2 30.64 21.36 31.45 20.22C32.26 19.08 33.78 18.23 35.03 17.6C36.44 16.89 37.99 16.41 39.56 16.29C42.21 16.09 44.95 17 46.77 18.99C47.74 20.06 48.23 21.33 48.57 22.71C48.94 24.22 49.6 26.03 48.74 27.47C48.48 27.9 49.16 28.29 49.41 27.86C50.03 26.81 50 25.67 49.78 24.51C49.53 23.19 49.24 21.78 48.7 20.55C47.78 18.44 45.91 16.9 43.77 16.1C41.33 15.18 38.62 15.37 36.2 16.25C34.11 17.02 31.15 18.46 30.33 20.7C29.8 22.14 29.64 23.86 29.53 25.38C29.42 26.9 29.58 28.45 30.2 29.89C30.4 30.35 31.07 29.95 30.87 29.5Z" fill="#F2F0E3"/>
<path d="M33.8699 27.9C33.5699 26.66 33.4699 25.39 33.5899 24.12C33.6499 23.51 33.7599 22.9 33.9199 22.3C33.9599 22.14 34.0099 21.99 34.0599 21.83C34.0799 21.75 34.1099 21.67 34.1399 21.6C33.9299 21.64 33.8999 21.69 34.0599 21.73C34.1499 21.82 34.3499 21.87 34.4599 21.93C34.5699 21.99 34.6899 22.06 34.7999 22.13C35.7699 22.72 36.4299 23.55 37.0799 24.46C37.2499 24.7 37.4299 24.94 37.6099 25.17C37.7899 25.4 37.9599 25.69 38.2699 25.72L38.0699 24.99C36.5099 25.67 35.0299 26.52 33.6499 27.53C33.2499 27.82 33.6399 28.5 34.0399 28.2C35.4199 27.19 36.8999 26.34 38.4599 25.66C38.8499 25.49 38.5999 24.96 38.2599 24.93C38.3499 24.93 38.5199 25.11 38.4499 24.98C38.4299 24.94 38.3799 24.9 38.3399 24.86C38.2599 24.76 38.1799 24.66 38.1099 24.56C37.9799 24.38 37.8399 24.2 37.7099 24.01C37.1099 23.18 36.5199 22.41 35.6899 21.8C35.2999 21.51 34.8799 21.27 34.4499 21.06C34.0199 20.85 33.5999 20.86 33.3999 21.36C33.0199 22.35 32.8499 23.44 32.7799 24.49C32.6999 25.71 32.8199 26.93 33.1099 28.11C33.2299 28.6 33.9799 28.39 33.8599 27.9H33.8699Z" fill="#F2F0E3"/>
<path d="M35.1299 20.05C36.2399 21.57 37.4799 23 38.8299 24.31C39.1899 24.66 39.7399 24.11 39.3799 23.76C38.0799 22.49 36.8799 21.12 35.7999 19.66C35.6799 19.49 35.4599 19.41 35.2699 19.52C35.0999 19.62 35.0099 19.88 35.1299 20.05Z" fill="#F2F0E3"/>
<path d="M35.7398 20.04C36.1198 19.38 36.8898 19.02 37.5898 18.81C38.5298 18.54 39.4898 18.65 40.4298 18.85C40.5498 18.87 40.6598 18.9 40.7798 18.93C40.8898 18.95 41.1398 19.07 41.2398 19.04L41.3198 19.06C41.2698 18.87 41.2198 18.85 41.1998 19C41.1298 19.07 41.0998 19.24 41.0598 19.34C40.8398 19.87 40.6098 20.4 40.3798 20.92C39.9398 21.92 39.4798 22.91 39.0098 23.9C38.7998 24.35 39.4698 24.75 39.6798 24.29C40.1198 23.36 40.5598 22.42 40.9698 21.47C41.1698 21.01 41.3798 20.54 41.5698 20.08C41.7298 19.71 42.0898 19.17 41.9798 18.76C41.8698 18.32 41.3498 18.27 40.9798 18.18C40.4798 18.07 39.9798 17.97 39.4698 17.91C38.6498 17.82 37.8198 17.89 37.0298 18.17C36.2398 18.45 35.4698 18.91 35.0498 19.64C34.7998 20.07 35.4698 20.47 35.7198 20.03L35.7398 20.04Z" fill="#F2F0E3"/>
<path d="M40.7299 24.41C41.3099 23.46 41.8899 22.5 42.4699 21.55C42.7499 21.09 43.0299 20.63 43.3099 20.17C43.3399 20.11 43.3899 20 43.4499 19.95C43.5399 19.88 43.5399 19.92 43.6499 20C43.8199 20.11 43.9699 20.24 44.1199 20.37C45.3599 21.49 45.9899 23.16 45.8299 24.81L46.2199 24.42C44.3099 24.24 42.4099 24.07 40.4999 23.89C39.9999 23.84 39.9999 24.62 40.4999 24.67C42.4099 24.85 44.3099 25.02 46.2199 25.2C46.4399 25.22 46.5899 25 46.6099 24.81C46.7599 23.28 46.2699 21.73 45.3199 20.52C45.0899 20.22 44.8299 19.95 44.5399 19.7C44.2499 19.45 43.9099 19.14 43.5199 19.12C43.0599 19.1 42.8199 19.48 42.6099 19.82L41.8299 21.1C41.2399 22.07 40.6499 23.04 40.0599 24.01C39.7999 24.44 40.4699 24.83 40.7299 24.4V24.41Z" fill="#F2F0E3"/>
<path d="M40.3898 25.83C41.6698 26.02 42.9399 26.21 44.2199 26.4L45.1599 26.54C45.3099 26.56 45.4598 26.58 45.5998 26.61C45.6598 26.61 45.7198 26.62 45.7798 26.64C45.7198 26.62 45.7799 26.54 45.7499 26.67C45.7099 26.94 45.6999 27.19 45.6099 27.45C45.5199 27.71 45.3798 27.97 45.2098 28.19C44.9098 28.59 45.5899 28.98 45.8799 28.58C46.2799 28.04 46.4999 27.38 46.5199 26.71C46.5199 26.42 46.4699 26.12 46.1999 25.97C45.9299 25.82 45.4998 25.82 45.1898 25.77C43.6498 25.54 42.1199 25.32 40.5799 25.09C40.3699 25.06 40.1598 25.14 40.0998 25.36C40.0498 25.54 40.1598 25.81 40.3698 25.84L40.3898 25.83Z" fill="#F2F0E3"/>
<path d="M39.9899 25.61C40.0399 26.8 40.0799 27.98 40.1299 29.17C40.1499 29.67 40.9299 29.67 40.9099 29.17C40.8599 27.98 40.8199 26.8 40.7699 25.61C40.7499 25.11 39.9699 25.11 39.9899 25.61Z" fill="#F2F0E3"/>
<path d="M34.0898 29.15C34.3598 29.42 34.6298 29.67 34.8998 29.94C34.9698 30.01 35.0798 30.05 35.1798 30.05C35.2798 30.05 35.3898 30.01 35.4598 29.94C35.5298 29.87 35.5798 29.77 35.5698 29.66C35.5598 29.55 35.5298 29.46 35.4598 29.38C35.1898 29.11 34.9198 28.86 34.6498 28.59C34.5798 28.52 34.4698 28.48 34.3698 28.48C34.2698 28.48 34.1598 28.52 34.0898 28.59C34.0198 28.66 33.9698 28.76 33.9798 28.87C33.9898 28.98 34.0198 29.07 34.0898 29.15Z" fill="#F2F0E3"/>
<path d="M34.7298 29.07C36.2998 28.13 37.8898 27.2 39.3898 26.14L38.7998 25.8C38.8598 26.97 38.9698 28.13 38.9798 29.31C38.9798 29.81 39.7598 29.81 39.7598 29.31C39.7598 28.14 39.6398 26.97 39.5798 25.8C39.5698 25.53 39.2498 25.28 38.9898 25.46C37.4898 26.51 35.8998 27.45 34.3298 28.39C33.8998 28.65 34.2898 29.32 34.7198 29.06L34.7298 29.07Z" fill="#F2F0E3"/>
</svg>
