<?xml version="1.0" encoding="UTF-8"?>
<svg id="Capa_2" data-name="Capa 2" xmlns="http://www.w3.org/2000/svg" viewBox="0 0 56.56 62.97">
  <defs>
    <style>
      .cls-1 {
        fill: #2f3f1a;
      }

      .cls-1, .cls-2, .cls-3, .cls-4 {
        stroke-width: 0px;
      }

      .cls-2 {
        fill: #e297b3;
      }

      .cls-3 {
        fill: #fff;
      }

      .cls-4 {
        fill: #edcd46;
      }
    </style>
  </defs>
  <g id="Light_Version" data-name="Light Version">
    <g>
      <path class="cls-2" d="M2.57,2.39c-1.34,1.9-1.38,4.39-1.38,6.72.04,16.87.09,33.74.13,50.6,18.04-.52,36.07-1.03,54.11-1.55-.01-18.7-.25-37.4-.7-56.09,0-.25-.03-.54-.22-.7-.15-.13-.37-.15-.58-.16-14.66-.65-29.35-.64-44,.04-2.62.12-5.41.32-7.54,1.86"/>
      <g>
        <path class="cls-1" d="M1.34,2.46C-.34,5.15.27,9.03.25,12.04c-.02,3.81-.03,7.61-.05,11.42-.04,7.78-.07,15.55-.11,23.33-.02,3.85-.25,7.78.07,11.62.07.81.26,1.53,1.12,1.82.63.21,1.39.11,2.03.1.99,0,1.98-.02,2.97-.03,7.76-.09,15.52-.22,23.27-.4,8.75-.21,17.49-.47,26.24-.8.5-.02.5-.8,0-.78-14.52.54-29.04.92-43.57,1.12-1.65.02-3.3.05-4.95.06-.99.01-1.98.02-2.97.03-.8,0-2.92.39-3.31-.63-.24-.63-.11-1.73-.13-2.4-.02-.79-.03-1.59-.03-2.38,0-1.95.01-3.9.02-5.85.03-7.2.07-14.4.1-21.59.02-4.05.04-8.11.05-12.16,0-1.99.02-3.97.03-5.96s-.11-3.99.96-5.71c.27-.43-.41-.82-.67-.39h0Z"/>
        <path class="cls-1" d="M1.79,2.92C5.59.93,9.9.78,14.1.79c4.6.01,9.2.06,13.8.09,9.29.06,18.58.12,27.87.17.5,0,.5-.78,0-.78-9.62-.06-19.24-.12-28.87-.18-4.7-.03-9.4-.12-14.1-.08C8.88.05,4.93.4,1.4,2.25c-.44.23-.05.91.39.67h0Z"/>
        <path class="cls-1" d="M55.25.68c.54,19.11.67,38.23.38,57.34,0,.5.77.5.78,0,.28-19.11.16-38.23-.38-57.34-.01-.5-.79-.5-.78,0h0Z"/>
        <g>
          <path class="cls-4" d="M11,4.5c-.91-.06-1.86.35-2.4,1.09-.54.74-.62,1.8-.16,2.59.45.77,1.38,1.21,2.27,1.14s1.71-.61,2.19-1.36c.41-.66.57-1.51.27-2.23-.3-.72-1.1-1.24-1.86-1.09"/>
          <path class="cls-1" d="M11,4.11c-1.16-.06-2.38.53-2.92,1.59s-.4,2.42.49,3.24,2.14.97,3.21.49,1.89-1.6,1.94-2.8c.06-1.37-1.09-2.61-2.5-2.37-.21.04-.32.29-.27.48.06.22.27.31.48.27.85-.15,1.5.69,1.52,1.47.02.91-.55,1.75-1.33,2.18s-1.67.38-2.36-.14-.88-1.45-.58-2.25c.35-.94,1.37-1.43,2.33-1.38.5.03.5-.75,0-.78h0Z"/>
        </g>
        <g>
          <path class="cls-4" d="M20.92,4.22c-1.02.21-2.18.52-2.65,1.45-.42.84-.06,1.93.66,2.53s1.73.76,2.67.65c.43-.05.86-.15,1.21-.4.76-.52.99-1.62.64-2.47s-1.17-1.45-2.05-1.69"/>
          <path class="cls-1" d="M20.82,3.84c-1.04.21-2.23.53-2.81,1.51s-.24,2.33.6,3.07c.95.83,2.37,1.01,3.57.72s1.92-1.33,1.82-2.54c-.12-1.35-1.24-2.33-2.48-2.69-.48-.14-.69.61-.21.75.83.24,1.64.82,1.87,1.69.21.82-.16,1.71-.99,1.98-.89.29-2.01.21-2.81-.3-.68-.44-1.14-1.42-.74-2.19.44-.85,1.55-1.07,2.4-1.24.49-.1.28-.85-.21-.75h0Z"/>
        </g>
        <g>
          <path class="cls-4" d="M31.68,4.5c-.91-.06-1.86.35-2.4,1.09s-.62,1.8-.16,2.59c.45.77,1.38,1.21,2.27,1.14s1.71-.61,2.19-1.36c.41-.66.57-1.51.27-2.23s-1.1-1.24-1.86-1.09"/>
          <path class="cls-1" d="M31.68,4.11c-1.16-.06-2.38.53-2.92,1.59s-.4,2.42.49,3.24,2.14.97,3.21.49,1.89-1.6,1.94-2.8c.06-1.37-1.09-2.61-2.5-2.37-.21.04-.32.29-.27.48.06.22.27.31.48.27.85-.15,1.5.69,1.52,1.47.02.91-.55,1.75-1.33,2.18s-1.67.38-2.36-.14-.88-1.45-.58-2.25c.35-.94,1.37-1.43,2.33-1.38.5.03.5-.75,0-.78h0Z"/>
        </g>
        <g>
          <path class="cls-4" d="M41.6,4.22c-1.02.21-2.18.52-2.65,1.45-.42.84-.06,1.93.66,2.53s1.73.76,2.67.65c.43-.05.86-.15,1.21-.4.76-.52.99-1.62.64-2.47s-1.17-1.45-2.05-1.69"/>
          <path class="cls-1" d="M41.49,3.84c-1.04.21-2.23.53-2.81,1.51s-.24,2.33.6,3.07c.95.83,2.37,1.01,3.57.72s1.92-1.33,1.82-2.54c-.12-1.35-1.24-2.33-2.48-2.69-.48-.14-.69.61-.21.75.83.24,1.64.82,1.87,1.69.21.82-.16,1.71-.99,1.98-.89.29-2.01.21-2.81-.3-.68-.44-1.14-1.42-.74-2.19.44-.85,1.55-1.07,2.4-1.24.49-.1.28-.85-.21-.75h0Z"/>
        </g>
        <path class="cls-1" d="M.91,13.44c18.26.25,36.52,0,54.76-.77.5-.02.5-.8,0-.78-18.24.76-36.5,1.02-54.76.77-.5,0-.5.77,0,.78h0Z"/>
        <path class="cls-1" d="M5.5,18.97c-1.53,3.1,4.71,2.38,5.96,2.37,4.29-.04,8.58-.08,12.87-.11,8.58-.08,17.16-.15,25.74-.23.5,0,.5-.78,0-.78-7.34.06-14.68.13-22.02.19-3.63.03-7.26.06-10.89.1-1.81.02-3.63.03-5.44.05-.91,0-1.81.02-2.72.02-.66,0-3.54.23-2.82-1.22.22-.45-.45-.84-.67-.39h0Z"/>
        <path class="cls-1" d="M50.2,20.81c.44-.93.1-1.95-.79-2.48-1.36-.81-3.46-.37-4.94-.33-4.23.11-8.46.19-12.69.23-8.54.08-17.09,0-25.63-.22-.5-.01-.5.77,0,.78,7.21.19,14.43.27,21.65.25,3.57-.01,7.13-.05,10.7-.12,1.82-.03,3.65-.07,5.47-.12.88-.02,6.64-.66,5.56,1.63-.21.45.46.85.67.39h0Z"/>
        <g>
          <path class="cls-3" d="M51.21,50.89c-14.83.34-29.67.2-44.49-.42-.24-.01-.51-.03-.68-.21-.16-.16-.18-.41-.2-.63-.63-8.43-.67-16.9-.12-25.33,14.57.21,29.15.31,43.73.29.6-.11.94.79.96,1.44.3,8.13.4,16.27.3,24.41"/>
          <path class="cls-1" d="M51.21,50.5c-9.06.2-18.13.23-27.19.09-4.53-.07-9.06-.19-13.59-.36-1.02-.04-2.22.1-3.21-.12-.56-.13-.37.2-.76-.49-.27-.48-.23-.5-.3-.97-.1-.65-.09-1.33-.13-1.98-.13-2.32-.22-4.63-.27-6.95-.1-5.14.02-10.27.34-15.4l-.39.39c8.94.13,17.89.22,26.83.26,4.47.02,8.94.03,13.42.03.94,0,2.32-.25,3.23,0,1.17.32.86,2.29.9,3.3.07,2.24.13,4.48.17,6.73.1,5.15.11,10.3.06,15.45,0,.5.77.5.78,0,.05-4.82.04-9.63-.04-14.45-.04-2.49-.1-4.98-.18-7.47-.03-1.07.34-3.55-.89-4.2-.61-.32-1.63-.12-2.28-.12-1.24,0-2.48,0-3.73,0-2.4,0-4.8,0-7.21-.01-4.89-.02-9.77-.05-14.66-.09-5.47-.05-10.93-.11-16.4-.19-.22,0-.38.18-.39.39-.31,4.88-.43,9.77-.36,14.65.04,2.4.12,4.8.26,7.2.06,1.15.07,2.33.22,3.47.08.57.22.97.8,1.17.83.28,2.07.12,2.94.15,1.24.05,2.47.09,3.71.13,2.39.08,4.78.14,7.17.2,4.86.11,9.72.16,14.58.17,5.52,0,11.04-.06,16.56-.18.5-.01.5-.79,0-.78h0Z"/>
        </g>
        <path class="cls-1" d="M3.59,60c.04.49.12.98.26,1.46.11.39.24.81.56,1.08.35.28.83.28,1.26.32.54.04,1.08.07,1.62.09s1.03.03,1.55.02c.48,0,.97-.03,1.4-.25.75-.38,1.1-1.19,1.39-1.93.12-.3-.22-.52-.48-.48-1.91.32-3.85.39-5.78.23-.5-.04-.5.74,0,.78,2,.17,4.01.08,5.99-.26l-.48-.48c-.22.56-.49,1.25-1.1,1.49-.34.13-.72.12-1.08.12-.42,0-.85,0-1.27-.02-.4-.01-.8-.03-1.2-.06-.37-.02-.78,0-1.14-.1s-.42-.51-.51-.82c-.11-.39-.18-.78-.21-1.19-.04-.5-.82-.5-.78,0h0Z"/>
        <path class="cls-1" d="M45.04,59.76c.08.76.21,1.61.74,2.2.71.79,1.89.54,2.83.5.58-.03,1.17-.06,1.75-.08.46-.02,1.05.05,1.48-.15s.53-.69.69-1.09c.21-.54.43-1.08.64-1.63.12-.3-.22-.53-.48-.48-1.99.41-4.02.63-6.05.65-.23,0-.36.18-.39.39-.1.8.91.94,1.47,1.01.94.11,1.89.13,2.84.06.5-.04.5-.82,0-.78-.38.03-3.59.13-3.54-.29l-.39.39c2.1-.03,4.2-.26,6.26-.68l-.48-.48c-.16.41-.33.82-.49,1.24-.1.25-.23.88-.48,1-.16.07-.48.03-.65.04-.22.01-.44.02-.66.03-.46.02-.92.04-1.39.07-.44.02-.87.04-1.31.06-.38.02-.77.02-1.06-.26-.43-.42-.52-1.15-.58-1.71-.05-.49-.83-.5-.78,0h0Z"/>
        <path class="cls-1" d="M14.42,35.08c1.64-1.08,3.33-2.08,5.07-2.99.44-.23.05-.9-.39-.67-1.74.91-3.43,1.91-5.07,2.99-.42.27-.03.95.39.67h0Z"/>
        <path class="cls-1" d="M12.64,43.15c6.94-4.51,13.7-9.29,20.26-14.34.39-.3,0-.98-.39-.67-6.56,5.05-13.32,9.84-20.26,14.34-.42.27-.03.95.39.67h0Z"/>
        <path class="cls-1" d="M25,41.53c1.39-.99,2.82-1.93,4.27-2.83.43-.26.04-.94-.39-.67-1.46.89-2.88,1.84-4.27,2.83-.17.12-.25.34-.14.53.1.17.36.26.53.14h0Z"/>
        <path class="cls-1" d="M28.34,44.94c5.89-3.42,10.58-8.43,15.17-13.38.34-.37-.21-.92-.55-.55-4.54,4.9-9.18,9.87-15.01,13.26-.43.25-.04.92.39.67h0Z"/>
      </g>
    </g>
  </g>
</svg>