<svg width="57" height="63" viewBox="0 0 57 63" fill="none" xmlns="http://www.w3.org/2000/svg">
<path d="M2.57019 2.39001C1.23019 4.29001 1.19019 6.78001 1.19019 9.11001C1.23019 25.98 1.28019 42.85 1.32019 59.71C19.3602 59.19 37.3902 58.68 55.4302 58.16C55.4202 39.46 55.1802 20.76 54.7302 2.07001C54.7302 1.82001 54.7002 1.53001 54.5102 1.37001C54.3602 1.24001 54.1402 1.22001 53.9302 1.21001C39.2702 0.560005 24.5802 0.570005 9.93019 1.25001C7.31019 1.37001 4.52019 1.57001 2.39019 3.11001" fill="#E9E6E2"/>
<path d="M1.3401 2.45994C-0.339897 5.14994 0.270103 9.02994 0.250103 12.0399C0.230103 15.8499 0.220103 19.6499 0.200103 23.4599C0.160103 31.2399 0.130103 39.0099 0.0901029 46.7899C0.0701029 50.6399 -0.159897 54.5699 0.160103 58.4099C0.230103 59.2199 0.420103 59.9399 1.2801 60.2299C1.9101 60.4399 2.6701 60.3399 3.3101 60.3299C4.3001 60.3299 5.2901 60.3099 6.2801 60.2999C14.0401 60.2099 21.8001 60.0799 29.5501 59.8999C38.3001 59.6899 47.0401 59.4299 55.7901 59.0999C56.2901 59.0799 56.2901 58.2999 55.7901 58.3199C41.2701 58.8599 26.7501 59.2399 12.2201 59.4399C10.5701 59.4599 8.9201 59.4899 7.2701 59.4999C6.2801 59.5099 5.2901 59.5199 4.3001 59.5299C3.5001 59.5299 1.3801 59.9199 0.990103 58.8999C0.750103 58.2699 0.880103 57.1699 0.860103 56.4999C0.840103 55.7099 0.830103 54.9099 0.830103 54.1199C0.830103 52.1699 0.840103 50.2199 0.850103 48.2699C0.880103 41.0699 0.920103 33.8699 0.950103 26.6799C0.970103 22.6299 0.990103 18.5699 1.0001 14.5199C1.0001 12.5299 1.0201 10.5499 1.0301 8.55994C1.0401 6.56994 0.920103 4.56994 1.9901 2.84994C2.2601 2.41994 1.5801 2.02994 1.3201 2.45994H1.3401Z" fill="#423C33"/>
<path d="M1.79018 2.91995C5.59018 0.929953 9.90018 0.779953 14.1002 0.789953C18.7002 0.799953 23.3002 0.849953 27.9002 0.879953C37.1902 0.939953 46.4802 0.999953 55.7702 1.04995C56.2702 1.04995 56.2702 0.269953 55.7702 0.269953C46.1502 0.209953 36.5302 0.149953 26.9002 0.0899533C22.2002 0.0599533 17.5002 -0.0300468 12.8002 0.00995325C8.88018 0.0499532 4.93018 0.399953 1.40018 2.24995C0.960179 2.47995 1.35018 3.15995 1.79018 2.91995Z" fill="#423C33"/>
<path d="M55.2501 0.679932C55.7901 19.7899 55.9201 38.9099 55.6301 58.0199C55.6301 58.5199 56.4001 58.5199 56.4101 58.0199C56.6901 38.9099 56.5701 19.7899 56.0301 0.679932C56.0201 0.179932 55.2401 0.179932 55.2501 0.679932Z" fill="#423C33"/>
<path d="M11 4.50004C10.09 4.44004 9.14003 4.85004 8.60003 5.59004C8.06003 6.33004 7.98003 7.39004 8.44003 8.18004C8.89003 8.95004 9.82003 9.39004 10.71 9.32004C11.6 9.25004 12.42 8.71004 12.9 7.96004C13.31 7.30004 13.47 6.45004 13.17 5.73004C12.87 5.01004 12.07 4.49004 11.31 4.64004" fill="#E9E6E2"/>
<path d="M11.0001 4.11001C9.84006 4.05001 8.62006 4.64001 8.08006 5.70001C7.54006 6.76001 7.68006 8.12001 8.57006 8.94001C9.46006 9.76001 10.7101 9.91001 11.7801 9.43001C12.8501 8.95001 13.6701 7.83001 13.7201 6.63001C13.7801 5.26001 12.6301 4.02001 11.2201 4.26001C11.0101 4.30001 10.9001 4.55001 10.9501 4.74001C11.0101 4.96001 11.2201 5.05001 11.4301 5.01001C12.2801 4.86001 12.9301 5.70001 12.9501 6.48001C12.9701 7.39001 12.4001 8.23001 11.6201 8.66001C10.8401 9.09001 9.95006 9.04001 9.26006 8.52001C8.57006 8.00001 8.38006 7.07001 8.68006 6.27001C9.03006 5.33001 10.0501 4.84001 11.0101 4.89001C11.5101 4.92001 11.5101 4.14001 11.0101 4.11001H11.0001Z" fill="#423C33"/>
<path d="M20.9199 4.21997C19.8999 4.42997 18.7399 4.73997 18.2699 5.66997C17.8499 6.50997 18.2099 7.59997 18.9299 8.19997C19.6499 8.79997 20.6599 8.95997 21.5999 8.84997C22.0299 8.79997 22.4599 8.69997 22.8099 8.44997C23.5699 7.92997 23.7999 6.82997 23.4499 5.97997C23.0999 5.12997 22.2799 4.52997 21.3999 4.28997" fill="#E9E6E2"/>
<path d="M20.82 3.83997C19.78 4.04997 18.59 4.36997 18.01 5.34997C17.43 6.32997 17.77 7.67997 18.61 8.41997C19.56 9.24997 20.98 9.42997 22.18 9.13997C23.38 8.84997 24.1 7.80997 24 6.59997C23.88 5.24997 22.76 4.26997 21.52 3.90997C21.04 3.76997 20.83 4.51997 21.31 4.65997C22.14 4.89997 22.95 5.47997 23.18 6.34997C23.39 7.16997 23.02 8.05997 22.19 8.32997C21.3 8.61997 20.18 8.53997 19.38 8.02997C18.7 7.58997 18.24 6.60997 18.64 5.83997C19.08 4.98997 20.19 4.76997 21.04 4.59997C21.53 4.49997 21.32 3.74997 20.83 3.84997L20.82 3.83997Z" fill="#423C33"/>
<path d="M31.68 4.50004C30.77 4.44004 29.82 4.85004 29.28 5.59004C28.74 6.33004 28.66 7.39004 29.12 8.18004C29.57 8.95004 30.5 9.39004 31.39 9.32004C32.28 9.25004 33.1 8.71004 33.58 7.96004C33.99 7.30004 34.15 6.45004 33.85 5.73004C33.55 5.01004 32.75 4.49004 31.99 4.64004" fill="#E9E6E2"/>
<path d="M31.68 4.11001C30.52 4.05001 29.3 4.64001 28.76 5.70001C28.22 6.76001 28.36 8.12001 29.25 8.94001C30.14 9.76001 31.39 9.91001 32.46 9.43001C33.53 8.95001 34.35 7.83001 34.4 6.63001C34.46 5.26001 33.31 4.02001 31.9 4.26001C31.69 4.30001 31.58 4.55001 31.63 4.74001C31.69 4.96001 31.9 5.05001 32.11 5.01001C32.96 4.86001 33.61 5.70001 33.63 6.48001C33.65 7.39001 33.08 8.23001 32.3 8.66001C31.52 9.09001 30.63 9.04001 29.94 8.52001C29.25 8.00001 29.06 7.07001 29.36 6.27001C29.71 5.33001 30.73 4.84001 31.69 4.89001C32.19 4.92001 32.19 4.14001 31.69 4.11001H31.68Z" fill="#423C33"/>
<path d="M41.6001 4.21997C40.5801 4.42997 39.4201 4.73997 38.9501 5.66997C38.5301 6.50997 38.8901 7.59997 39.6101 8.19997C40.3301 8.79997 41.3401 8.95997 42.2801 8.84997C42.7101 8.79997 43.1401 8.69997 43.4901 8.44997C44.2501 7.92997 44.4801 6.82997 44.1301 5.97997C43.7801 5.12997 42.9601 4.52997 42.0801 4.28997" fill="#E9E6E2"/>
<path d="M41.4902 3.83997C40.4502 4.04997 39.2602 4.36997 38.6802 5.34997C38.1002 6.32997 38.4402 7.67997 39.2802 8.41997C40.2302 9.24997 41.6502 9.42997 42.8502 9.13997C44.0502 8.84997 44.7702 7.80997 44.6702 6.59997C44.5502 5.24997 43.4302 4.26997 42.1902 3.90997C41.7102 3.76997 41.5002 4.51997 41.9802 4.65997C42.8102 4.89997 43.6202 5.47997 43.8502 6.34997C44.0602 7.16997 43.6902 8.05997 42.8602 8.32997C41.9702 8.61997 40.8502 8.53997 40.0502 8.02997C39.3702 7.58997 38.9102 6.60997 39.3102 5.83997C39.7502 4.98997 40.8602 4.76997 41.7102 4.59997C42.2002 4.49997 41.9902 3.74997 41.5002 3.84997L41.4902 3.83997Z" fill="#423C33"/>
<path d="M0.910156 13.4399C19.1702 13.6899 37.4302 13.4399 55.6702 12.6699C56.1702 12.6499 56.1702 11.8699 55.6702 11.8899C37.4302 12.6499 19.1702 12.9099 0.910156 12.6599C0.410156 12.6599 0.410156 13.4299 0.910156 13.4399Z" fill="#423C33"/>
<path d="M5.50016 18.97C3.97016 22.07 10.2102 21.35 11.4602 21.34C15.7502 21.3 20.0402 21.26 24.3302 21.23C32.9102 21.15 41.4902 21.08 50.0702 21C50.5702 21 50.5702 20.22 50.0702 20.22C42.7302 20.28 35.3902 20.35 28.0502 20.41C24.4202 20.44 20.7902 20.47 17.1602 20.51C15.3502 20.53 13.5302 20.54 11.7202 20.56C10.8102 20.56 9.91016 20.58 9.00016 20.58C8.34016 20.58 5.46016 20.81 6.18016 19.36C6.40016 18.91 5.73016 18.52 5.51016 18.97H5.50016Z" fill="#423C33"/>
<path d="M50.2001 20.81C50.6401 19.88 50.3001 18.86 49.4101 18.33C48.0501 17.52 45.9501 17.96 44.4701 18C40.2401 18.11 36.0101 18.19 31.7801 18.23C23.2401 18.31 14.6901 18.23 6.15015 18.01C5.65015 18 5.65015 18.78 6.15015 18.79C13.3601 18.98 20.5801 19.06 27.8001 19.04C31.3701 19.03 34.9301 18.99 38.5001 18.92C40.3201 18.89 42.1501 18.85 43.9701 18.8C44.8501 18.78 50.6101 18.14 49.5301 20.43C49.3201 20.88 49.9901 21.28 50.2001 20.82V20.81Z" fill="#423C33"/>
<path d="M51.21 50.8899C36.38 51.2299 21.54 51.0899 6.71998 50.4699C6.47998 50.4599 6.20998 50.4399 6.03998 50.2599C5.87998 50.0999 5.85998 49.8499 5.83998 49.6299C5.20998 41.1999 5.16998 32.7299 5.71998 24.2999C20.29 24.5099 34.87 24.6099 49.45 24.5899C50.05 24.4799 50.39 25.3799 50.41 26.0299C50.71 34.1599 50.81 42.2999 50.71 50.4399" fill="#E9E6E2"/>
<path d="M51.21 50.5C42.15 50.7 33.08 50.73 24.02 50.59C19.49 50.52 14.96 50.3999 10.43 50.2299C9.41002 50.1899 8.21002 50.33 7.22002 50.11C6.66002 49.98 6.85002 50.3099 6.46002 49.6199C6.19002 49.1399 6.23002 49.12 6.16002 48.65C6.06002 48 6.07002 47.3199 6.03002 46.6699C5.90002 44.3499 5.81002 42.04 5.76002 39.72C5.66002 34.58 5.78002 29.45 6.10002 24.32L5.71002 24.7099C14.65 24.8399 23.6 24.9299 32.54 24.9699C37.01 24.9899 41.48 25 45.96 25C46.9 25 48.28 24.75 49.19 25C50.36 25.32 50.05 27.2899 50.09 28.2999C50.16 30.5399 50.22 32.7799 50.26 35.0299C50.36 40.1799 50.37 45.3299 50.32 50.4799C50.32 50.9799 51.09 50.9799 51.1 50.4799C51.15 45.6599 51.14 40.8499 51.06 36.0299C51.02 33.5399 50.96 31.0499 50.88 28.5599C50.85 27.4899 51.22 25.01 49.99 24.36C49.38 24.04 48.36 24.24 47.71 24.24C46.47 24.24 45.23 24.24 43.98 24.24C41.58 24.24 39.18 24.2399 36.77 24.2299C31.88 24.2099 27 24.1799 22.11 24.1399C16.64 24.0899 11.18 24.03 5.71002 23.95C5.49002 23.95 5.33002 24.13 5.32002 24.34C5.01002 29.22 4.89002 34.11 4.96002 38.99C5.00002 41.39 5.08002 43.7899 5.22002 46.1899C5.28002 47.3399 5.29002 48.52 5.44002 49.66C5.52002 50.23 5.66002 50.63 6.24002 50.83C7.07002 51.11 8.31002 50.9499 9.18002 50.9799C10.42 51.0299 11.65 51.07 12.89 51.11C15.28 51.19 17.67 51.25 20.06 51.31C24.92 51.42 29.78 51.4699 34.64 51.4799C40.16 51.4799 45.68 51.4199 51.2 51.2999C51.7 51.2899 51.7 50.51 51.2 50.52L51.21 50.5Z" fill="#423C33"/>
<path d="M3.59011 60C3.63011 60.49 3.71011 60.98 3.85011 61.46C3.96011 61.85 4.09011 62.27 4.41011 62.54C4.76011 62.82 5.24011 62.82 5.67011 62.86C6.21011 62.9 6.75011 62.93 7.29011 62.95C7.83011 62.97 8.32011 62.98 8.84011 62.97C9.32011 62.97 9.81011 62.94 10.2401 62.72C10.9901 62.34 11.3401 61.53 11.6301 60.79C11.7501 60.49 11.4101 60.27 11.1501 60.31C9.24011 60.63 7.30011 60.7 5.37011 60.54C4.87011 60.5 4.87011 61.28 5.37011 61.32C7.37011 61.49 9.38011 61.4 11.3601 61.06L10.8801 60.58C10.6601 61.14 10.3901 61.83 9.78011 62.07C9.44011 62.2 9.06011 62.19 8.70011 62.19C8.28011 62.19 7.85011 62.19 7.43011 62.17C7.03011 62.16 6.63011 62.14 6.23011 62.11C5.86011 62.09 5.45011 62.11 5.09011 62.01C4.73011 61.91 4.67011 61.5 4.58011 61.19C4.47011 60.8 4.40011 60.41 4.37011 60C4.33011 59.5 3.55011 59.5 3.59011 60Z" fill="#423C33"/>
<path d="M45.0401 59.7599C45.1201 60.5199 45.2501 61.3699 45.7801 61.9599C46.4901 62.7499 47.6701 62.4999 48.6101 62.4599C49.1901 62.4299 49.7801 62.3999 50.3601 62.3799C50.8201 62.3599 51.4101 62.4299 51.8401 62.2299C52.2701 62.0299 52.3701 61.5399 52.5301 61.1399C52.7401 60.5999 52.9601 60.0599 53.1701 59.5099C53.2901 59.2099 52.9501 58.9799 52.6901 59.0299C50.7001 59.4399 48.6701 59.6599 46.6401 59.6799C46.4101 59.6799 46.2801 59.8599 46.2501 60.0699C46.1501 60.8699 47.1601 61.0099 47.7201 61.0799C48.6601 61.1899 49.6101 61.2099 50.5601 61.1399C51.0601 61.0999 51.0601 60.3199 50.5601 60.3599C50.1801 60.3899 46.9701 60.4899 47.0201 60.0699L46.6301 60.4599C48.7301 60.4299 50.8301 60.1999 52.8901 59.7799L52.4101 59.2999C52.2501 59.7099 52.0801 60.1199 51.9201 60.5399C51.8201 60.7899 51.6901 61.4199 51.4401 61.5399C51.2801 61.6099 50.9601 61.5699 50.7901 61.5799C50.5701 61.5899 50.3501 61.5999 50.1301 61.6099C49.6701 61.6299 49.2101 61.6499 48.7401 61.6799C48.3001 61.6999 47.8701 61.7199 47.4301 61.7399C47.0501 61.7599 46.6601 61.7599 46.3701 61.4799C45.9401 61.0599 45.8501 60.3299 45.7901 59.7699C45.7401 59.2799 44.9601 59.2699 45.0101 59.7699L45.0401 59.7599Z" fill="#423C33"/>
<path d="M14.42 35.0799C16.06 33.9999 17.75 32.9999 19.49 32.0899C19.93 31.8599 19.54 31.1899 19.1 31.4199C17.36 32.3299 15.67 33.3299 14.03 34.4099C13.61 34.6799 14 35.3599 14.42 35.0799Z" fill="#423C33"/>
<path d="M12.6402 43.15C19.5802 38.64 26.3402 33.86 32.9002 28.81C33.2902 28.51 32.9002 27.83 32.5102 28.14C25.9502 33.19 19.1902 37.98 12.2502 42.48C11.8302 42.75 12.2202 43.43 12.6402 43.15Z" fill="#423C33"/>
<path d="M25.0002 41.5299C26.3902 40.5399 27.8202 39.5999 29.2702 38.6999C29.7002 38.4399 29.3102 37.7599 28.8802 38.0299C27.4202 38.9199 26.0002 39.8699 24.6102 40.8599C24.4402 40.9799 24.3602 41.1999 24.4702 41.3899C24.5702 41.5599 24.8302 41.6499 25.0002 41.5299Z" fill="#423C33"/>
<path d="M28.3402 44.9399C34.2302 41.5199 38.9202 36.5099 43.5102 31.5599C43.8502 31.1899 43.3002 30.6399 42.9602 31.0099C38.4202 35.9099 33.7802 40.8799 27.9502 44.2699C27.5202 44.5199 27.9102 45.1899 28.3402 44.9399Z" fill="#423C33"/>
</svg>
