<svg width="198" height="54" viewBox="0 0 198 54" fill="none" xmlns="http://www.w3.org/2000/svg">
<path d="M14.9726 6.573C29.1026 6.573 37.2826 14.623 37.2826 25.933C37.2826 36.383 30.7126 43.813 17.4326 43.813H7.78259C4.77259 43.813 1.94259 43.383 0.84259 42.403C-0.13741 41.543 -0.327409 40.193 0.722591 38.593C2.69259 35.393 3.55259 31.833 3.55259 25.193C3.55259 18.553 2.69259 14.933 0.722591 11.733C-0.317409 10.133 -0.19741 8.78297 0.84259 7.92297C1.88259 7.00297 4.77259 6.573 7.78259 6.573H14.9726ZM26.8326 25.373C26.6526 15.663 21.3026 9.58298 16.3826 9.58298C13.2526 9.58298 12.0826 11.123 12.0826 25.193C12.0826 39.263 13.1926 40.743 17.1226 40.743C22.2226 40.733 27.0726 35.573 26.8326 25.373Z" fill="#2F3F1A"/>
<path d="M67.4726 30.233C67.4726 38.103 62.8626 43.873 53.2826 43.873C43.7026 43.873 39.0927 38.093 39.0927 30.233C39.0927 22.923 43.8226 16.593 53.2826 16.593C62.7426 16.593 67.4726 22.913 67.4726 30.233ZM57.3926 29.613C57.2726 23.163 55.6127 18.983 53.2727 18.983C50.9327 18.983 48.9726 23.903 49.1526 30.843C49.2726 37.233 50.9327 41.413 53.2727 41.413C55.6127 41.413 57.5826 36.553 57.3926 29.613Z" fill="#2F3F1A"/>
<path d="M69.1326 23.473C68.0226 22.123 67.4726 21.073 68.0926 19.913C68.8326 18.373 73.1326 16.593 77.0026 16.593C81.3026 16.593 79.1526 21.943 78.5426 30.353C78.0526 37.423 78.1126 40.063 80.8826 40.063C83.5226 40.063 85.6126 36.373 86.0426 32.073V30.353C86.0426 27.283 85.8626 25.503 84.3226 23.593C83.2126 22.243 82.4226 21.503 83.1526 20.033C83.7026 18.803 89.1126 16.593 92.8026 16.593C96.6726 16.593 95.5726 20.953 94.6426 27.903C94.1526 31.833 94.5826 33.803 96.6726 34.413C98.4526 34.963 98.3926 36.443 97.9026 37.673C96.6126 41.053 93.3526 43.813 90.1626 43.813H90.0426C87.7026 43.813 86.7226 41.413 86.2926 38.533C84.4526 41.303 81.4426 43.813 77.1326 43.813C70.9926 43.813 68.5926 39.203 70.1226 32.013C70.8526 28.693 70.8526 25.623 69.1326 23.473Z" fill="#2F3F1A"/>
<path d="M123.763 43.8131C123.763 47.0731 121.553 50.0231 118.913 51.1831C115.713 52.5331 114.423 50.5031 115.593 47.1931C116.203 45.4731 115.713 44.4231 114.853 44.4231C114.053 44.4231 112.763 45.3431 111.413 47.0631C108.283 51.0531 105.023 52.7731 101.953 52.7731C98.5725 52.8331 95.7426 51.0531 95.7426 47.3031C95.7426 42.8831 99.9226 38.9431 105.693 37.3531C100.413 35.8831 98.0125 32.0731 98.0125 27.2731C98.0125 21.5631 102.133 16.5831 111.163 16.5831C111.713 16.5831 112.273 16.5831 112.823 16.6431C114.113 16.7031 113.683 15.9031 113.313 14.9231C112.333 12.5831 113.193 10.3131 115.523 9.27308C117.733 8.35308 119.943 8.66308 121.363 9.70308C123.083 11.0531 123.513 13.7631 122.473 15.6031C121.363 17.6331 118.913 17.4431 117.983 16.1531C116.513 14.0631 114.783 14.1831 114.783 15.4731C114.783 16.2731 116.073 17.0131 117.243 17.5031C122.033 19.3431 124.253 23.0931 124.253 27.2731C124.253 33.3531 120.443 37.9031 111.593 38.0231C109.753 38.3931 106.183 41.2831 106.183 43.8031C106.183 45.5831 106.983 46.3231 108.083 46.3231C109.493 46.3231 110.973 44.4231 112.933 42.3931C114.713 40.5531 116.993 39.4431 119.573 39.4431C121.913 39.4431 123.763 41.3531 123.763 43.8131ZM114.363 26.7831C114.243 21.7431 113.013 18.7931 111.163 18.7931C109.323 18.7931 107.783 22.2931 107.903 27.7631C108.023 32.8031 109.313 35.8131 111.163 35.8131C112.943 35.8231 114.483 32.2531 114.363 26.7831Z" fill="#2F3F1A"/>
<path d="M125.293 42.3931C124.313 41.5931 124.183 40.1831 125.173 38.5831C127.203 35.4531 127.693 31.6431 127.693 25.0031C127.693 19.7831 127.083 16.1531 125.233 13.5131C124.003 11.7331 123.083 10.7431 124.123 9.21307C125.593 7.12307 129.963 5.89307 134.443 5.89307C139.543 5.89307 136.783 12.2231 136.103 21.3731C137.763 18.9131 140.163 16.5831 144.463 16.5831C150.673 16.5831 152.143 20.3331 152.143 25.6131C152.143 32.4331 151.533 33.6031 154.113 34.4031C155.953 34.9531 155.893 36.4331 155.403 37.6631C154.173 41.0431 150.553 43.8031 147.473 43.8031H147.353C142.683 43.8031 142.373 40.7331 143.233 31.0231C143.843 24.2631 143.413 20.3331 140.653 20.3331C137.953 20.3331 136.233 23.7731 135.983 28.1331C136.103 32.9831 136.593 35.9331 138.503 38.5831C139.613 40.1231 139.243 41.5331 138.323 42.3331C137.153 43.3131 134.693 43.8731 131.873 43.8731H131.753C129.103 43.8731 126.343 43.3831 125.293 42.3931Z" fill="#2F3F1A"/>
<path d="M186.553 23.593C185.513 22.243 184.713 21.503 185.443 20.033C186.053 18.803 189.993 16.593 193.673 16.593C196.253 16.593 197.663 17.203 197.603 20.223L197.483 32.023C197.423 38.783 195.273 45.053 190.913 48.863C188.023 51.383 184.583 53.413 179.053 53.413C170.693 53.413 168.173 47.023 171.923 44.623C174.813 42.723 177.513 48.003 183.663 48.003C187.593 48.003 189.373 46.163 189.373 42.593V40.193C188.393 41.853 186.973 42.963 184.763 43.513C178.743 45.053 173.583 41.243 173.273 33.863C173.153 30.423 172.963 25.633 171.243 23.483C170.133 22.133 169.583 21.083 170.203 19.923C170.943 18.383 175.243 16.603 179.113 16.603C183.413 16.603 180.713 21.153 180.583 29.573C180.523 35.903 182.923 39.093 185.743 39.093C187.773 39.093 189.303 35.713 189.303 32.153C189.323 28.323 188.773 26.353 186.553 23.593Z" fill="#2F3F1A"/>
<path d="M170.333 38.323C169.533 37.183 169.003 35.973 168.663 34.563V34.553C168.653 34.503 168.643 34.443 168.633 34.393C168.633 34.383 168.623 34.373 168.623 34.363C168.333 33.103 168.173 31.693 168.093 30.023C168.093 30.023 168.093 30.023 168.093 30.013C168.023 29.673 167.953 29.323 167.903 28.953C167.893 28.853 167.893 28.753 167.883 28.653C167.783 27.193 167.743 26.063 167.743 26.063C167.453 19.093 168.423 14.713 169.283 12.293C169.813 10.793 170.283 10.043 170.383 9.90301C170.383 9.89301 170.393 9.893 170.393 9.893C170.393 9.883 170.403 9.88302 170.403 9.88302C170.523 9.73302 170.643 9.58301 170.773 9.43301V9.423C173.403 6.333 174.203 5.02301 173.293 3.68301C172.083 1.85301 169.633 -0.0869837 167.493 0.00301635C165.543 0.0830163 163.703 1.373 162.393 2.983C162.393 2.983 162.393 2.98301 162.383 2.99301C162.303 3.06301 161.663 3.66302 161.003 5.19302C160.973 5.25302 160.953 5.32302 160.923 5.38302C160.893 5.44302 160.873 5.50302 160.843 5.57302C160.703 5.91302 160.573 6.28302 160.443 6.69302C159.963 8.20302 159.543 10.273 159.373 13.043C158.133 12.633 156.963 11.413 155.753 9.953C153.163 6.833 150.353 2.61299 146.123 2.79299C143.083 2.92299 140.643 5.403 139.653 8.703C138.813 11.503 139.363 13.573 140.483 13.523C140.643 13.513 140.813 13.453 140.983 13.383C142.803 12.533 144.483 12.133 145.953 12.063C151.613 11.823 155.123 16.243 158.923 17.173C159.053 17.203 159.183 17.233 159.323 17.253C159.353 18.063 159.393 18.923 159.453 19.833C159.513 20.643 159.593 21.483 159.683 22.373C159.683 22.393 159.683 22.403 159.683 22.423C160.133 26.613 159.903 30.033 159.333 32.813C159.313 32.893 159.283 32.973 159.253 33.053C159.253 33.063 159.253 33.063 159.253 33.063C159.213 33.273 159.183 33.483 159.133 33.693C158.763 35.193 158.303 36.493 157.793 37.593C157.793 37.603 157.783 37.603 157.783 37.603C157.763 37.643 157.733 37.693 157.713 37.733C157.563 38.013 157.403 38.283 157.233 38.553C157.023 38.893 156.863 39.223 156.763 39.533C156.433 40.473 156.503 41.293 156.913 41.913C157.013 42.083 157.143 42.233 157.303 42.363C158.413 43.343 161.173 43.833 163.813 43.833H163.933C166.763 43.833 169.223 43.283 170.383 42.293C171.303 41.493 171.613 40.083 170.563 38.543C170.453 38.503 170.393 38.413 170.333 38.323Z" fill="#2F3F1A"/>
</svg>
