<svg width="474" height="127" viewBox="0 0 474 127" fill="none" xmlns="http://www.w3.org/2000/svg">
<path d="M49.12 5.6C59.6 5.6 67.08 8.24 71.56 13.52C74.84 17.52 76.48 22.52 76.48 28.52C76.48 30.68 76.28 32.96 75.88 35.36L71.2 62.12C69.6 71.16 65.68 78.4 59.44 83.84C53.2 89.28 45.12 92 35.2 92H0.28L15.52 5.6H49.12ZM41.56 24.32H33.76L25.24 73.28H36.64C40.4 73.28 43.32 72.28 45.4 70.28C47.56 68.2 49.04 64.84 49.84 60.2L53.32 40.52C53.64 38.76 53.8 37.16 53.8 35.72C53.8 28.12 49.72 24.32 41.56 24.32ZM117.993 32.6C126.633 32.6 133.153 34.48 137.553 38.24C140.993 41.2 142.713 45.32 142.713 50.6C142.713 52.36 142.513 54.28 142.113 56.36L139.593 70.4C138.073 78.88 134.513 84.88 128.913 88.4C123.393 91.92 115.993 93.68 106.713 93.68C97.4334 93.68 90.6334 91.92 86.3134 88.4C83.1134 85.76 81.5134 81.8 81.5134 76.52C81.5134 74.68 81.7134 72.64 82.1134 70.4L84.6334 56.36C87.4334 40.52 98.5534 32.6 117.993 32.6ZM121.233 58.76C121.393 57.96 121.473 56.96 121.473 55.76C121.473 54.48 120.953 53.08 119.913 51.56C118.873 50.04 117.033 49.28 114.393 49.28C111.833 49.28 109.673 50.16 107.913 51.92C106.153 53.6 105.033 55.88 104.553 58.76L102.993 67.76C102.833 68.56 102.753 69.6 102.753 70.88C102.753 72.08 103.273 73.4 104.313 74.84C105.353 76.28 107.153 77 109.713 77C112.353 77 114.553 76.12 116.313 74.36C118.073 72.52 119.193 70.32 119.673 67.76L121.233 58.76ZM208.888 73.52C208.888 75.6 209.928 76.64 212.008 76.64C214.168 76.64 215.968 76.24 217.408 75.44L216.808 89C212.968 92.12 208.648 93.68 203.848 93.68C194.808 93.68 189.888 90.2 189.088 83.24C184.288 90.2 177.808 93.68 169.648 93.68C161.568 93.68 156.328 91.84 153.928 88.16C152.328 85.84 151.528 83.2 151.528 80.24C151.528 77.28 151.768 74.56 152.248 72.08L158.968 34.28H179.368L173.728 66.2C173.488 67.64 173.368 69.08 173.368 70.52C173.368 74.36 175.528 76.28 179.848 76.28C183.448 76.28 186.328 75.04 188.488 72.56L195.328 34.28H215.728L209.008 72.08C208.928 72.56 208.888 73.04 208.888 73.52ZM278.876 93.92C277.116 104.08 273.076 112.12 266.756 118.04C260.516 123.96 253.356 126.92 245.276 126.92C237.196 126.92 231.356 125.44 227.756 122.48C224.236 119.52 222.476 115.64 222.476 110.84C222.476 103.8 226.956 97.68 235.916 92.48C229.116 90.32 225.716 85.16 225.716 77C225.716 75 225.916 72.8 226.316 70.4L228.716 56.36C229.996 49.16 232.956 43.44 237.596 39.2C242.236 34.88 248.236 32.72 255.596 32.72C263.036 32.72 268.116 34.52 270.836 38.12L271.556 34.28H289.436L278.876 93.92ZM247.196 67.76C247.036 68.48 246.956 69.48 246.956 70.76C246.956 72.04 247.556 73.32 248.756 74.6C249.956 75.8 251.956 76.4 254.756 76.4C257.636 76.4 260.116 75.28 262.196 73.04L265.796 52.88C264.676 50.88 262.556 49.88 259.436 49.88C256.316 49.88 253.876 50.68 252.116 52.28C250.356 53.88 249.236 56.04 248.756 58.76L247.196 67.76ZM248.036 109.76C253.236 109.76 256.636 105.04 258.236 95.6L259.436 88.64C248.316 93.84 242.756 99.08 242.756 104.36C242.756 105.96 243.196 107.24 244.076 108.2C245.036 109.24 246.356 109.76 248.036 109.76ZM356.353 76.64C358.193 76.64 359.833 76.24 361.273 75.44L360.673 89C356.913 92.12 352.633 93.68 347.833 93.68C336.953 93.68 331.513 89.12 331.513 80C331.513 78.4 331.673 76.68 331.993 74.84L334.633 60.08C334.873 58.64 334.993 57.2 334.993 55.76C334.993 51.92 332.953 50 328.873 50C324.873 50 321.753 51.36 319.513 54.08L312.793 92H292.393L308.473 0.919992H328.873L322.033 39.68C326.433 34.96 331.953 32.6 338.593 32.6C346.673 32.6 351.913 34.4 354.313 38C355.993 40.4 356.833 43.08 356.833 46.04C356.833 49 356.593 51.72 356.113 54.2L352.873 72.08C352.793 72.56 352.753 73 352.753 73.4C352.753 75.56 353.953 76.64 356.353 76.64ZM391.89 73.52C391.89 75.6 392.93 76.64 395.01 76.64C397.17 76.64 398.97 76.24 400.41 75.44L399.81 89C395.97 92.12 391.65 93.68 386.85 93.68C379.57 93.68 374.85 92 372.69 88.64C371.33 86.48 370.65 84.12 370.65 81.56C370.65 79 370.81 76.76 371.13 74.84L384.21 0.919992H404.61L392.01 72.08C391.93 72.56 391.89 73.04 391.89 73.52ZM432.01 66.2C431.77 67.64 431.65 69.08 431.65 70.52C431.65 74.36 433.81 76.28 438.13 76.28C441.65 76.28 444.57 75.04 446.89 72.56L453.61 34.28H474.01L463.45 93.92C461.69 104.08 457.65 112.12 451.33 118.04C445.09 123.96 437.93 126.92 429.85 126.92C421.77 126.92 415.93 125.44 412.33 122.48C408.81 119.52 407.05 115.64 407.05 110.84C407.05 104.04 411.25 98 419.65 92.72C415.09 91.6 412.21 89.32 411.01 85.88C410.29 83.96 409.93 81.8 409.93 79.4C409.93 77 410.13 74.56 410.53 72.08L417.25 34.28H437.65L432.01 66.2ZM432.61 109.76C437.81 109.76 441.21 105.04 442.81 95.6L444.01 88.64C432.89 93.84 427.33 99.08 427.33 104.36C427.33 105.96 427.77 107.24 428.65 108.2C429.61 109.24 430.93 109.76 432.61 109.76Z" fill="#F5F7FA"/>
</svg>
