<svg width="198" height="54" viewBox="0 0 198 54" fill="none" xmlns="http://www.w3.org/2000/svg">
<path d="M14.9726 6.56299C29.1026 6.56299 37.2826 14.613 37.2826 25.923C37.2826 36.373 30.7126 43.803 17.4326 43.803H7.78259C4.77259 43.803 1.94259 43.3729 0.842588 42.3929C-0.137412 41.5329 -0.327407 40.1829 0.722593 38.5829C2.69259 35.3829 3.55255 31.823 3.55255 25.183C3.55255 18.543 2.69259 14.923 0.722593 11.723C-0.317407 10.123 -0.197412 8.77296 0.842588 7.91296C1.88259 6.99296 4.77259 6.56299 7.78259 6.56299H14.9726ZM26.8326 25.363C26.6526 15.653 21.3026 9.57294 16.3826 9.57294C13.2526 9.57294 12.0826 11.113 12.0826 25.183C12.0826 39.253 13.1926 40.733 17.1226 40.733C22.2226 40.733 27.0826 35.563 26.8326 25.363Z" fill="#F2F0E3"/>
<path d="M67.4725 30.223C67.4725 38.093 62.8625 43.863 53.2825 43.863C43.6925 43.863 39.0925 38.083 39.0925 30.223C39.0925 22.913 43.8225 16.583 53.2825 16.583C62.7425 16.583 67.4725 22.913 67.4725 30.223ZM57.4025 29.603C57.2825 23.153 55.6225 18.973 53.2825 18.973C50.9425 18.973 48.9825 23.893 49.1625 30.833C49.2825 37.223 50.9425 41.403 53.2825 41.403C55.6225 41.403 57.5825 36.553 57.4025 29.603Z" fill="#F2F0E3"/>
<path d="M69.1326 23.463C68.0226 22.113 67.4726 21.063 68.0926 19.903C68.8326 18.363 73.1326 16.583 77.0026 16.583C81.3026 16.583 79.1526 21.933 78.5426 30.343C78.0526 37.413 78.1126 40.053 80.8826 40.053C83.5226 40.053 85.6126 36.363 86.0426 32.063V30.343C86.0426 27.273 85.8626 25.493 84.3226 23.583C83.2126 22.233 82.4226 21.493 83.1526 20.023C83.7026 18.793 89.1126 16.583 92.8026 16.583C96.6726 16.583 95.5726 20.943 94.6426 27.893C94.1526 31.823 94.5826 33.793 96.6726 34.403C98.4526 34.953 98.3926 36.433 97.9026 37.663C96.6126 41.043 93.3526 43.803 90.1626 43.803H90.0426C87.7026 43.803 86.7226 41.403 86.2926 38.523C84.4526 41.293 81.4426 43.803 77.1326 43.803C70.9926 43.803 68.5926 39.193 70.1226 32.003C70.8526 28.683 70.8526 25.613 69.1326 23.463Z" fill="#F2F0E3"/>
<path d="M123.763 43.8031C123.763 47.0631 121.553 50.0131 118.913 51.1731C115.713 52.5231 114.423 50.4931 115.593 47.1831C116.203 45.4631 115.713 44.4131 114.853 44.4131C114.053 44.4131 112.763 45.3331 111.413 47.0531C108.283 51.0431 105.023 52.7631 101.953 52.7631C98.5726 52.8231 95.7426 51.0431 95.7426 47.2931C95.7426 42.8731 99.9226 38.9331 105.693 37.3431C100.413 35.8731 98.0126 32.0631 98.0126 27.2631C98.0126 21.5531 102.133 16.5731 111.163 16.5731C111.713 16.5731 112.273 16.5731 112.823 16.6331C114.113 16.6931 113.683 15.8931 113.313 14.9131C112.333 12.5731 113.193 10.3031 115.523 9.26307C117.733 8.34307 119.943 8.65307 121.363 9.69307C123.083 11.0431 123.513 13.7531 122.473 15.5931C121.363 17.6231 118.913 17.4331 117.983 16.1431C116.513 14.0531 114.783 14.1731 114.783 15.4631C114.783 16.2631 116.073 17.0031 117.243 17.4931C122.033 19.3331 124.253 23.0831 124.253 27.2631C124.253 33.3431 120.443 37.8931 111.593 38.0131C109.753 38.3831 106.183 41.2731 106.183 43.7931C106.183 45.5731 106.983 46.3131 108.083 46.3131C109.493 46.3131 110.973 44.4131 112.933 42.3831C114.713 40.5431 116.993 39.4331 119.573 39.4331C121.923 39.4431 123.763 41.3431 123.763 43.8031ZM114.363 26.7831C114.243 21.7431 113.013 18.7931 111.163 18.7931C109.323 18.7931 107.783 22.2931 107.903 27.7631C108.023 32.8031 109.313 35.8131 111.163 35.8131C112.943 35.8131 114.483 32.2531 114.363 26.7831Z" fill="#F2F0E3"/>
<path d="M125.293 42.3931C124.313 41.5931 124.183 40.1831 125.173 38.5831C127.203 35.4531 127.693 31.6431 127.693 25.0031C127.693 19.7831 127.083 16.1531 125.233 13.5131C124.003 11.7331 123.083 10.7431 124.123 9.21307C125.593 7.12307 129.963 5.89307 134.443 5.89307C139.543 5.89307 136.783 12.2231 136.103 21.3731C137.763 18.9131 140.163 16.5831 144.463 16.5831C150.673 16.5831 152.143 20.3331 152.143 25.6131C152.143 32.4331 151.533 33.6031 154.113 34.4031C155.953 34.9531 155.893 36.4331 155.403 37.6631C154.173 41.0431 150.553 43.8031 147.473 43.8031H147.353C142.683 43.8031 142.373 40.7331 143.233 31.0231C143.843 24.2631 143.413 20.3331 140.653 20.3331C137.953 20.3331 136.233 23.7731 135.983 28.1331C136.103 32.9831 136.593 35.9331 138.503 38.5831C139.613 40.1231 139.243 41.5331 138.323 42.3331C137.153 43.3131 134.693 43.8731 131.873 43.8731H131.753C129.103 43.8631 126.343 43.3731 125.293 42.3931Z" fill="#F2F0E3"/>
<path d="M186.562 23.583C185.522 22.233 184.722 21.493 185.452 20.023C186.062 18.793 190.002 16.583 193.682 16.583C196.262 16.583 197.672 17.193 197.612 20.213L197.492 32.013C197.432 38.773 195.283 45.043 190.913 48.853C188.023 51.373 184.582 53.403 179.052 53.403C170.692 53.403 168.172 47.013 171.922 44.613C174.812 42.713 177.513 47.993 183.663 47.993C187.593 47.993 189.372 46.153 189.372 42.583V40.183C188.392 41.843 186.972 42.953 184.762 43.503C178.742 45.043 173.582 41.233 173.272 33.853C173.152 30.413 172.962 25.623 171.242 23.473C170.132 22.123 169.582 21.073 170.202 19.913C170.942 18.373 175.242 16.593 179.112 16.593C183.412 16.593 180.712 21.143 180.582 29.563C180.522 35.893 182.922 39.083 185.742 39.083C187.772 39.083 189.302 35.703 189.302 32.143C189.322 28.313 188.772 26.353 186.562 23.583Z" fill="#F2F0E3"/>
<path d="M170.333 38.323C169.533 37.183 169.003 35.9731 168.663 34.5631V34.5531C168.653 34.5031 168.643 34.443 168.633 34.393C168.633 34.383 168.623 34.3731 168.623 34.3631C168.333 33.1031 168.173 31.693 168.093 30.023C168.093 30.023 168.093 30.023 168.093 30.013C168.023 29.673 167.953 29.323 167.903 28.953C167.893 28.853 167.893 28.753 167.883 28.653C167.783 27.193 167.743 26.0631 167.743 26.0631C167.453 19.0931 168.423 14.7131 169.283 12.2931C169.813 10.7931 170.283 10.043 170.383 9.90304C170.383 9.89304 170.393 9.89303 170.393 9.89303C170.393 9.88303 170.403 9.88302 170.403 9.88302C170.523 9.73302 170.643 9.58307 170.773 9.43307V9.42306C173.403 6.33306 174.203 5.02307 173.293 3.68307C172.083 1.85307 169.633 -0.0869837 167.493 0.00301626C165.543 0.0830163 163.703 1.37306 162.393 2.98306C162.393 2.98306 162.393 2.98307 162.383 2.99307C162.303 3.06307 161.663 3.66302 161.003 5.19302C160.973 5.25302 160.953 5.32302 160.923 5.38302C160.893 5.44302 160.873 5.50302 160.843 5.57302C160.703 5.91302 160.573 6.28302 160.443 6.69302C159.963 8.20302 159.543 10.2731 159.373 13.0431C158.133 12.6331 156.963 11.413 155.753 9.95303C153.163 6.83303 150.353 2.61306 146.123 2.79306C143.083 2.92306 140.643 5.40303 139.653 8.70303C138.813 11.503 139.363 13.573 140.483 13.523C140.643 13.513 140.813 13.453 140.983 13.383C142.803 12.533 144.483 12.1331 145.953 12.0631C151.613 11.8231 155.123 16.2431 158.923 17.1731C159.053 17.2031 159.183 17.233 159.323 17.253C159.353 18.063 159.393 18.923 159.453 19.833C159.513 20.643 159.593 21.4831 159.683 22.3731C159.683 22.3931 159.683 22.4031 159.683 22.4231C160.133 26.6131 159.903 30.0331 159.333 32.8131C159.313 32.8931 159.283 32.9731 159.253 33.0531C159.253 33.0631 159.253 33.0631 159.253 33.0631C159.213 33.2731 159.183 33.483 159.133 33.693C158.763 35.193 158.303 36.493 157.793 37.593C157.793 37.603 157.783 37.6031 157.783 37.6031C157.763 37.6431 157.733 37.6931 157.713 37.7331C157.563 38.0131 157.403 38.2831 157.233 38.5531C157.023 38.8931 156.863 39.223 156.763 39.533C156.433 40.473 156.503 41.2931 156.913 41.9131C157.013 42.0831 157.143 42.2331 157.303 42.3631C158.413 43.3431 161.173 43.833 163.813 43.833H163.933C166.763 43.833 169.223 43.2831 170.383 42.2931C171.303 41.4931 171.613 40.0831 170.563 38.5431C170.453 38.4931 170.393 38.403 170.333 38.323Z" fill="#F2F0E3"/>
</svg>
