<svg width="547" height="254" viewBox="0 0 547 254" fill="none" xmlns="http://www.w3.org/2000/svg">
<g filter="url(#filter0_f_13_19)">
<rect x="2" y="2" width="543" height="250" rx="16" fill="url(#paint0_linear_13_19)" fill-opacity="0.8"/>
</g>
<path d="M86.12 81.6C96.6 81.6 104.08 84.24 108.56 89.52C111.84 93.52 113.48 98.52 113.48 104.52C113.48 106.68 113.28 108.96 112.88 111.36L108.2 138.12C106.6 147.16 102.68 154.4 96.44 159.84C90.2 165.28 82.12 168 72.2 168H37.28L52.52 81.6H86.12ZM78.56 100.32H70.76L62.24 149.28H73.64C77.4 149.28 80.32 148.28 82.4 146.28C84.56 144.2 86.04 140.84 86.84 136.2L90.32 116.52C90.64 114.76 90.8 113.16 90.8 111.72C90.8 104.12 86.72 100.32 78.56 100.32ZM154.993 108.6C163.633 108.6 170.153 110.48 174.553 114.24C177.993 117.2 179.713 121.32 179.713 126.6C179.713 128.36 179.513 130.28 179.113 132.36L176.593 146.4C175.073 154.88 171.513 160.88 165.913 164.4C160.393 167.92 152.993 169.68 143.713 169.68C134.433 169.68 127.633 167.92 123.313 164.4C120.113 161.76 118.513 157.8 118.513 152.52C118.513 150.68 118.713 148.64 119.113 146.4L121.633 132.36C124.433 116.52 135.553 108.6 154.993 108.6ZM158.233 134.76C158.393 133.96 158.473 132.96 158.473 131.76C158.473 130.48 157.953 129.08 156.913 127.56C155.873 126.04 154.033 125.28 151.393 125.28C148.833 125.28 146.673 126.16 144.913 127.92C143.153 129.6 142.033 131.88 141.553 134.76L139.993 143.76C139.833 144.56 139.753 145.6 139.753 146.88C139.753 148.08 140.273 149.4 141.313 150.84C142.353 152.28 144.153 153 146.713 153C149.353 153 151.553 152.12 153.313 150.36C155.073 148.52 156.193 146.32 156.673 143.76L158.233 134.76ZM245.888 149.52C245.888 151.6 246.928 152.64 249.008 152.64C251.168 152.64 252.968 152.24 254.408 151.44L253.808 165C249.968 168.12 245.648 169.68 240.848 169.68C231.808 169.68 226.888 166.2 226.088 159.24C221.288 166.2 214.808 169.68 206.648 169.68C198.568 169.68 193.328 167.84 190.928 164.16C189.328 161.84 188.528 159.2 188.528 156.24C188.528 153.28 188.768 150.56 189.248 148.08L195.968 110.28H216.368L210.728 142.2C210.488 143.64 210.368 145.08 210.368 146.52C210.368 150.36 212.528 152.28 216.848 152.28C220.448 152.28 223.328 151.04 225.488 148.56L232.328 110.28H252.728L246.008 148.08C245.928 148.56 245.888 149.04 245.888 149.52ZM315.876 169.92C314.116 180.08 310.076 188.12 303.756 194.04C297.516 199.96 290.356 202.92 282.276 202.92C274.196 202.92 268.356 201.44 264.756 198.48C261.236 195.52 259.476 191.64 259.476 186.84C259.476 179.8 263.956 173.68 272.916 168.48C266.116 166.32 262.716 161.16 262.716 153C262.716 151 262.916 148.8 263.316 146.4L265.716 132.36C266.996 125.16 269.956 119.44 274.596 115.2C279.236 110.88 285.236 108.72 292.596 108.72C300.036 108.72 305.116 110.52 307.836 114.12L308.556 110.28H326.436L315.876 169.92ZM284.196 143.76C284.036 144.48 283.956 145.48 283.956 146.76C283.956 148.04 284.556 149.32 285.756 150.6C286.956 151.8 288.956 152.4 291.756 152.4C294.636 152.4 297.116 151.28 299.196 149.04L302.796 128.88C301.676 126.88 299.556 125.88 296.436 125.88C293.316 125.88 290.876 126.68 289.116 128.28C287.356 129.88 286.236 132.04 285.756 134.76L284.196 143.76ZM285.036 185.76C290.236 185.76 293.636 181.04 295.236 171.6L296.436 164.64C285.316 169.84 279.756 175.08 279.756 180.36C279.756 181.96 280.196 183.24 281.076 184.2C282.036 185.24 283.356 185.76 285.036 185.76ZM393.353 152.64C395.193 152.64 396.833 152.24 398.273 151.44L397.673 165C393.913 168.12 389.633 169.68 384.833 169.68C373.953 169.68 368.513 165.12 368.513 156C368.513 154.4 368.673 152.68 368.993 150.84L371.633 136.08C371.873 134.64 371.993 133.2 371.993 131.76C371.993 127.92 369.953 126 365.873 126C361.873 126 358.753 127.36 356.513 130.08L349.793 168H329.393L345.473 76.92H365.873L359.033 115.68C363.433 110.96 368.953 108.6 375.593 108.6C383.673 108.6 388.913 110.4 391.313 114C392.993 116.4 393.833 119.08 393.833 122.04C393.833 125 393.593 127.72 393.113 130.2L389.873 148.08C389.793 148.56 389.753 149 389.753 149.4C389.753 151.56 390.953 152.64 393.353 152.64ZM428.89 149.52C428.89 151.6 429.93 152.64 432.01 152.64C434.17 152.64 435.97 152.24 437.41 151.44L436.81 165C432.97 168.12 428.65 169.68 423.85 169.68C416.57 169.68 411.85 168 409.69 164.64C408.33 162.48 407.65 160.12 407.65 157.56C407.65 155 407.81 152.76 408.13 150.84L421.21 76.92H441.61L429.01 148.08C428.93 148.56 428.89 149.04 428.89 149.52ZM469.01 142.2C468.77 143.64 468.65 145.08 468.65 146.52C468.65 150.36 470.81 152.28 475.13 152.28C478.65 152.28 481.57 151.04 483.89 148.56L490.61 110.28H511.01L500.45 169.92C498.69 180.08 494.65 188.12 488.33 194.04C482.09 199.96 474.93 202.92 466.85 202.92C458.77 202.92 452.93 201.44 449.33 198.48C445.81 195.52 444.05 191.64 444.05 186.84C444.05 180.04 448.25 174 456.65 168.72C452.09 167.6 449.21 165.32 448.01 161.88C447.29 159.96 446.93 157.8 446.93 155.4C446.93 153 447.13 150.56 447.53 148.08L454.25 110.28H474.65L469.01 142.2ZM469.61 185.76C474.81 185.76 478.21 181.04 479.81 171.6L481.01 164.64C469.89 169.84 464.33 175.08 464.33 180.36C464.33 181.96 464.77 183.24 465.65 184.2C466.61 185.24 467.93 185.76 469.61 185.76Z" fill="#F5F7FA"/>
<defs>
<filter id="filter0_f_13_19" x="0" y="0" width="547" height="254" filterUnits="userSpaceOnUse" color-interpolation-filters="sRGB">
<feFlood flood-opacity="0" result="BackgroundImageFix"/>
<feBlend mode="normal" in="SourceGraphic" in2="BackgroundImageFix" result="shape"/>
<feGaussianBlur stdDeviation="1" result="effect1_foregroundBlur_13_19"/>
</filter>
<linearGradient id="paint0_linear_13_19" x1="205.927" y1="10.1522" x2="289.738" y2="250.835" gradientUnits="userSpaceOnUse">
<stop stop-color="#127FBF"/>
<stop offset="1" stop-color="#1992D4"/>
</linearGradient>
</defs>
</svg>
