<?xml version="1.0" encoding="UTF-8"?>
<svg id="Capa_2" data-name="Capa 2" xmlns="http://www.w3.org/2000/svg" viewBox="0 0 57.73 72.14">
  <defs>
    <style>
      .cls-1 {
        fill: #f2f0e3;
      }

      .cls-1, .cls-2 {
        stroke-width: 0px;
      }

      .cls-2 {
        fill: #c9702c;
      }
    </style>
  </defs>
  <g id="Dark_Version" data-name="Dark Version">
    <g>
      <path class="cls-1" d="M10.66.78c15.58,1.48,31.12,3.41,46.59,5.79l-.27-.48c-2.68,16.72-5.47,33.43-8.39,50.11-.84,4.8-1.69,9.6-2.54,14.4-.09.49.66.7.75.21,2.98-16.67,5.84-33.37,8.59-50.08.79-4.81,1.57-9.62,2.34-14.43.03-.19-.05-.44-.27-.48C41.92,3.43,26.31,1.49,10.66,0c-.5-.05-.5.73,0,.78h0Z"/>
      <g>
        <path class="cls-2" d="M11.7.87C7.05,22.02,3.38,43.38.69,64.86c-.06.47-.1,1,.18,1.38.27.36.76.47,1.2.55,14.4,2.74,28.98,4.53,43.62,5.35,2.58-21.21,7.4-42.54,9.98-63.75.07-.59.13-1.24-.2-1.74-.37-.56-1.11-.72-1.77-.84C40.67,3.53,25.27,2.1,12.07,1.3"/>
        <path class="cls-1" d="M10.27.5C7.42,17.22,4.72,33.97,2.17,50.74,1.44,55.56.72,60.39,0,65.22c-.04.27.1.47.38.49,15.35,1.41,30.65,3.27,45.89,5.58.49.07.7-.68.21-.75-15.31-2.32-30.68-4.19-46.1-5.61l.38.49C3.22,48.65,5.84,31.89,8.6,15.15c.79-4.82,1.6-9.63,2.42-14.44.08-.49-.67-.7-.75-.21h0Z"/>
        <path class="cls-1" d="M14.75,9.78c-.5.41-.87.99-.94,1.64s.24,1.21.76,1.54,1.17.28,1.6-.15c.4-.4.52-1.03.39-1.57-.16-.69-.7-1.22-1.21-1.68-.16-.14-.4-.15-.55,0-.14.14-.16.41,0,.55.36.32.71.64.92,1.07.03.07.06.15.09.25,0,.03.02.15.02.08,0,.05,0,.1,0,.15s0,.1,0,.15c0-.07,0,.04-.01.06-.01.05-.03.1-.04.14,0,.02-.01.03-.02.05.03-.07-.02.03-.02.04-.02.04-.04.07-.07.11-.04.05.04-.04,0,0-.01.01-.02.03-.04.04-.02.02-.03.03-.05.05.05-.04,0,0,0,0-.02.01-.04.02-.06.04-.06.04.02,0-.02.01-.04.02-.09.03-.13.04.06-.01-.06,0-.08,0-.01,0-.08,0,0,0-.02,0-.05,0-.07-.02-.02,0-.14-.05-.09-.02-.05-.02-.09-.05-.14-.07-.02-.01-.04-.03-.06-.04,0,0,.04.03,0,0-.09-.08-.14-.13-.19-.2-.1-.16-.14-.29-.13-.49,0-.21.08-.44.2-.64.13-.23.31-.41.52-.58.16-.13.14-.41,0-.55-.16-.16-.39-.13-.55,0h0Z"/>
        <path class="cls-1" d="M19.59,13.04c9.43,1.35,18.88,2.46,28.36,3.34.5.05.5-.73,0-.78-9.41-.87-18.8-1.97-28.16-3.31-.49-.07-.7.68-.21.75h0Z"/>
        <path class="cls-1" d="M13.99,20.72c-.72-.28-1.51.17-1.87.79-.41.71-.22,1.54.28,2.14.46.56,1.27,1,2.01.91.46-.05.83-.34.96-.79.11-.38.07-.82.05-1.21-.03-.48-.13-.98-.41-1.38s-.68-.66-1.18-.71c-.21-.02-.39.19-.39.39,0,.23.18.37.39.39.18.02.38.16.51.33.17.22.25.51.29.78.04.32.05.65.03.98,0,.21-.06.39-.24.44-.2.06-.45,0-.68-.09-.21-.09-.45-.24-.62-.41s-.31-.37-.38-.58c-.08-.24-.09-.42,0-.65.07-.2.25-.41.44-.52.1-.06.19-.09.28-.11,0,0,.15,0,.14,0,.02,0,.14.03.19.06.2.08.43-.08.48-.27.06-.22-.07-.4-.27-.48h0Z"/>
        <path class="cls-1" d="M17.91,24.24c9.19,1.02,18.35,2.21,27.5,3.58.49.07.7-.68.21-.75-9.21-1.38-18.45-2.58-27.7-3.61-.5-.06-.49.72,0,.78h0Z"/>
        <path class="cls-1" d="M12.62,30.97c-.58-.05-1.25-.03-1.7.39-.52.48-.44,1.35-.05,1.88s1.12.88,1.8.65c.63-.21,1.16-.81,1.13-1.5-.04-.78-.72-1.48-1.52-1.45-.2,0-.4.17-.39.39,0,.2.17.4.39.39.03,0,.07,0,.1,0,.02,0,.07.01,0,0,.06.01.11.02.16.04.07.02.02,0,0,0,.03.01.06.03.09.05.02.01.04.02.06.04.07.05-.03-.03.03.02.04.04.08.08.12.12.07.08-.02-.04.01.02.02.02.03.05.05.07.01.02.02.04.03.06,0,0,.05.11.02.03.02.05.04.11.05.16,0,.02.01.12,0,.03,0,.02,0,.05,0,.07,0,.03,0,.06,0,.09,0,.06.02-.08,0,.02-.01.06-.03.11-.05.16.02-.07,0-.01,0,0-.02.03-.04.07-.06.1-.02.02-.03.05-.05.07.04-.06,0,0,0,0-.04.04-.08.08-.12.12-.08.07.04-.02-.02.01-.02.02-.05.03-.07.05-.02.01-.04.02-.06.04-.01,0-.12.06-.08.04.05-.02-.05.02-.05.02-.02,0-.04.01-.07.02-.03,0-.07.02-.1.02.02,0,.08,0,0,0-.06,0-.11,0-.17,0-.08,0-.02,0,0,0-.04,0-.08-.02-.12-.03-.02,0-.16-.06-.08-.02-.05-.02-.1-.05-.15-.08-.02-.02-.05-.03-.07-.05-.05-.04.06.06-.02-.01-.05-.04-.09-.09-.13-.13-.01-.01-.06-.07-.02-.02-.01-.02-.03-.04-.04-.06-.03-.05-.06-.1-.09-.15,0,0-.04-.1-.02-.05s-.02-.05-.02-.05c-.02-.06-.03-.12-.04-.18s0,.09,0-.02c0-.03,0-.05,0-.08,0-.04,0-.08,0-.12,0,.02-.01.05,0-.02,0,.01.03-.11.02-.07-.01.04.03-.05.02-.05.01-.02.03-.04.04-.06.02-.02.01-.02-.02.02.01-.01.03-.03.04-.04.01-.01.03-.03.04-.04-.07.06,0,0,.01,0,.02-.02.05-.03.08-.04.02-.01.1-.04.02-.01.11-.04.22-.07.33-.08-.09.01-.01,0,.01,0,.04,0,.08,0,.12,0,.06,0,.11,0,.17,0,.13,0,.26,0,.39.02.2.02.4-.19.39-.39-.01-.23-.17-.37-.39-.39h0Z"/>
        <path class="cls-1" d="M16.58,33.86c9.57.96,19.1,2.23,28.59,3.8.49.08.7-.67.21-.75-9.55-1.59-19.16-2.87-28.79-3.83-.5-.05-.49.73,0,.78h0Z"/>
        <path class="cls-1" d="M11.38,41.15c-.48-.27-1.1-.25-1.56.05-.5.33-.71.9-.6,1.48.1.52.51.98,1.03,1.07.55.1,1.12-.11,1.44-.57.41-.58.2-1.39-.18-1.93-.12-.17-.35-.26-.53-.14-.16.11-.26.35-.14.53.07.1.13.2.18.3,0,.02.02.04.03.05.04.09-.03-.08,0,.02.02.07.04.13.06.2,0,.02.01.05.02.07,0,.03.03.08,0,0,.02.05,0,.12,0,.17,0,.02,0,.07,0,.08.02-.03.01-.07,0-.02,0,.03-.01.06-.02.08,0,.02-.01.04-.02.05-.02.04-.01.04,0-.01,0,.03-.05.09-.06.11,0,.01-.03.03-.03.05l.03-.04s-.02.02-.03.03c-.03.03-.08.06-.1.09.02-.04.06-.04.02-.02-.03.02-.05.03-.08.05-.02.01-.04.02-.06.03h-.02s-.03.02.03,0c-.03,0-.07.03-.11.04-.04.01-.09.02-.13.03.1-.03.05,0,.01,0-.02,0-.05,0-.07,0s-.05,0-.07,0c-.05,0-.07-.03.01,0-.04-.02-.09-.02-.13-.03-.01,0-.03-.01-.04-.01-.08-.03.08.04,0,0-.02-.01-.04-.02-.06-.03-.01,0-.03-.02-.04-.03-.03-.02-.03-.02.02.02-.02-.03-.06-.06-.09-.08-.02-.02-.03-.03-.05-.05-.06-.06.05.08,0,0-.02-.03-.04-.07-.06-.1,0-.02-.02-.05-.03-.06.02.06.03.07.01.03,0-.01-.01-.03-.02-.04-.01-.04-.02-.08-.03-.12,0-.02,0-.04-.01-.06v.06s0-.03,0-.05c0-.05,0-.09,0-.14,0-.02,0-.03,0-.05,0-.04,0-.03,0,.03,0-.02,0-.03,0-.05,0-.05.02-.09.04-.13.03-.08-.04.08,0,0,0-.01.01-.03.02-.04.01-.02.02-.04.04-.06v-.02s.03-.03,0,.02c.02,0,.08-.09.1-.1.01-.01.05-.03.05-.05-.05.04-.05.04-.02.02.01,0,.03-.02.04-.03.02-.01.12-.05.13-.07l-.05.02s.03-.01.05-.02c.03-.01.06-.02.09-.03.02,0,.05-.01.07-.02.02,0,.03,0,.05,0h-.06s.12,0,.17,0c.02,0,.05,0,.07,0,.08,0-.09-.02,0,0,.05.01.1.02.15.04h.02s.03.02-.03,0c0,.01.07.04.09.04.18.1.43.05.53-.14s.05-.42-.14-.53h0Z"/>
        <path class="cls-1" d="M15.19,43.91c9.05.35,18.04,1.54,26.88,3.54.49.11.7-.64.21-.75-8.9-2.02-17.96-3.21-27.08-3.57-.5-.02-.5.76,0,.78h0Z"/>
        <path class="cls-1" d="M9.55,52.23c-.52-.33-1.23-.26-1.72.09-.53.37-.84,1.03-.6,1.67s.82,1.06,1.49,1.1,1.21-.41,1.42-1.01c.11-.31.12-.65.04-.97-.08-.35-.29-.64-.58-.85-.16-.12-.44-.03-.53.14-.11.2-.04.4.14.53-.04-.03-.04-.04,0,0,.02.02.04.04.06.06.02.02.03.04.05.05.03.03-.03-.03-.03-.03,0,.01.02.03.03.05.03.04.05.08.07.12.04.08-.02-.06,0,0,0,.03.02.05.03.08.01.05.02.1.03.15.01.07,0-.08,0-.01,0,.03,0,.06,0,.09,0,.05,0,.09,0,.14,0,.02,0,.11,0,.04s0,.02,0,.04c-.01.05-.02.1-.04.15,0,.02-.02.04-.02.07-.01.04.02-.04.02-.04-.01.01-.02.04-.02.05-.02.04-.04.08-.07.12,0,0-.01.02-.02.03-.03.05.01-.02.02-.02-.02.01-.04.04-.05.06-.03.03-.09.06-.11.1,0,0,.07-.05.03-.03,0,0-.02.01-.03.02-.03.02-.05.03-.08.05-.01,0-.02,0-.03.02-.04.02.04-.02.03-.01,0,0-.06.02-.07.03-.03,0-.06.01-.09.02,0,0-.04,0-.04,0,0,0,.09,0,.03,0-.05,0-.11,0-.16,0-.02,0-.1,0-.04,0s-.04,0-.06-.01c-.05-.01-.1-.03-.15-.04-.09-.03.05.03-.01,0-.03-.01-.05-.03-.08-.04-.05-.03-.1-.06-.14-.09-.06-.04.05.05,0,0-.03-.02-.05-.04-.08-.07-.01-.01-.11-.1-.1-.11,0,0,.06.08.01.02,0-.01-.01-.02-.02-.03-.02-.02-.03-.05-.05-.08s-.03-.05-.04-.08c-.02-.04.02.03.01.04,0,0-.01-.03-.01-.04-.02-.06-.03-.12-.05-.17-.01-.04,0,.04,0,.04,0,0,0-.03,0-.04,0-.03,0-.05,0-.08,0,0,.01-.08,0-.09,0,0-.02.08,0,.04,0-.02,0-.03,0-.05,0-.03.05-.12.05-.15,0,0-.04.07-.02.04,0-.01.01-.02.02-.03.01-.03.03-.06.05-.08.01-.02.03-.04.04-.06.04-.06-.05.05,0,0,.04-.04.08-.08.12-.12,0,0,.02-.02.03-.02.06-.05,0,.01-.01,0,.01,0,.06-.04.07-.05.05-.03.1-.06.16-.09.01,0,.02,0,.03-.02.04-.02-.07.02-.03.01.03,0,.06-.02.09-.03.04-.01.14-.02.18-.04,0,0-.09,0-.04,0,.02,0,.03,0,.05,0,.03,0,.06,0,.08,0,.03,0,.06,0,.1,0,.06,0-.08-.02,0,0,.06.01.12.03.17.05.01,0,.05.01,0,0-.06-.02,0,0,.02.01.03.02.06.03.08.05.17.11.44.04.53-.14.1-.19.04-.41-.14-.53h0Z"/>
        <path class="cls-1" d="M13.42,54.95c9.43.78,18.79,2.17,28.04,4.15.49.1.7-.65.21-.75-9.32-2-18.75-3.39-28.24-4.18-.5-.04-.5.74,0,.78h0Z"/>
      </g>
    </g>
  </g>
</svg>