<?xml version="1.0" encoding="UTF-8"?>
<svg id="Capa_2" data-name="Capa 2" xmlns="http://www.w3.org/2000/svg" viewBox="0 0 74.16 76.79">
  <defs>
    <style>
      .cls-1 {
        fill: #f2f0e3;
      }

      .cls-1, .cls-2, .cls-3 {
        stroke-width: 0px;
      }

      .cls-2 {
        fill: #c9702c;
      }

      .cls-3 {
        fill: #efcf45;
      }
    </style>
  </defs>
  <g id="Dark_Version" data-name="Dark Version">
    <g>
      <path class="cls-2" d="M.76,6.8C3.9,3.14,8.8,1.38,13.6.97c4.8-.41,9.62.39,14.39,1.03,10.34,1.39,20.78,2.08,31.21,2.07,2.91,16.26,5.83,32.57,10.66,48.37,1.5,4.92,3.21,9.86,3.41,15-18.93-3.02-38.87-5.8-56.81.93-2.66,1-5.33,2.27-7.12,4.47C5,51.14,2.18,29.12.92,7.02"/>
      <g>
        <path class="cls-3" d="M53.63,21.49c-.51,2.28.19,4.79,1.79,6.48.22.23.46.45.64.72.35.52.43,1.16.51,1.78.61,4.74,1.22,9.48,1.82,14.22.03.24.07.5.2.71s.59.35.83.29c.42-.12.74-1.01.64-1.44-.91-4.19-1.39-8.37-2.09-12.6-.16-.98.11-2.22.03-3.21-.03-.34-.19-.51-.06-.82.11-.25.28-.47.45-.69.71-.92.66-2.17.6-3.33-.07-1.15-.93-2.82-.84-3.97-.06.98-.32,2.86-.37,3.85-.02.31-.19.72-.48.63-.1-.03-.17-.13-.23-.22-.64-.93-1.16-1.94-1.56-3.01.1,1.04-.04,2.1-.38,3.09-.04.11-.09.23-.2.28-.13.06-.27-.01-.38-.09-.79-.53-1.18-1.58-.93-2.5"/>
        <path class="cls-3" d="M33.41,17.54l-2.11.66c-.79.25-1.6.5-2.24,1.02-.53.42-.92,1-1.29,1.56-.84,1.25-1.68,2.51-2.27,3.89-1.21,2.81-1.33,6.03-.58,8.99.23.91.54,1.82,1.05,2.61.52.82,1.24,1.5,1.94,2.17,1.8,1.71,3.63,3.44,5.81,4.62,2.02,1.09,4.28,1.68,6.56,1.98,1.1.14,2.22.22,3.31.04,1.41-.23,2.71-.88,3.96-1.56.9-.49,1.8-1,2.57-1.68,1.62-1.43,2.55-3.53,2.82-5.67s-.07-4.32-.69-6.39c-.85-2.81-2.22-5.47-4.03-7.79-.6-.76-1.24-1.5-2.03-2.06-.77-.55-1.64-.92-2.51-1.27-1.81-.72-3.67-1.36-5.59-1.62-1.93-.26-3.95-.12-5.73.67"/>
        <path class="cls-1" d="M.76,6.71C7.22-1.32,19.14.83,28.11,1.52c10.53.8,21.06,1.61,31.59,2.41l-.38-.29c3.62,16.6,7.24,33.19,10.86,49.79,1.04,4.78,2.08,9.55,3.13,14.33l.38-.49c-18.53-2.31-37.97-4.91-56.43-.69-3.69.84-7.83,2.9-8.01,7.2-.02.5.76.5.78,0,.19-4.57,5.2-6.03,8.89-6.75,4.44-.87,8.94-1.38,13.45-1.63,8.82-.48,17.66.05,26.44.93,4.97.5,9.92,1.11,14.87,1.73.27.03.42-.27.38-.49-3.62-16.6-7.24-33.19-10.86-49.79-1.04-4.78-2.08-9.55-3.13-14.33-.04-.18-.21-.27-.38-.29-8.62-.66-17.24-1.32-25.87-1.97-4.21-.32-8.42-.66-12.63-.96-3.92-.28-7.94-.43-11.8.49C5.86,1.54,2.51,3.29.21,6.16c-.31.39.24.94.55.55h0Z"/>
        <path class="cls-1" d="M0,6.7c.86,9.16,1.72,18.33,2.58,27.49.4,4.22.92,8.38,1.8,12.53.93,4.37,1.61,8.71,2.03,13.16.45,4.76.9,9.53,2.34,14.11.15.48.9.27.75-.21-2.57-8.13-2.17-16.86-3.92-25.17-.93-4.4-1.68-8.76-2.11-13.24s-.83-8.87-1.25-13.31c-.48-5.12-.96-10.24-1.44-15.36-.05-.49-.83-.5-.78,0H0Z"/>
        <path class="cls-1" d="M6.51,2.11c2.42,16.76,4.84,33.52,7.26,50.28.69,4.76,1.38,9.53,2.06,14.29.07.49.82.28.75-.21-2.42-16.76-4.84-33.52-7.26-50.28-.69-4.76-1.38-9.53-2.06-14.29-.07-.49-.82-.28-.75.21h0Z"/>
        <path class="cls-1" d="M8.73,74.21c2.73,2.17,6.4,2.24,9.73,2.42,4.18.23,8.37.19,12.55,0,8.47-.39,16.9-1.38,25.36-2,4.83-.36,9.67-.58,14.51-.52.5,0,.5-.77,0-.78-16.24-.21-32.32,2.95-48.56,2.66-2.24-.04-4.48-.14-6.71-.34s-4.52-.56-6.33-1.99c-.39-.31-.94.24-.55.55h0Z"/>
        <path class="cls-1" d="M73.45,67.69c-.85,1.92-1.69,3.83-2.54,5.75-.2.45.47.85.67.39.85-1.92,1.69-3.83,2.54-5.75.2-.45-.47-.85-.67-.39h0Z"/>
        <path class="cls-1" d="M12.2,69.57c10.23.6,20.48.72,30.72.3,5.08-.21,10.15-.55,15.21-1.03,2.48-.24,4.97-.56,7.47-.49s5.03.45,7.57.25c.5-.04.5-.82,0-.78-2.53.21-5.04-.18-7.57-.25s-4.82.23-7.23.46c-5.14.49-10.29.84-15.45,1.05-10.24.42-20.49.3-30.72-.3-.5-.03-.5.75,0,.78h0Z"/>
        <path class="cls-1" d="M10.38,72.3c20.42.82,40.87.74,61.29-.22.5-.02.5-.8,0-.78-20.41.96-40.87,1.04-61.29.22-.5-.02-.5.76,0,.78h0Z"/>
        <path class="cls-3" d="M19.55,28.41c-1.13-1.89-2.53-2.54-3.21-4.63-.15-.46.2-2.3.27-2.78.08-.6.47-1.1.84-1.57.09-.12.19-.24.33-.28.11-.04.56-.47.68-.44,1.51.35,3,2.05,3.36,3.55.37,1.51-.6,3.26-1.05,4.75-.13.44-.28.87-.36,1.32-.13.81-.02,1.64.14,2.45.2,1.01.48,2,.75,3,1.04,3.88,1.93,7.84,1.89,11.85,0,.31-.03.66-.28.85-.25.2-.63.12-.87-.09s-.36-.52-.46-.82c-.3-.94-.44-1.92-.57-2.89-.65-4.67-1.3-9.37-1.16-14.08"/>
        <g>
          <path class="cls-1" d="M19.76,28.73c-.67-1.34-1.8-2.36-2.55-3.65s-1.01-2.79-.58-4.19c.19-.62.52-1.26,1.03-1.67.73-.59,1.44-.23,2.01.38,1.02,1.09,1.75,2.53,1.95,4.01.25,1.81-.46,3.42-1.28,4.98-.24.44.44.84.67.39.85-1.59,1.59-3.26,1.42-5.11-.16-1.75-.94-3.4-2.1-4.71-.52-.59-1.2-1.13-2.04-1.05-.75.08-1.34.59-1.76,1.19-.93,1.32-1.08,3.08-.66,4.61.57,2.05,2.29,3.35,3.21,5.21.22.45.89.06.67-.39h0Z"/>
          <path class="cls-1" d="M19.08,29.16c.54,3.76.62,7.56.94,11.34.14,1.57.24,3.22.61,4.76.23.98.96,2.11,2.12,2.01,1.32-.11,1.05-1.62.93-2.53-.22-1.64-.44-3.28-.69-4.92-.55-3.67-1.19-7.33-1.96-10.97-.1-.49-.85-.28-.75.21.61,2.9,1.15,5.82,1.62,8.75.23,1.42.44,2.85.64,4.27.12.83.23,1.65.34,2.48.05.41.44,2.56-.8,1.72-.57-.38-.68-1.11-.79-1.73-.14-.83-.25-1.67-.34-2.5-.16-1.44-.26-2.89-.35-4.34-.19-2.93-.35-5.87-.77-8.78-.07-.49-.82-.28-.75.21h0Z"/>
          <path class="cls-1" d="M52.64,18.15c-.11,2.12.01,4.24.39,6.33.15.81.32,1.66.7,2.4.45.89,1.36,1.39,1.74,2.28.46,1.09.38,2.51.49,3.69s.22,2.29.33,3.43c.24,2.38.51,4.75.81,7.12.18,1.43-.07,2.78,1.57,3.06,1.04.18,2.03.18,1.96-1.03-.13-2.3-.75-4.67-1.12-6.94s-.72-4.47-1.08-6.7c-.25-1.54-.63-2.94.23-4.35.48-.79.67-1.45.63-2.39-.09-2.41-.52-4.85-.94-7.22-.09-.49-.84-.28-.75.21.24,1.36.45,2.73.62,4.1.14,1.13.38,2.36.29,3.5s-1.01,1.81-1.17,2.91c-.13.91.07,1.84.22,2.73.41,2.55.82,5.1,1.24,7.66.18,1.12.36,2.23.54,3.35.1.64.21,1.28.31,1.91.05.32.1.64.15.96.13.56-.05.76-.55.59-1.58.27-1.43-2.78-1.55-3.82-.14-1.14-.27-2.29-.39-3.44-.29-2.61-.54-5.23-.76-7.85-.06-.75-.03-1.54-.45-2.19-.62-.97-1.55-1.41-1.94-2.59-.81-2.41-.87-5.19-.74-7.71.03-.5-.75-.5-.78,0h0Z"/>
          <path class="cls-1" d="M52.73,18.27c.16,1.12.4,2.23.71,3.32.16.55.34,1.1.54,1.65.17.46.35.97.9,1.07s.77-.32.75-.79c-.03-.6-.07-1.19-.1-1.79-.07-1.21-.14-2.43-.21-3.64l-.76.1c.39,1.1.79,2.2,1.18,3.31.19.54.38,1.09.58,1.62.16.42.36.77.8.94.15.06.37-.04.44-.18.2-.4.24-.82.27-1.26.04-.54.08-1.07.12-1.61.08-1.05.16-2.1.24-3.15.04-.5-.74-.5-.78,0-.07.97-.15,1.94-.22,2.92-.04.48-.07.95-.11,1.43-.03.41,0,.91-.19,1.28l.44-.18c-.13-.05-.2-.24-.24-.36-.09-.23-.17-.47-.25-.71l-.5-1.4c-.34-.95-.68-1.91-1.02-2.86-.14-.39-.79-.36-.76.1.06.99.12,1.99.17,2.98l.09,1.49.04.78c0,.05,0,.3.02.31l.15-.11s-.06-.03-.08-.06c-.39-.84-.65-1.75-.89-2.65s-.43-1.84-.56-2.77c-.03-.21-.29-.32-.48-.27-.22.06-.3.27-.27.48h0Z"/>
          <path class="cls-1" d="M31.7,19.84c3.05-.88,6.25-1.22,9.36-.38s5.41,2.74,7.41,5.13,3.06,5.87,3.32,8.9c.23,2.7-.59,5.48-2.41,7.51-4.34,4.84-11.96,3.71-17.04.75-3.35-1.95-5.57-6.47-6.3-10.15-.43-2.18-.36-4.52.54-6.57,1.04-2.36,3.04-3.99,5.3-5.12.45-.22.06-.89-.39-.67-4.37,2.16-6.92,6.19-6.42,11.12.42,4.16,2.66,8.97,6.06,11.53,1.23.92,2.74,1.5,4.18,2.04,1.71.64,3.49,1.09,5.32,1.17,2.93.13,5.98-.64,8.26-2.54,4.88-4.05,4.22-11.01,1.68-16.2-1.54-3.14-4.68-5.93-7.92-7.18-3.61-1.4-7.51-1.13-11.17-.07-.48.14-.28.89.21.75h0Z"/>
          <path class="cls-1" d="M30.83,18.17c3.52-1.02,7.21-1.38,10.77-.34,3.34.98,5.94,3.16,8.11,5.82,1.2,1.46,1.91,3.1,2.45,4.89s1.11,3.65,1.16,5.54c.09,2.92-.93,5.84-2.94,7.98-4.89,5.18-13.41,3.9-18.96.54-3.74-2.26-6.21-7.36-6.97-11.52-.43-2.36-.32-4.87.65-7.09,1.16-2.65,3.4-4.49,5.94-5.74.45-.22.06-.89-.39-.67-4.72,2.33-7.58,6.65-7.17,11.99.36,4.68,2.8,9.9,6.44,12.93,1.32,1.1,2.99,1.75,4.58,2.37,1.79.7,3.64,1.22,5.56,1.4,3.32.3,6.86-.42,9.55-2.46,5.75-4.36,5.12-12.07,2.4-18-1.6-3.5-5.06-6.7-8.6-8.16-4.11-1.69-8.58-1.44-12.77-.22-.48.14-.28.89.21.75h0Z"/>
        </g>
      </g>
    </g>
  </g>
</svg>