<svg width="58" height="73" viewBox="0 0 58 73" fill="none" xmlns="http://www.w3.org/2000/svg">
<path d="M10.6599 0.779984C26.2399 2.25998 41.7799 4.18998 57.2499 6.56998L56.9799 6.08998C54.2999 22.81 51.5099 39.52 48.5899 56.2C47.7499 61 46.8999 65.8 46.0499 70.6C45.9599 71.09 46.7099 71.3 46.7999 70.81C49.7799 54.14 52.6399 37.44 55.3899 20.73C56.1799 15.92 56.9599 11.11 57.7299 6.29998C57.7599 6.10998 57.6799 5.85998 57.4599 5.81998C41.9199 3.42998 26.3099 1.48998 10.6599 -1.57503e-05C10.1599 -0.0500158 10.1599 0.729984 10.6599 0.779984Z" fill="#F2F0E3"/>
<path d="M11.6998 0.869934C7.04977 22.0199 3.37977 43.3799 0.689771 64.8599C0.629771 65.3299 0.589771 65.8599 0.869771 66.2399C1.13977 66.5999 1.62977 66.7099 2.06977 66.7899C16.4698 69.5299 31.0498 71.3199 45.6898 72.1399C48.2698 50.9299 53.0898 29.5999 55.6698 8.38993C55.7398 7.79993 55.7998 7.14993 55.4698 6.64993C55.0998 6.08993 54.3598 5.92993 53.6998 5.80993C40.6698 3.52993 25.2698 2.09993 12.0698 1.29993" fill="#7B8131"/>
<path d="M10.2699 0.49996C7.41989 17.22 4.71989 33.97 2.16989 50.74C1.43989 55.56 0.719887 60.39 -0.000113359 65.22C-0.0401134 65.49 0.0998866 65.69 0.379887 65.71C15.7299 67.12 31.0299 68.98 46.2699 71.29C46.7599 71.36 46.9699 70.61 46.4799 70.54C31.1699 68.22 15.7999 66.35 0.379887 64.93L0.759887 65.42C3.21989 48.65 5.83989 31.89 8.59989 15.15C9.38989 10.33 10.1999 5.51996 11.0199 0.70996C11.0999 0.21996 10.3499 0.00996038 10.2699 0.49996Z" fill="#F2F0E3"/>
<path d="M14.7499 9.77995C14.2499 10.19 13.8799 10.77 13.8099 11.42C13.7399 12.07 14.0499 12.63 14.5699 12.96C15.0899 13.29 15.7399 13.24 16.1699 12.81C16.5699 12.41 16.6899 11.78 16.5599 11.24C16.3999 10.55 15.8599 10.02 15.3499 9.55995C15.1899 9.41995 14.9499 9.40995 14.7999 9.55995C14.6599 9.69995 14.6399 9.96995 14.7999 10.11C15.1599 10.43 15.5099 10.75 15.7199 11.18C15.7499 11.25 15.7799 11.33 15.8099 11.43C15.8099 11.46 15.8299 11.58 15.8299 11.51C15.8299 11.56 15.8299 11.61 15.8299 11.66C15.8299 11.71 15.8299 11.76 15.8299 11.81C15.8299 11.74 15.8299 11.85 15.8199 11.87C15.8099 11.92 15.7899 11.97 15.7799 12.01C15.7799 12.03 15.7699 12.04 15.7599 12.06C15.7899 11.99 15.7399 12.09 15.7399 12.1C15.7199 12.14 15.6999 12.17 15.6699 12.21C15.7099 12.17 15.6299 12.26 15.6699 12.21C15.6599 12.22 15.6499 12.24 15.6299 12.25C15.6099 12.27 15.5999 12.28 15.5799 12.3C15.5599 12.31 15.5399 12.32 15.5199 12.34C15.4599 12.38 15.5399 12.34 15.4999 12.35C15.4599 12.37 15.4099 12.38 15.3699 12.39C15.4299 12.38 15.3099 12.39 15.2899 12.39C15.2799 12.39 15.2099 12.39 15.2899 12.39C15.2699 12.39 15.2399 12.39 15.2199 12.37C15.1999 12.37 15.0799 12.32 15.1299 12.35C15.0799 12.33 15.0399 12.3 14.9899 12.28C14.9699 12.27 14.9499 12.25 14.9299 12.24C14.8399 12.16 14.7899 12.11 14.7399 12.04C14.6399 11.88 14.5999 11.75 14.6099 11.55C14.6099 11.34 14.6899 11.11 14.8099 10.91C14.9399 10.68 15.1199 10.5 15.3299 10.33C15.4899 10.2 15.4699 9.91995 15.3299 9.77995C15.1699 9.61995 14.9399 9.64995 14.7799 9.77995H14.7499Z" fill="#F2F0E3"/>
<path d="M19.5899 13.0399C29.0199 14.3899 38.4699 15.4999 47.9499 16.3799C48.4499 16.4299 48.4499 15.6499 47.9499 15.5999C38.5399 14.7299 29.1499 13.6299 19.7899 12.2899C19.2999 12.2199 19.0899 12.9699 19.5799 13.0399H19.5899Z" fill="#F2F0E3"/>
<path d="M13.9899 20.72C13.2699 20.44 12.4799 20.89 12.1199 21.51C11.7099 22.22 11.8999 23.05 12.3999 23.65C12.8599 24.21 13.6699 24.65 14.4099 24.56C14.8699 24.51 15.2399 24.22 15.3699 23.77C15.4799 23.39 15.4399 22.95 15.4199 22.56C15.3899 22.08 15.2899 21.58 15.0099 21.18C14.7299 20.78 14.3299 20.52 13.8299 20.47C13.6199 20.45 13.4399 20.66 13.4399 20.86C13.4399 21.09 13.6199 21.23 13.8299 21.25C14.0099 21.27 14.2099 21.41 14.3399 21.58C14.5099 21.8 14.5899 22.09 14.6299 22.36C14.6699 22.68 14.6799 23.01 14.6599 23.34C14.6599 23.55 14.5999 23.73 14.4199 23.78C14.2199 23.84 13.9699 23.78 13.7399 23.69C13.5299 23.6 13.2899 23.45 13.1199 23.28C12.9499 23.11 12.8099 22.91 12.7399 22.7C12.6599 22.46 12.6499 22.28 12.7399 22.05C12.8099 21.85 12.9899 21.64 13.1799 21.53C13.2799 21.47 13.3699 21.44 13.4599 21.42C13.4599 21.42 13.6099 21.42 13.5999 21.42C13.6199 21.42 13.7399 21.45 13.7899 21.48C13.9899 21.56 14.2199 21.4 14.2699 21.21C14.3299 20.99 14.1999 20.81 13.9999 20.73L13.9899 20.72Z" fill="#F2F0E3"/>
<path d="M17.9098 24.24C27.0998 25.26 36.2598 26.45 45.4098 27.82C45.8998 27.89 46.1098 27.14 45.6198 27.07C36.4098 25.69 27.1698 24.49 17.9198 23.46C17.4198 23.4 17.4298 24.18 17.9198 24.24H17.9098Z" fill="#F2F0E3"/>
<path d="M12.6198 30.97C12.0398 30.92 11.3698 30.94 10.9198 31.36C10.3998 31.84 10.4798 32.71 10.8698 33.24C11.2598 33.77 11.9898 34.12 12.6698 33.89C13.2998 33.68 13.8298 33.08 13.7998 32.39C13.7598 31.61 13.0798 30.91 12.2798 30.94C12.0798 30.94 11.8798 31.11 11.8898 31.33C11.8898 31.53 12.0598 31.73 12.2798 31.72C12.3098 31.72 12.3498 31.72 12.3798 31.72C12.4498 31.73 12.3998 31.72 12.3798 31.72C12.4398 31.73 12.4898 31.74 12.5398 31.76C12.6098 31.78 12.5598 31.76 12.5398 31.76C12.5698 31.77 12.5998 31.79 12.6298 31.81C12.6498 31.82 12.6698 31.83 12.6898 31.85C12.7598 31.9 12.6598 31.82 12.7198 31.87C12.7598 31.91 12.7998 31.95 12.8398 31.99C12.9098 32.07 12.8198 31.95 12.8498 32.01C12.8698 32.03 12.8798 32.06 12.8998 32.08C12.9098 32.1 12.9198 32.12 12.9298 32.14C12.9298 32.14 12.9798 32.25 12.9498 32.17C12.9698 32.22 12.9898 32.28 12.9998 32.33C12.9998 32.35 13.0098 32.45 12.9998 32.36C12.9998 32.38 12.9998 32.41 12.9998 32.43C12.9998 32.46 12.9998 32.49 12.9998 32.52C12.9998 32.58 13.0198 32.44 12.9998 32.54C12.9898 32.6 12.9698 32.65 12.9498 32.7C12.9698 32.63 12.9498 32.69 12.9498 32.7C12.9298 32.73 12.9098 32.77 12.8898 32.8C12.8698 32.82 12.8598 32.85 12.8398 32.87C12.7998 32.91 12.7598 32.95 12.7198 32.99C12.6398 33.06 12.7598 32.97 12.6998 33C12.6798 33.02 12.6498 33.03 12.6298 33.05C12.6098 33.06 12.5898 33.07 12.5698 33.09C12.5598 33.09 12.4498 33.15 12.4898 33.13C12.5398 33.11 12.4398 33.15 12.4398 33.15C12.4198 33.15 12.3998 33.16 12.3698 33.17C12.3398 33.17 12.2998 33.19 12.2698 33.19C12.3498 33.19 12.2898 33.19 12.2698 33.19C12.2098 33.19 12.1598 33.19 12.0998 33.19C12.0798 33.19 12.0198 33.19 12.0998 33.19C12.0598 33.19 12.0198 33.17 11.9798 33.16C11.9598 33.16 11.8198 33.1 11.8998 33.14C11.8498 33.12 11.7998 33.09 11.7498 33.06C11.7298 33.04 11.6998 33.03 11.6798 33.01C11.6298 32.97 11.7398 33.07 11.6598 33C11.6098 32.96 11.5698 32.91 11.5298 32.87C11.5198 32.86 11.4698 32.8 11.5098 32.85C11.4998 32.83 11.4798 32.81 11.4698 32.79C11.4398 32.74 11.4098 32.69 11.3798 32.64C11.3798 32.64 11.3398 32.54 11.3598 32.59C11.3798 32.64 11.3398 32.54 11.3398 32.54C11.3198 32.48 11.3098 32.42 11.2998 32.36C11.2898 32.3 11.2998 32.45 11.2998 32.34C11.2998 32.31 11.2998 32.29 11.2998 32.26C11.2998 32.22 11.2998 32.18 11.2998 32.14C11.2998 32.16 11.2898 32.19 11.2998 32.12C11.2998 32.13 11.3298 32.01 11.3198 32.05C11.3098 32.09 11.3498 32 11.3398 32C11.3498 31.98 11.3698 31.96 11.3798 31.94C11.3998 31.92 11.3898 31.92 11.3598 31.96C11.3698 31.95 11.3898 31.93 11.3998 31.92C11.4098 31.91 11.4298 31.89 11.4398 31.88C11.3698 31.94 11.4398 31.88 11.4498 31.88C11.4698 31.86 11.4998 31.85 11.5298 31.84C11.5498 31.83 11.6298 31.8 11.5498 31.83C11.6598 31.79 11.7698 31.76 11.8798 31.75C11.7898 31.76 11.8698 31.75 11.8898 31.75C11.9298 31.75 11.9698 31.75 12.0098 31.75C12.0698 31.75 12.1198 31.75 12.1798 31.75C12.3098 31.75 12.4398 31.75 12.5698 31.77C12.7698 31.79 12.9698 31.58 12.9598 31.38C12.9498 31.15 12.7898 31.01 12.5698 30.99L12.6198 30.97Z" fill="#F2F0E3"/>
<path d="M16.58 33.8599C26.15 34.8199 35.68 36.0899 45.17 37.6599C45.66 37.7399 45.87 36.9899 45.38 36.9099C35.83 35.3199 26.22 34.0399 16.59 33.0799C16.09 33.0299 16.1 33.8099 16.59 33.8599H16.58Z" fill="#F2F0E3"/>
<path d="M11.3799 41.1499C10.8999 40.8799 10.2799 40.8999 9.81992 41.1999C9.31992 41.5299 9.10992 42.0999 9.21992 42.6799C9.31992 43.1999 9.72992 43.6599 10.2499 43.7499C10.7999 43.8499 11.3699 43.6399 11.6899 43.1799C12.0999 42.5999 11.8899 41.7899 11.5099 41.2499C11.3899 41.0799 11.1599 40.9899 10.9799 41.1099C10.8199 41.2199 10.7199 41.4599 10.8399 41.6399C10.9099 41.7399 10.9699 41.8399 11.0199 41.9399C11.0199 41.9599 11.0399 41.9799 11.0499 41.9899C11.0899 42.0799 11.0199 41.9099 11.0499 42.0099C11.0699 42.0799 11.0899 42.1399 11.1099 42.2099C11.1099 42.2299 11.1199 42.2599 11.1299 42.2799C11.1599 42.3599 11.1299 42.3099 11.1299 42.2799C11.1499 42.3299 11.1299 42.3999 11.1299 42.4499C11.1299 42.4699 11.1299 42.5199 11.1299 42.5299C11.1499 42.4999 11.1399 42.4599 11.1299 42.5099C11.1299 42.5399 11.1199 42.5699 11.1099 42.5899C11.1099 42.6099 11.0999 42.6299 11.0899 42.6399C11.0699 42.6799 11.0799 42.6799 11.0899 42.6299C11.0899 42.6599 11.0399 42.7199 11.0299 42.7399C11.0299 42.7499 10.9999 42.7699 10.9999 42.7899L11.0299 42.7499C11.0299 42.7499 11.0099 42.7699 10.9999 42.7799C10.9699 42.8099 10.9199 42.8399 10.8999 42.8699C10.9199 42.8299 10.9599 42.8299 10.9199 42.8499C10.8899 42.8699 10.8699 42.8799 10.8399 42.8999C10.8199 42.9099 10.7999 42.9199 10.7799 42.9299H10.7599C10.7599 42.9299 10.7299 42.9499 10.7899 42.9299C10.7599 42.9299 10.7199 42.9599 10.6799 42.9699C10.6399 42.9799 10.5899 42.9899 10.5499 42.9999C10.6499 42.9699 10.5999 42.9999 10.5599 42.9999C10.5399 42.9999 10.5099 42.9999 10.4899 42.9999C10.4699 42.9999 10.4399 42.9999 10.4199 42.9999C10.3699 42.9999 10.3499 42.9699 10.4299 42.9999C10.3899 42.9799 10.3399 42.9799 10.2999 42.9699C10.2899 42.9699 10.2699 42.9599 10.2599 42.9599C10.3399 42.9999 10.1799 42.9299 10.2599 42.9599C10.2399 42.9499 10.2199 42.9399 10.1999 42.9299C10.1899 42.9299 10.1699 42.9099 10.1599 42.8999C10.1299 42.8799 10.1299 42.8799 10.1799 42.9199C10.1599 42.8899 10.1199 42.8599 10.0899 42.8399C10.0699 42.8199 10.0599 42.8099 10.0399 42.7899C10.0899 42.8699 9.97992 42.7299 10.0399 42.7899C10.0199 42.7599 9.99992 42.7199 9.97992 42.6899C9.97992 42.6699 9.95992 42.6399 9.94992 42.6299C9.96992 42.6899 9.97992 42.6999 9.95992 42.6599C9.95992 42.6499 9.94992 42.6299 9.93992 42.6199C9.92992 42.5799 9.91992 42.5399 9.90992 42.4999C9.90992 42.4799 9.90992 42.4599 9.89992 42.4399V42.4999C9.89992 42.4999 9.89992 42.4699 9.89992 42.4499C9.89992 42.3999 9.89992 42.3599 9.89992 42.3099C9.89992 42.2899 9.89992 42.2799 9.89992 42.2599C9.89992 42.2199 9.89992 42.2299 9.89992 42.2899C9.89992 42.2699 9.89992 42.2599 9.89992 42.2399C9.89992 42.1899 9.91992 42.1499 9.93992 42.1099C9.96992 42.0299 9.89992 42.1899 9.93992 42.1099C9.93992 42.0999 9.94992 42.0799 9.95992 42.0699C9.96992 42.0499 9.97992 42.0299 9.99992 42.0099V41.9899C9.99992 41.9899 10.0299 41.9599 9.99992 42.0099C10.0199 42.0099 10.0799 41.9199 10.0999 41.9099C10.1099 41.8999 10.1499 41.8799 10.1499 41.8599C10.0999 41.8999 10.0999 41.8999 10.1299 41.8799C10.1399 41.8799 10.1599 41.8599 10.1699 41.8499C10.1899 41.8399 10.2899 41.7999 10.2999 41.7799L10.2499 41.7999C10.2499 41.7999 10.2799 41.7899 10.2999 41.7799C10.3299 41.7699 10.3599 41.7599 10.3899 41.7499C10.4099 41.7499 10.4399 41.7399 10.4599 41.7299C10.4799 41.7299 10.4899 41.7299 10.5099 41.7299H10.4499C10.4499 41.7299 10.5699 41.7299 10.6199 41.7299C10.6399 41.7299 10.6699 41.7299 10.6899 41.7299C10.7699 41.7299 10.5999 41.7099 10.6899 41.7299C10.7399 41.7399 10.7899 41.7499 10.8399 41.7699H10.8599C10.8599 41.7699 10.8899 41.7899 10.8299 41.7699C10.8299 41.7799 10.8999 41.8099 10.9199 41.8099C11.0999 41.9099 11.3499 41.8599 11.4499 41.6699C11.5499 41.4799 11.4999 41.2499 11.3099 41.1399L11.3799 41.1499Z" fill="#F2F0E3"/>
<path d="M15.19 43.91C24.24 44.26 33.2299 45.45 42.07 47.45C42.56 47.56 42.7699 46.81 42.2799 46.7C33.3799 44.68 24.32 43.49 15.2 43.13C14.7 43.11 14.7 43.89 15.2 43.91H15.19Z" fill="#F2F0E3"/>
<path d="M9.54982 52.23C9.02982 51.9 8.31982 51.97 7.82982 52.32C7.29982 52.69 6.98982 53.35 7.22982 53.99C7.46982 54.63 8.04982 55.05 8.71982 55.09C9.38982 55.13 9.92982 54.68 10.1398 54.08C10.2498 53.77 10.2598 53.43 10.1798 53.11C10.0998 52.76 9.88982 52.47 9.59982 52.26C9.43982 52.14 9.15982 52.23 9.06982 52.4C8.95982 52.6 9.02982 52.8 9.20982 52.93C9.16982 52.9 9.16982 52.89 9.20982 52.93C9.22982 52.95 9.24982 52.97 9.26982 52.99C9.28982 53.01 9.29982 53.03 9.31982 53.04C9.34982 53.07 9.28982 53.01 9.28982 53.01C9.28982 53.02 9.30982 53.04 9.31982 53.06C9.34982 53.1 9.36982 53.14 9.38982 53.18C9.42982 53.26 9.36982 53.12 9.38982 53.18C9.38982 53.21 9.40982 53.23 9.41982 53.26C9.42982 53.31 9.43982 53.36 9.44982 53.41C9.45982 53.48 9.44982 53.33 9.44982 53.4C9.44982 53.43 9.44982 53.46 9.44982 53.49C9.44982 53.54 9.44982 53.58 9.44982 53.63C9.44982 53.65 9.44982 53.74 9.44982 53.67C9.44982 53.6 9.44982 53.69 9.44982 53.71C9.43982 53.76 9.42982 53.81 9.40982 53.86C9.40982 53.88 9.38982 53.9 9.38982 53.93C9.37982 53.97 9.40982 53.89 9.40982 53.89C9.39982 53.9 9.38982 53.93 9.38982 53.94C9.36982 53.98 9.34982 54.02 9.31982 54.06C9.31982 54.06 9.30982 54.08 9.29982 54.09C9.26982 54.14 9.30982 54.07 9.31982 54.07C9.29982 54.08 9.27982 54.11 9.26982 54.13C9.23982 54.16 9.17982 54.19 9.15982 54.23C9.15982 54.23 9.22982 54.18 9.18982 54.2C9.18982 54.2 9.16982 54.21 9.15982 54.22C9.12982 54.24 9.10982 54.25 9.07982 54.27C9.06982 54.27 9.05982 54.27 9.04982 54.29C9.00982 54.31 9.08982 54.27 9.07982 54.28C9.07982 54.28 9.01982 54.3 9.00982 54.31C8.97982 54.31 8.94982 54.32 8.91982 54.33H8.87982C8.87982 54.33 8.96982 54.33 8.90982 54.33C8.85982 54.33 8.79982 54.33 8.74982 54.33C8.72982 54.33 8.64982 54.33 8.70982 54.33C8.76982 54.33 8.66982 54.33 8.64982 54.32C8.59982 54.31 8.54982 54.29 8.49982 54.28C8.40982 54.25 8.54982 54.31 8.48982 54.28C8.45982 54.27 8.43982 54.25 8.40982 54.24C8.35982 54.21 8.30982 54.18 8.26982 54.15C8.31982 54.2 8.20982 54.11 8.26982 54.15C8.23982 54.13 8.21982 54.11 8.18982 54.08C8.17982 54.07 8.07982 53.98 8.08982 53.97C8.08982 53.97 8.14982 54.05 8.09982 53.99C8.09982 53.98 8.08982 53.97 8.07982 53.96C8.05982 53.94 8.04982 53.91 8.02982 53.88C8.00982 53.85 7.99982 53.83 7.98982 53.8C7.96982 53.76 8.00982 53.83 7.99982 53.84C7.99982 53.84 7.98982 53.81 7.98982 53.8C7.96982 53.74 7.95982 53.68 7.93982 53.63C7.92982 53.59 7.93982 53.67 7.93982 53.67C7.93982 53.67 7.93982 53.64 7.93982 53.63C7.93982 53.6 7.93982 53.58 7.93982 53.55C7.93982 53.55 7.94982 53.47 7.93982 53.46C7.93982 53.46 7.91982 53.54 7.93982 53.5C7.93982 53.48 7.93982 53.47 7.93982 53.45C7.93982 53.42 7.98982 53.33 7.98982 53.3C7.98982 53.3 7.94982 53.37 7.96982 53.34C7.96982 53.33 7.97982 53.32 7.98982 53.31C7.99982 53.28 8.01982 53.25 8.03982 53.23C8.04982 53.21 8.06982 53.19 8.07982 53.17C8.11982 53.11 8.02982 53.22 8.07982 53.17C8.11982 53.13 8.15982 53.09 8.19982 53.05C8.19982 53.05 8.21982 53.03 8.22982 53.03C8.28982 52.98 8.22982 53.04 8.21982 53.03C8.22982 53.03 8.27982 52.99 8.28982 52.98C8.33982 52.95 8.38982 52.92 8.44982 52.89C8.45982 52.89 8.46982 52.89 8.47982 52.87C8.51982 52.85 8.40982 52.89 8.44982 52.88C8.47982 52.88 8.50982 52.86 8.53982 52.85C8.57982 52.84 8.67982 52.83 8.71982 52.81C8.71982 52.81 8.62982 52.81 8.67982 52.81C8.69982 52.81 8.70982 52.81 8.72982 52.81C8.75982 52.81 8.78982 52.81 8.80982 52.81C8.83982 52.81 8.86982 52.81 8.90982 52.81C8.96982 52.81 8.82982 52.79 8.90982 52.81C8.96982 52.82 9.02982 52.84 9.07982 52.86C9.12982 52.87 9.08982 52.86 9.07982 52.86C9.01982 52.84 9.07982 52.86 9.09982 52.87C9.12982 52.89 9.15982 52.9 9.17982 52.92C9.34982 53.03 9.61982 52.96 9.70982 52.78C9.80982 52.59 9.74982 52.37 9.56982 52.25L9.54982 52.23Z" fill="#F2F0E3"/>
<path d="M13.4199 54.9499C22.8499 55.7299 32.2099 57.1199 41.4599 59.0999C41.9499 59.1999 42.1599 58.4499 41.6699 58.3499C32.3499 56.3499 22.9199 54.9599 13.4299 54.1699C12.9299 54.1299 12.9299 54.9099 13.4299 54.9499H13.4199Z" fill="#F2F0E3"/>
</svg>
