<?xml version="1.0" encoding="UTF-8"?>
<svg id="Capa_2" data-name="Capa 2" xmlns="http://www.w3.org/2000/svg" viewBox="0 0 76.27 58.08">
  <defs>
    <style>
      .cls-1 {
        fill: #2f3f1a;
      }

      .cls-1, .cls-2 {
        stroke-width: 0px;
      }

      .cls-2 {
        fill: #edcd46;
      }
    </style>
  </defs>
  <g id="Light_Version" data-name="Light Version">
    <g>
      <path class="cls-2" d="M67.07,9.8c-1.39,4.34-.72,9.16,1.74,12.44.34.45.71.88.97,1.4.5,1,.51,2.24.52,3.42.04,9.08.07,18.16.11,27.24,0,.47,0,.95.19,1.36s.97.69,1.41.57c.77-.21,1.52-1.92,1.45-2.74-.68-8.04-.62-16.04-.93-24.15-.07-1.87.68-4.25.75-6.13.03-.65-.23-.98.08-1.57.25-.47.6-.9.94-1.3,1.45-1.73,1.65-4.14,1.78-6.35s-1.03-5.41-.62-7.61c-.32,1.88-1.18,5.47-1.5,7.35-.1.58-.49,1.38-.98,1.19-.17-.07-.28-.25-.36-.42-.93-1.8-1.63-3.75-2.09-5.78-.06,1.99-.52,4.02-1.35,5.89-.09.21-.21.44-.41.53-.23.1-.47-.03-.66-.18-1.27-1.03-1.74-3.05-1.1-4.79"/>
      <path class="cls-2" d="M32.23,1.75l-3.87,1.21c-1.45.45-2.93.92-4.18,1.9-1.03.8-1.84,1.88-2.63,2.95-1.75,2.37-3.51,4.75-4.87,7.38-2.75,5.34-3.66,11.49-3,17.18.21,1.75.56,3.49,1.28,5.02.74,1.58,1.85,2.89,2.95,4.19,2.8,3.31,5.65,6.66,9.25,8.98,3.33,2.14,7.2,3.32,11.16,3.94,1.91.3,3.87.48,5.84.16,2.54-.41,4.98-1.62,7.34-2.89,1.7-.91,3.4-1.87,4.91-3.16,3.17-2.7,5.27-6.69,6.22-10.78s.83-8.27.18-12.23c-.88-5.4-2.73-10.51-5.42-14.98-.88-1.47-1.87-2.89-3.14-3.99-1.23-1.07-2.69-1.81-4.16-2.5-3.03-1.42-6.18-2.69-9.53-3.23-3.35-.54-6.94-.32-10.26,1.14"/>
      <g>
        <path class="cls-2" d="M7.79,52.64c-.05-.71-.13-1.42-.22-2.12.33-6.65-.37-13.23-.1-19.88.08-1.22.17-2.43.26-3.65.03-.47-.28-.71-.62-.71.06-.88.14-1.75.25-2.62.09-.72.22-1.42.38-2.12.27-.35.5-.72.67-1.02,1.55-2.66,1.78-5.77,1.37-8.59-.26-1.79-.73-3.53-1.24-5.22-.47-1.55-1.68-1.94-3.11-2.09-.2-.02-.42.11-.58.29-.12-.07-.27-.09-.46-.02-2.21.77-3.28,3.23-3.63,5.47-.42,2.69-.04,5.45,1.04,7.74.53,1.12,1.29,2.03,1.96,3.03.16.38.36.75.61,1.06.41.87.66,1.84.8,2.82.43,3-.17,6.14-.52,9.21-.72,6.28-.96,12.72-.36,18.86.12,1.25.35,2.52.93,3.57.28.51.57,1.09,1.24.93.49-.12.85-.53,1.07-1.01.54-1.17.35-2.73.26-3.91ZM7.32,9.95s0,0,0-.01c0,0,0,0,0,.01,0,0,0,0,0,0ZM5.41,42.44c0,.81,0,1.62,0,2.44,0,1.67.03,3.33.06,4.99-.06-1.19-.1-2.38-.11-3.57-.01-1.28.01-2.57.05-3.86Z"/>
        <path class="cls-1" d="M5.21,35.52c.22-3.93.45-7.89.32-11.83-.04-1.34-.85-2.61-1.52-3.75-.96-1.63-2.06-3.19-2.62-5.02-.91-2.99-.54-6.43,1.23-9.05.56-.83,1.31-1.73,2.29-2.06,1.26-.43,2.16.42,2.85,1.36,1.01,1.38,1.72,2.97,2.14,4.62.93,3.65.18,7.16-1.57,10.44-.34.65-.71,1.28-1.09,1.9-.5.83-.52.99-.44,1.97.15,1.96.29,3.93.41,5.89.47,7.79.67,15.59.73,23.4,0,.89.13,1.88-.09,2.75-.2.82-.91,1.22-1.7.84-.7-.33-1.04-1.02-1.25-1.73-.57-1.95-.3-4.39-.28-6.39.04-4.45.34-8.9.59-13.35.03-.6-.89-.59-.93,0-.26,4.69-.58,9.39-.59,14.09,0,2.33-.67,8.47,3.13,8.48,1.24,0,1.86-1.06,2-2.16.29-2.17.03-4.52,0-6.71-.07-4.62-.19-9.24-.4-13.86-.1-2.28-.23-4.55-.38-6.83-.07-1.15-.16-2.29-.24-3.44-.04-.58-.18-1.23-.05-1.8s.54-1.11.85-1.64c1.88-3.26,3.05-6.74,2.51-10.54-.25-1.77-.82-3.48-1.68-5.05-.7-1.27-1.68-2.88-3.19-3.23C3.05,2.08.89,6.45.31,8.9c-.98,4.1.48,7.53,2.57,10.97.64,1.06,1.42,2.21,1.65,3.44.25,1.3.09,2.77.07,4.09-.04,2.71-.17,5.42-.32,8.13-.03.6.89.59.93,0Z"/>
        <path class="cls-1" d="M66.31,3.27c-.64,3.81-.9,7.66-.73,11.52.08,1.72.15,3.52.73,5.16.53,1.5,1.65,2.32,2.45,3.62.58.94.38,2.1.35,3.15s-.07,2.13-.11,3.2c-.06,2.05-.12,4.1-.17,6.16-.09,4.19-.15,8.38-.17,12.57,0,2.06,0,4.11,0,6.17,0,1.13,0,1.99,1.19,2.38.95.32,3.06.82,3.85-.09.28-.33.29-.77.29-1.17.02-1.07-.08-2.17-.11-3.24-.29-8.39-.6-16.78-.88-25.18-.07-2.29-.02-4.37,1.43-6.26,1.04-1.36,1.5-2.7,1.64-4.4.36-4.54.16-9.19-.07-13.73-.03-.59-.96-.6-.93,0,.19,3.69.25,7.38.17,11.07-.03,1.6.06,3.38-.54,4.9s-1.93,2.54-2.36,4.19c-.36,1.38-.31,2.83-.27,4.24.06,1.99.14,3.99.21,5.98.13,3.74.26,7.48.39,11.22.06,1.75.12,3.49.18,5.24.03,1,.07,1.99.1,2.99.02.5.03,1,.05,1.5.01.42.19,1.12.05,1.5-.36.99-2.23.88-2.97.37-.79-.54-.51-1.93-.51-2.72,0-1.97,0-3.95,0-5.92.04-7.47.45-14.94.49-22.4,0-1.52-.66-2.36-1.61-3.45-1.39-1.6-1.74-3.51-1.89-5.57-.31-4.24-.09-8.52.62-12.71.1-.58-.79-.83-.89-.25h0Z"/>
        <path class="cls-1" d="M66.42,3.42c.04,2.22.23,4.43.57,6.63.17,1.08.37,2.16.61,3.23.16.7.41,1.56,1.25,1.66s1.05-.66,1.09-1.34c.07-1.12.14-2.23.2-3.35.14-2.31.28-4.62.42-6.93l-.91.12c.45,2.09.9,4.18,1.34,6.28.22,1.03.44,2.06.66,3.08.14.65.36,1.38,1.02,1.68.23.1.5.07.63-.17.43-.73.55-1.54.7-2.36.18-1,.37-2,.55-3,.36-1.96.72-3.92,1.08-5.88.11-.58-.79-.83-.89-.25-.35,1.89-.69,3.77-1.04,5.66-.17.92-.34,1.85-.51,2.77-.16.86-.24,1.81-.69,2.58l.63-.17c-.65-.29-.68-1.52-.81-2.11l-.59-2.75c-.4-1.87-.8-3.74-1.2-5.62-.11-.53-.88-.38-.91.12-.11,1.86-.23,3.72-.34,5.58-.05.89-.11,1.79-.16,2.68l-.08,1.34c-.01.22-.02.45-.04.67-.01.19.06.43-.13.38-.28-.06-.37-.84-.42-1.06-.1-.46-.2-.93-.29-1.39-.17-.89-.32-1.78-.44-2.68-.24-1.8-.36-3.61-.39-5.42,0-.6-.94-.6-.93,0h0Z"/>
        <path class="cls-1" d="M28.73,5.84c5.75-1.69,11.95-2.31,17.67-.18,5.47,2.03,9.74,6.69,12.32,11.85,1.34,2.68,1.76,5.69,2.19,8.62s.72,5.67.37,8.54c-.63,5.05-3,9.91-6.73,13.39-3.94,3.68-9.31,5.49-14.66,5.36-2.94-.07-5.8-.77-8.52-1.86s-5.8-2.4-7.92-4.47c-2.64-2.57-4.43-6.28-5.66-9.72s-1.87-6.78-1.93-10.28c-.07-4.05.75-8.13,2.72-11.7,2.34-4.23,6.1-7.32,10.41-9.41.54-.26.07-1.06-.47-.8-4.05,1.97-7.66,4.81-10.09,8.64-2.08,3.28-3.18,7.08-3.44,10.94-.5,7.48,1.91,15.65,6.55,21.56,1.78,2.27,4.15,3.6,6.71,4.84,2.86,1.39,5.85,2.52,9.02,2.96,5.5.76,11.33-.46,15.87-3.72,4.12-2.97,7.04-7.4,8.39-12.27.73-2.63.98-5.37.78-8.09-.22-3.11-.67-6.35-1.45-9.37-.86-3.32-2.68-6.13-4.77-8.81s-4.46-4.8-7.46-6.26c-6.35-3.08-13.54-2.6-20.15-.66-.57.17-.33,1.06.25.89h0Z"/>
        <path class="cls-1" d="M27.56,2.62c6.46-1.9,13.38-2.57,19.8-.17,6.05,2.25,10.78,7.43,13.65,13.12,1.44,2.86,1.94,6.05,2.41,9.19.5,3.34.91,6.68.49,10.05-.69,5.55-3.25,10.88-7.29,14.76-4.37,4.2-10.37,6.3-16.39,6.21-3.3-.05-6.51-.8-9.57-2.02s-6.26-2.59-8.66-4.73c-3.16-2.82-5.27-7.23-6.67-11.17-1.32-3.69-2.1-7.59-2.16-11.51-.07-4.53.85-9.09,3.05-13.07,2.61-4.72,6.81-8.16,11.62-10.49.54-.26.07-1.06-.47-.8-4.5,2.18-8.51,5.34-11.22,9.59-2.34,3.68-3.57,7.96-3.85,12.3-.52,8.25,2.13,17.19,7.18,23.75,2.07,2.69,4.85,4.23,7.85,5.67s6.4,2.71,9.85,3.17c6.06.81,12.44-.53,17.46-4.08,4.64-3.29,7.93-8.29,9.43-13.75.82-2.97,1.09-6.05.85-9.12-.27-3.53-.76-7.21-1.69-10.62s-2.88-6.44-5.06-9.27-4.99-5.47-8.37-7.12c-7.08-3.47-15.12-2.94-22.5-.77-.57.17-.33,1.06.25.89h0Z"/>
      </g>
    </g>
  </g>
</svg>