<?xml version="1.0" encoding="UTF-8"?>
<svg id="Capa_2" data-name="Capa 2" xmlns="http://www.w3.org/2000/svg" viewBox="0 0 94.54 72.28">
  <defs>
    <style>
      .cls-1 {
        fill: #f2f0e3;
      }

      .cls-1, .cls-2, .cls-3 {
        stroke-width: 0px;
      }

      .cls-2 {
        fill: #e297b3;
      }

      .cls-3 {
        fill: #edcd46;
      }
    </style>
  </defs>
  <g id="Dark_Version" data-name="Dark Version">
    <g>
      <path class="cls-3" d="M66.45,5.34c-1.17.55-2.38,1.14-3.21,2.13s-1.16,2.53-.41,3.59,2.71,1.04,3.15-.18c.42.95,1.59,1.38,2.62,1.26s1.96-.66,2.86-1.19c1.67,2.77,5.63,3.86,8.49,2.34,2.18,1.6,4.86,2.63,7.55,2.42,2.69-.2,5.35-1.79,6.42-4.27.62-1.42.69-3.02.56-4.57-.07-.86-.22-1.75-.68-2.49-.58-.93-1.59-1.51-2.61-1.92-3.91-1.57-8.56-1.12-12.1,1.16-1.55-1.68-4.31-1.37-6.41-.47-2.1.9-4.1,2.28-6.39,2.35"/>
      <path class="cls-2" d="M24.67,14.06c-.43,1.44-.75,2.92-.94,4.42,1.93.31,3.89-.64,5.26-2.03,1.37-1.39,2.27-3.17,3.14-4.92-.02,1.05.15,2.11.52,3.1,1.28-1.34,2.4-2.84,3.31-4.45.38-.67.73-1.4.69-2.16-.07-1.24-1.15-2.17-2.25-2.75-4.28-2.25-9.51-1.23-14.11.29-2.52.83-5.01,1.8-7.21,3.28-2.2,1.48-4.1,3.51-5.05,5.98-.76,1.99-.88,4.15-.98,6.28-.66,14.35-.74,28.72-.25,43.07,6-6.39,11.68-13.08,17.01-20.04.19-.25.38-.5.48-.79.1-.3.1-.63.09-.94-.01-1.11-.03-2.21-.04-3.32,0-.34-.02-.71-.21-1-.21-.31-.57-.46-.92-.6-2.33-.99-4.44-2.51-6.11-4.41-1.89-.17-3.65-1.33-4.56-3-.9-1.66-.92-3.78-.04-5.46,1.85.17,3.64.87,5.11,2-.14-2.34-.28-4.67-.42-7.01,3.23-.54,5.44-3.45,7.31-6.14"/>
      <g>
        <g>
          <path class="cls-1" d="M16.96,33.44c4.96,4.95,13.1,7.19,19.55,3.86,3.63-1.87,5.7-5.02,6.04-9.07.24-2.86-.12-5.91-.63-8.73-.79-4.34-2.53-8.42-4.78-12.2-.33-.56-1.21-.05-.87.51,3.12,5.23,4.79,10.73,5.26,16.77.32,4.16-.28,8.3-3.91,10.87-2.78,1.97-6.18,2.68-9.54,2.32-3.92-.42-7.62-2.27-10.4-5.05-.46-.46-1.17.25-.71.71h0Z"/>
          <path class="cls-1" d="M35.69,6.84c1.88,3.43-.95,6.66-3.99,7.99l.76.44c.16-1.86-.02-3.68-.53-5.47-.13-.46-.87-.5-.97,0-.9,4.19-3.97,7.64-8.05,8.98l.57.74c.71-1.63,1.01-3.29.87-5.07-.04-.51-.65-.67-.94-.25-.84,1.19-1.73,2.41-2.88,3.33-.64.51-1.37.91-2.17,1.1-.42.1-.93.07-1.29.35-.82.65-.26,2.46-.19,3.31.13,1.72.27,3.44.4,5.16l.94-.25c-.62-.81-1.32-1.53-2.17-2.1-.72-.48-1.9-1.21-2.81-1.04-1.63.31-1.91,3-1.76,4.29.49,4.14,5.17,6.17,8.63,3.95.54-.35.04-1.22-.51-.87-2.46,1.58-5.91.68-6.89-2.19-.33-.98-.52-2.86.26-3.71,1.19-1.29,3.7,1.27,4.38,2.18.27.35.98.3.94-.25-.13-1.64-.26-3.28-.38-4.92-.05-.69-.32-1.66-.18-2.34.08-.41,0-.34.36-.48.31-.12.73-.13,1.06-.25,2.27-.78,3.8-2.86,5.13-4.74l-.94-.25c.13,1.58-.1,3.1-.73,4.56-.16.37.11.89.57.74,4.4-1.44,7.77-5.14,8.75-9.68h-.97c.49,1.71.64,3.43.49,5.2-.04.42.45.57.76.44,3.58-1.57,6.49-5.48,4.35-9.37-.31-.57-1.18-.06-.87.51h0Z"/>
          <path class="cls-1" d="M36.35,6.2c-3.29-3.35-8.43-2.73-12.6-1.83-4.6,1-9.51,2.67-12.63,6.41-3.6,4.31-4.34,10.76-4.59,16.16-.28,6,.4,11.95.9,17.92.55,6.58.89,13.37-1.19,19.73-.2.62.77.88.97.27,3.36-10.31.68-21.31.3-31.84-.21-5.73.03-11.73,1.96-17.19,1.79-5.08,5.9-7.94,10.88-9.52,4.54-1.44,11.46-3.28,15.28.61.46.46,1.17-.25.71-.71h0Z"/>
          <path class="cls-1" d="M23.71,37.41c.24,2.37.49,4.74.73,7.1.06.64,1.07.65,1.01,0-.24-2.37-.49-4.74-.73-7.1-.06-.64-1.07-.65-1.01,0h0Z"/>
          <path class="cls-1" d="M24.54,44.29C16.41,53.33,8.27,62.37.14,71.41c-.43.48.28,1.2.71.71,8.14-9.04,16.27-18.08,24.41-27.11.43-.48-.28-1.2-.71-.71h0Z"/>
          <path class="cls-1" d="M60.85,62.14c-4.04-4.54-8.44-8.75-13.18-12.55-2.18-1.74-4.41-3.54-6.8-5-.49-.3-1-.57-1.54-.77-.36-.13-.65-.12-.88-.41-.19-.23-.16-.93-.2-1.21-.29-1.82-.49-3.64-.64-5.48-.05-.64-1.06-.65-1.01,0,.19,2.5.51,4.98.96,7.44.03.15.2.33.35.35,2.25.36,4.19,2.11,5.97,3.43,2.05,1.52,4.04,3.11,5.97,4.77,3.65,3.14,7.08,6.53,10.27,10.13.43.49,1.14-.23.71-.71h0Z"/>
          <path class="cls-1" d="M18.27,52.35c1.53,5.5,7.41,8.13,12.76,7.28,6.26-1,11.07-5.7,14.74-10.55.39-.52-.48-1.02-.87-.51-3.28,4.33-7.46,8.5-12.9,9.84-5.12,1.26-11.23-.85-12.75-6.32-.17-.63-1.15-.36-.97.27h0Z"/>
        </g>
        <path class="cls-1" d="M27.32,30.67c1.98.59,4.26.98,6.25.18,1.56-.62,2.61-1.91,3.17-3.47.36-1,.51-2.06.57-3.11.04-.65-.97-.65-1.01,0-.11,1.84-.56,3.95-2.13,5.11-1.88,1.4-4.51.93-6.58.31-.62-.19-.89.79-.27.97h0Z"/>
        <path class="cls-1" d="M62.01,37.48c2.49,2.41,5.98,3.39,9.37,3.64s6.9-.46,9.56-2.67c2.86-2.37,3.4-5.7,3.76-9.21.45-4.29.63-8.6.82-12.91.03-.65-.98-.65-1.01,0-.16,3.62-.31,7.23-.62,10.84-.29,3.42-.35,7.25-2.89,9.86-2.28,2.34-5.58,3.21-8.77,3.13-3.37-.09-7.02-.98-9.51-3.38-.47-.45-1.18.26-.71.71h0Z"/>
        <path class="cls-1" d="M62.48,11.48c.04-2.31.71-4.8,2.81-6.1.93-.57,1.87-.45,2.83-.79.75-.27,1.28-1,1.89-1.5,1.67-1.38,3.79-2.46,6.01-1.96,1.16.26,1.8.87,2.58,1.71.48.51.94.55,1.6.41,3.87-.82,10.77-2.02,12.59,2.89,1.6,4.34-3.12,9.05-7.26,9.09-1.2.01-2.41-.27-3.46-.86-.49-.27-.88-.78-1.36-1.02-.38-.19-.62-.11-1.08-.06-2.71.33-5.99.46-7.81-1.98-.12-.16-.35-.32-.57-.23-1.49.62-3.16,1.26-4.59.16-.14-.1-.37-.09-.51,0-1.25.78-2.69.88-4.02.24-.58-.28-1.09.59-.51.87,1.66.8,3.47.74,5.04-.24h-.51c1.65,1.27,3.62.67,5.37-.06l-.57-.23c1.44,1.92,3.67,2.65,6.01,2.67.82,0,1.62-.1,2.43-.16s.92.08,1.55.52c.94.66,2.04,1.09,3.17,1.28,4.59.76,9.04-2.72,9.85-7.23.39-2.18-.37-4.23-2.09-5.62-1.92-1.55-4.44-1.89-6.84-1.78-1.41.06-2.82.26-4.2.56-.19.04-.67.23-.89.22-.84-.05-.53-.21-.95-.58-.38-.33-.7-.68-1.14-.93-1.84-1.08-4.11-.92-5.99-.06-1.25.58-2.24,1.45-3.29,2.33s-2.56.73-3.78,1.48c-2.4,1.48-3.26,4.28-3.31,6.97-.01.65,1,.65,1.01,0h0Z"/>
        <path class="cls-1" d="M61.31,11.76c-.51,2.46-.89,4.95-1.13,7.45-.06.65.95.64,1.01,0,.23-2.41.6-4.81,1.09-7.18.13-.63-.84-.91-.97-.27h0Z"/>
        <path class="cls-1" d="M60.9,18.82c-1.24-.83-2.68-.05-3.44,1.03-.81,1.15-1.18,2.65-1.08,4.05.19,2.73,2.1,5.04,4.71,5.82.62.18.89-.79.27-.97-2-.59-3.54-2.26-3.91-4.32-.19-1.1-.04-2.29.44-3.3.42-.88,1.4-2.15,2.5-1.42.54.36,1.05-.51.51-.87h0Z"/>
        <path class="cls-1" d="M59.45,29.2c-.63,4.93-1.45,9.87-1.87,14.82-.35,4.04,2.32,6.98,5.24,9.4,2.48,2.05,6.38,3.82,8.75.59,1.14-1.55,1.28-3.52,1.38-5.37.14-2.39.27-4.78.4-7.17.04-.65-.97-.65-1.01,0-.11,1.91-.21,3.82-.32,5.73s-.01,4-.94,5.69c-2.34,4.28-7.1.41-9.36-1.8-1.23-1.21-2.39-2.6-2.91-4.28-.58-1.85-.11-3.85.13-5.72.5-3.96,1.01-7.93,1.51-11.89.08-.64-.93-.64-1.01,0h0Z"/>
        <path class="cls-1" d="M57.1,44.35c-3.02,1.8-5.59,4.22-7.83,6.91-.41.5.3,1.21.71.71,2.18-2.63,4.68-4.99,7.62-6.75.56-.33.05-1.21-.51-.87h0Z"/>
        <path class="cls-1" d="M72.49,47.05c7.46,6.39,11.49,15.56,15.29,24.39.26.6,1.13.08.87-.51-3.84-8.91-7.92-18.15-15.45-24.6-.49-.42-1.21.29-.71.71h0Z"/>
        <path class="cls-1" d="M66.7,30.82c3.41,3.24,8.7,3.33,12.23.24.49-.43-.23-1.14-.71-.71-3.11,2.72-7.82,2.6-10.81-.24-.47-.45-1.19.27-.71.71h0Z"/>
      </g>
    </g>
  </g>
</svg>