<svg width="95" height="73" viewBox="0 0 95 73" fill="none" xmlns="http://www.w3.org/2000/svg">
<path d="M66.45 5.33998C65.28 5.88998 64.07 6.47998 63.24 7.46998C62.41 8.46998 62.08 9.99998 62.83 11.06C63.58 12.12 65.54 12.1 65.98 10.88C66.4 11.83 67.57 12.26 68.6 12.14C69.63 12.02 70.56 11.48 71.46 10.95C73.13 13.72 77.09 14.81 79.95 13.29C82.13 14.89 84.81 15.92 87.5 15.71C90.19 15.51 92.85 13.92 93.92 11.44C94.54 10.02 94.61 8.41998 94.48 6.86998C94.41 6.00998 94.26 5.11998 93.8 4.37998C93.22 3.44998 92.21 2.86998 91.19 2.45998C87.28 0.889979 82.63 1.33998 79.09 3.61998C77.54 1.93998 74.78 2.24998 72.68 3.14998C70.58 4.04998 68.58 5.42998 66.29 5.49998" fill="#E9E6E2"/>
<path d="M24.67 14.06C24.24 15.5 23.92 16.98 23.73 18.48C25.66 18.79 27.62 17.84 28.99 16.45C30.36 15.06 31.26 13.28 32.13 11.53C32.11 12.58 32.28 13.64 32.65 14.63C33.93 13.29 35.05 11.79 35.96 10.18C36.34 9.50997 36.69 8.77997 36.65 8.01997C36.58 6.77997 35.5 5.84997 34.4 5.26997C30.12 3.01997 24.89 4.03997 20.29 5.55997C17.77 6.38997 15.28 7.35997 13.08 8.83997C10.88 10.32 8.97999 12.35 8.02999 14.82C7.26999 16.81 7.14999 18.97 7.04999 21.1C6.38999 35.45 6.30999 49.82 6.79999 64.17C12.8 57.78 18.48 51.09 23.81 44.13C24 43.88 24.19 43.63 24.29 43.34C24.39 43.04 24.39 42.71 24.38 42.4C24.37 41.29 24.35 40.19 24.34 39.08C24.34 38.74 24.32 38.37 24.13 38.08C23.92 37.77 23.56 37.62 23.21 37.48C20.88 36.49 18.77 34.97 17.1 33.07C15.21 32.9 13.45 31.74 12.54 30.07C11.64 28.41 11.62 26.29 12.5 24.61C14.35 24.78 16.14 25.48 17.61 26.61C17.47 24.27 17.33 21.94 17.19 19.6C20.42 19.06 22.63 16.15 24.5 13.46" fill="#E9E6E2"/>
<path d="M16.9601 33.44C21.9201 38.39 30.0601 40.63 36.51 37.3C40.14 35.43 42.2101 32.28 42.5501 28.23C42.7901 25.37 42.43 22.32 41.92 19.5C41.13 15.16 39.3901 11.08 37.1401 7.29999C36.8101 6.73999 35.9301 7.24999 36.2701 7.80999C39.3901 13.04 41.0601 18.54 41.5301 24.58C41.8501 28.74 41.2501 32.88 37.6201 35.45C34.8401 37.42 31.4401 38.13 28.0801 37.77C24.1601 37.35 20.4601 35.5 17.6801 32.72C17.2201 32.26 16.5101 32.97 16.9701 33.43L16.9601 33.44Z" fill="#423C33"/>
<path d="M35.6899 6.83998C37.5699 10.27 34.74 13.5 31.7 14.83L32.4599 15.27C32.6199 13.41 32.44 11.59 31.93 9.79998C31.8 9.33998 31.0599 9.29998 30.9599 9.79998C30.0599 13.99 26.99 17.44 22.91 18.78L23.4799 19.52C24.1899 17.89 24.49 16.23 24.35 14.45C24.31 13.94 23.7 13.78 23.41 14.2C22.57 15.39 21.68 16.61 20.53 17.53C19.89 18.04 19.16 18.44 18.36 18.63C17.94 18.73 17.43 18.7 17.07 18.98C16.25 19.63 16.8099 21.44 16.8799 22.29C17.0099 24.01 17.15 25.73 17.28 27.45L18.2199 27.2C17.5999 26.39 16.8999 25.67 16.0499 25.1C15.3299 24.62 14.15 23.89 13.24 24.06C11.61 24.37 11.33 27.06 11.48 28.35C11.97 32.49 16.65 34.52 20.11 32.3C20.65 31.95 20.15 31.08 19.6 31.43C17.14 33.01 13.69 32.11 12.71 29.24C12.38 28.26 12.19 26.38 12.97 25.53C14.16 24.24 16.67 26.8 17.35 27.71C17.62 28.06 18.33 28.01 18.29 27.46C18.16 25.82 18.03 24.18 17.91 22.54C17.86 21.85 17.5899 20.88 17.7299 20.2C17.8099 19.79 17.73 19.86 18.09 19.72C18.4 19.6 18.82 19.59 19.15 19.47C21.42 18.69 22.95 16.61 24.28 14.73L23.34 14.48C23.47 16.06 23.24 17.58 22.61 19.04C22.45 19.41 22.72 19.93 23.18 19.78C27.58 18.34 30.95 14.64 31.93 10.1H30.9599C31.4499 11.81 31.6 13.53 31.45 15.3C31.41 15.72 31.8999 15.87 32.2099 15.74C35.7899 14.17 38.7 10.26 36.56 6.36997C36.25 5.79997 35.3799 6.30998 35.6899 6.87998V6.83998Z" fill="#423C33"/>
<path d="M36.3499 6.19999C33.0599 2.84999 27.9199 3.46999 23.7499 4.36999C19.1499 5.36999 14.2399 7.03999 11.1199 10.78C7.51989 15.09 6.77989 21.54 6.52989 26.94C6.24989 32.94 6.92989 38.89 7.42989 44.86C7.97989 51.44 8.31989 58.23 6.23989 64.59C6.03989 65.21 7.00989 65.47 7.20989 64.86C10.5699 54.55 7.88989 43.55 7.50989 33.02C7.29989 27.29 7.53989 21.29 9.46989 15.83C11.2599 10.75 15.3699 7.88999 20.3499 6.30999C24.8899 4.86999 31.8099 3.02999 35.6299 6.91999C36.0899 7.37999 36.7999 6.66999 36.3399 6.20999L36.3499 6.19999Z" fill="#423C33"/>
<path d="M23.7101 37.41C23.9501 39.78 24.2001 42.15 24.4401 44.51C24.5001 45.15 25.5101 45.16 25.4501 44.51C25.2101 42.14 24.9601 39.77 24.7201 37.41C24.6601 36.77 23.6501 36.76 23.7101 37.41Z" fill="#423C33"/>
<path d="M24.54 44.29C16.41 53.33 8.26999 62.37 0.139991 71.41C-0.290009 71.89 0.419991 72.61 0.849991 72.12C8.98999 63.08 17.12 54.04 25.26 45.01C25.69 44.53 24.98 43.81 24.55 44.3L24.54 44.29Z" fill="#423C33"/>
<path d="M60.8499 62.14C56.8099 57.6 52.4099 53.39 47.6699 49.59C45.4899 47.85 43.2599 46.05 40.8699 44.59C40.3799 44.29 39.8699 44.02 39.3299 43.82C38.9699 43.69 38.6799 43.7 38.4499 43.41C38.2599 43.18 38.2899 42.48 38.2499 42.2C37.9599 40.38 37.7599 38.56 37.6099 36.72C37.5599 36.08 36.5499 36.07 36.5999 36.72C36.7899 39.22 37.1099 41.7 37.5599 44.16C37.5899 44.31 37.7599 44.49 37.9099 44.51C40.1599 44.87 42.0999 46.62 43.8799 47.94C45.9299 49.46 47.9199 51.05 49.8499 52.71C53.4999 55.85 56.9299 59.24 60.1199 62.84C60.5499 63.33 61.2599 62.61 60.8299 62.13L60.8499 62.14Z" fill="#423C33"/>
<path d="M18.27 52.35C19.8 57.85 25.68 60.48 31.03 59.63C37.29 58.63 42.1 53.93 45.77 49.08C46.16 48.56 45.29 48.06 44.9 48.57C41.62 52.9 37.44 57.07 32 58.41C26.88 59.67 20.77 57.56 19.25 52.09C19.08 51.46 18.1 51.73 18.28 52.36L18.27 52.35Z" fill="#423C33"/>
<path d="M27.3199 30.67C29.2999 31.26 31.5799 31.65 33.5699 30.85C35.1299 30.23 36.1799 28.94 36.7399 27.38C37.0999 26.38 37.2499 25.32 37.3099 24.27C37.3499 23.62 36.3399 23.62 36.2999 24.27C36.1899 26.11 35.7399 28.22 34.1699 29.38C32.2899 30.78 29.6599 30.31 27.5899 29.69C26.9699 29.5 26.6999 30.48 27.3199 30.66V30.67Z" fill="#423C33"/>
<path d="M62.01 37.4799C64.5 39.8899 67.99 40.8699 71.38 41.1199C74.77 41.3699 78.28 40.6599 80.94 38.4499C83.8 36.0799 84.34 32.7499 84.7 29.2399C85.15 24.9499 85.33 20.6399 85.52 16.3299C85.55 15.6799 84.54 15.6799 84.51 16.3299C84.35 19.9499 84.2 23.5599 83.89 27.1699C83.6 30.5899 83.54 34.4199 81 37.0299C78.72 39.3699 75.42 40.2399 72.23 40.1599C68.86 40.0699 65.21 39.1799 62.72 36.7799C62.25 36.3299 61.54 37.0399 62.01 37.4899V37.4799Z" fill="#423C33"/>
<path d="M62.48 11.4799C62.52 9.16994 63.19 6.67995 65.29 5.37995C66.22 4.80995 67.16 4.92995 68.12 4.58995C68.87 4.31995 69.4 3.58994 70.01 3.08994C71.68 1.70994 73.8 0.629945 76.02 1.12995C77.18 1.38995 77.82 1.99994 78.6 2.83994C79.08 3.34994 79.54 3.38994 80.2 3.24994C84.07 2.42994 90.97 1.22995 92.79 6.13995C94.39 10.4799 89.67 15.1899 85.53 15.2299C84.33 15.2399 83.12 14.9599 82.07 14.3699C81.58 14.0999 81.19 13.5899 80.71 13.3499C80.33 13.1599 80.09 13.2399 79.63 13.2899C76.92 13.6199 73.64 13.7499 71.82 11.3099C71.7 11.1499 71.47 10.9899 71.25 11.0799C69.76 11.6999 68.0901 12.3399 66.6601 11.2399C66.5201 11.1399 66.29 11.1499 66.15 11.2399C64.9 12.0199 63.46 12.1199 62.13 11.4799C61.55 11.1999 61.04 12.0699 61.62 12.3499C63.28 13.1499 65.0901 13.0899 66.6601 12.1099H66.15C67.8 13.3799 69.77 12.7799 71.52 12.0499L70.95 11.8199C72.39 13.7399 74.62 14.4699 76.96 14.4899C77.78 14.4899 78.58 14.3899 79.39 14.3299C80.2 14.2699 80.3101 14.4099 80.9401 14.8499C81.8801 15.5099 82.98 15.9399 84.11 16.1299C88.7 16.8899 93.15 13.4099 93.96 8.89994C94.35 6.71994 93.5901 4.66994 91.8701 3.27994C89.9501 1.72994 87.43 1.38995 85.03 1.49995C83.62 1.55995 82.21 1.75994 80.83 2.05994C80.64 2.09994 80.1601 2.28994 79.9401 2.27994C79.1001 2.22994 79.41 2.06995 78.99 1.69995C78.61 1.36995 78.29 1.01995 77.85 0.769945C76.01 -0.310055 73.74 -0.150055 71.86 0.709945C70.61 1.28995 69.62 2.15994 68.57 3.03994C67.52 3.91994 66.01 3.76995 64.79 4.51995C62.39 5.99995 61.53 8.79994 61.48 11.4899C61.47 12.1399 62.48 12.1399 62.49 11.4899L62.48 11.4799Z" fill="#423C33"/>
<path d="M61.3101 11.76C60.8001 14.22 60.4201 16.71 60.1801 19.21C60.1201 19.86 61.1301 19.85 61.1901 19.21C61.4201 16.8 61.7901 14.4 62.2801 12.03C62.4101 11.4 61.4401 11.12 61.3101 11.76Z" fill="#423C33"/>
<path d="M60.9 18.8199C59.66 17.9899 58.22 18.7699 57.46 19.8499C56.65 20.9999 56.28 22.4999 56.38 23.8999C56.57 26.6299 58.48 28.9399 61.09 29.7199C61.71 29.8999 61.98 28.9299 61.36 28.7499C59.36 28.1599 57.82 26.4899 57.45 24.4299C57.26 23.3299 57.41 22.1399 57.89 21.1299C58.31 20.2499 59.29 18.9799 60.39 19.7099C60.93 20.0699 61.44 19.1999 60.9 18.8399V18.8199Z" fill="#423C33"/>
<path d="M59.4501 29.2C58.8201 34.13 58.0001 39.07 57.5801 44.02C57.2301 48.06 59.9001 51 62.8201 53.42C65.3001 55.47 69.2001 57.24 71.5701 54.01C72.7101 52.46 72.8501 50.49 72.9501 48.64C73.0901 46.25 73.2201 43.86 73.3501 41.47C73.3901 40.82 72.3801 40.82 72.3401 41.47C72.2301 43.38 72.1301 45.29 72.0201 47.2C71.9101 49.11 72.0101 51.2 71.0801 52.89C68.7401 57.17 63.9801 53.3 61.7201 51.09C60.4901 49.88 59.3301 48.49 58.8101 46.81C58.2301 44.96 58.7001 42.96 58.9401 41.09C59.4401 37.13 59.9501 33.16 60.4501 29.2C60.5301 28.56 59.5201 28.56 59.4401 29.2H59.4501Z" fill="#423C33"/>
<path d="M57.1 44.35C54.08 46.15 51.51 48.57 49.27 51.26C48.86 51.76 49.57 52.47 49.98 51.97C52.16 49.34 54.66 46.98 57.6 45.22C58.16 44.89 57.65 44.01 57.09 44.35H57.1Z" fill="#423C33"/>
<path d="M72.49 47.05C79.95 53.44 83.98 62.61 87.78 71.44C88.04 72.04 88.91 71.52 88.65 70.93C84.81 62.02 80.73 52.78 73.2 46.33C72.71 45.91 71.99 46.62 72.49 47.04V47.05Z" fill="#423C33"/>
<path d="M66.6999 30.82C70.1099 34.06 75.3999 34.15 78.9299 31.06C79.4199 30.63 78.6999 29.92 78.2199 30.35C75.1099 33.07 70.3999 32.95 67.4099 30.11C66.9399 29.66 66.2199 30.38 66.6999 30.82Z" fill="#423C33"/>
</svg>
