<?xml version="1.0" encoding="UTF-8"?>
<svg id="Capa_2" data-name="Capa 2" xmlns="http://www.w3.org/2000/svg" viewBox="0 0 49.7 64.28">
  <defs>
    <style>
      .cls-1 {
        fill: #f2f0e3;
      }

      .cls-1, .cls-2 {
        stroke-width: 0px;
      }

      .cls-2 {
        fill: #a0943a;
      }
    </style>
  </defs>
  <g id="Dark_Version" data-name="Dark Version">
    <g>
      <path class="cls-2" d="M1.42,6.03c4.67,3.62,11.04,3.9,16.95,3.86,10.55-.06,21.42-.74,30.9-5.37-.83,17.04-4.21,33.89-4.9,50.93-.03.73-.08,1.52-.55,2.08-.3.35-.73.56-1.14.75-7.04,3.21-15,3.76-22.74,3.53-4.41-.13-9.03-.57-12.7-3.02-.91-.61-1.78-1.37-2.23-2.37-.35-.78-.43-1.66-.5-2.51C3.2,38.15,1.96,22.36.8,6.57"/>
      <g>
        <path class="cls-1" d="M.14,5.12c1.25,10.57,1.75,21.2,2.5,31.8.38,5.3.82,10.6,1.47,15.87.25,2.02.16,4.43,1.48,6.08,1.08,1.36,2.63,2.26,4.21,2.91,8.6,3.56,19.18,3.06,27.85.08,1.84-.63,3.67-1.42,5.24-2.59.73-.54,1.41-1.17,1.98-1.89.6-.77.43-1.86.49-2.8.37-5.26.77-10.51,1.23-15.76,1.02-11.67,2.91-23.36,3.09-35.09,0-.5-.77-.5-.78,0-.15,9.71-1.63,19.34-2.54,28.99-.46,4.92-.88,9.85-1.26,14.78-.19,2.44-.37,4.88-.53,7.32-.05.65-.02,1.29-.3,1.89-.23.5-.57.85-.98,1.22-.82.75-1.76,1.36-2.74,1.87-3.99,2.08-8.77,3.05-13.22,3.44-4.75.42-9.57.04-14.18-1.19-1.89-.51-3.82-1.13-5.43-2.26-.81-.57-1.69-1.35-2.11-2.27-.55-1.22-.51-2.94-.67-4.25-.62-4.95-1.06-9.92-1.43-14.89C2.71,27.29,2.23,16.17.92,5.12c-.06-.49-.84-.5-.78,0H.14Z"/>
        <path class="cls-1" d="M19.05,63.35c-.21-13.93-.42-27.87-.62-41.8-.03-2.2.14-4.86-2.35-5.72-1.79-.62-3.51.41-4.06,2.13-.98,3.11-.71,6.57-.73,9.79-.02,3.47-.01,6.94.03,10.4.1,7.84.38,15.69.82,23.52.03.5.81.5.78,0-.7-12.37-.98-24.76-.81-37.14.03-2.23-.48-7.57,2.54-8.07,3.72-.62,3.01,4.88,3.04,7.08.09,6.3.19,12.61.28,18.91.1,6.97.21,13.93.31,20.9,0,.5.79.5.78,0h0Z"/>
        <path class="cls-1" d="M30.03,17.4c-.21,15.24-.05,30.49.46,45.73.02.5.8.5.78,0-.52-15.24-.67-30.48-.46-45.73,0-.5-.77-.5-.78,0h0Z"/>
        <path class="cls-1" d="M30.85,17.5c.16-1.17,1.49-1.57,2.51-1.61,1.52-.07,2.26.8,2.39,2.23.17,1.87.1,3.78.14,5.65.09,4.14.18,8.27.27,12.41.18,8.27.36,16.55.53,24.82.01.5.79.5.78,0-.22-10.09-.43-20.19-.65-30.28-.05-2.48-.11-4.96-.16-7.45-.03-1.32-.05-2.65-.09-3.97-.02-.76,0-1.57-.23-2.31-.82-2.63-5.85-2.56-6.24.29-.07.49.68.7.75.21h0Z"/>
        <path class="cls-1" d="M47.07,2.16c1.15.19,2.39.97,1.56,2.29-.58.92-1.82,1.2-2.8,1.46-2.01.55-4.04,1.04-6.08,1.48s-3.93.8-5.91,1.13c-2.21.37-4.49.35-6.73.37-4.18.03-8.36-.15-12.52-.54-3.94-.36-8.31-.58-11.93-2.32-.93-.44-2.61-1.59-1.47-2.72.42-.42,1.06-.54,1.62-.65.19-.03.38-.07.56-.1,1.18-.2,2.37-.37,3.56-.53,4.94-.64,9.91-1,14.89-1.15,8.47-.25,16.95.16,25.35,1.28.49.07.49-.71,0-.78C33.25-.46,18.91-.52,5,1.53c-.81.12-1.61.24-2.41.39C1.51,2.12.25,2.62.03,3.84c-.27,1.5,1.26,2.42,2.42,2.95,3.87,1.77,8.44,2.02,12.62,2.38,4.9.43,9.82.58,14.73.44,5.24-.15,10.47-1.44,15.53-2.77,1.6-.42,3.76-.85,4.27-2.71.44-1.63-.92-2.51-2.33-2.74-.49-.08-.7.67-.21.75Z"/>
      </g>
    </g>
  </g>
</svg>